ISO-10303-21;
HEADER;
FILE_DESCRIPTION(('Open CASCADE Model'),'2;1');
FILE_NAME('Open CASCADE Shape Model','2026-05-12T00:26:46',('Author'),(
    'Open CASCADE'),'Open CASCADE STEP processor 7.8','Open CASCADE 7.8'
  ,'Unknown');
FILE_SCHEMA(('AUTOMOTIVE_DESIGN { 1 0 10303 214 1 1 1 1 }'));
ENDSEC;
DATA;
#1 = APPLICATION_PROTOCOL_DEFINITION('international standard',
  'automotive_design',2000,#2);
#2 = APPLICATION_CONTEXT(
  'core data for automotive mechanical design processes');
#3 = SHAPE_DEFINITION_REPRESENTATION(#4,#10);
#4 = PRODUCT_DEFINITION_SHAPE('','',#5);
#5 = PRODUCT_DEFINITION('design','',#6,#9);
#6 = PRODUCT_DEFINITION_FORMATION('','',#7);
#7 = PRODUCT('Open CASCADE STEP translator 7.8 3',
  'Open CASCADE STEP translator 7.8 3','',(#8));
#8 = PRODUCT_CONTEXT('',#2,'mechanical');
#9 = PRODUCT_DEFINITION_CONTEXT('part definition',#2,'design');
#10 = ADVANCED_BREP_SHAPE_REPRESENTATION('',(#11,#15),#728);
#11 = AXIS2_PLACEMENT_3D('',#12,#13,#14);
#12 = CARTESIAN_POINT('',(0.,0.,0.));
#13 = DIRECTION('',(0.,0.,1.));
#14 = DIRECTION('',(1.,0.,-0.));
#15 = MANIFOLD_SOLID_BREP('',#16);
#16 = CLOSED_SHELL('',(#17,#363,#449,#524,#591,#644,#692,#719));
#17 = ADVANCED_FACE('',(#18),#32,.F.);
#18 = FACE_BOUND('',#19,.F.);
#19 = EDGE_LOOP('',(#20,#53,#97,#139,#165,#264));
#20 = ORIENTED_EDGE('',*,*,#21,.T.);
#21 = EDGE_CURVE('',#22,#24,#26,.T.);
#22 = VERTEX_POINT('',#23);
#23 = CARTESIAN_POINT('',(-5.726258164217E-15,62.175298778515,0.));
#24 = VERTEX_POINT('',#25);
#25 = CARTESIAN_POINT('',(3.980102097229E-15,65.,0.));
#26 = SURFACE_CURVE('',#27,(#31,#42),.PCURVE_S1.);
#27 = LINE('',#28,#29);
#28 = CARTESIAN_POINT('',(0.,0.,0.));
#29 = VECTOR('',#30,1.);
#30 = DIRECTION('',(0.,1.,0.));
#31 = PCURVE('',#32,#37);
#32 = PLANE('',#33);
#33 = AXIS2_PLACEMENT_3D('',#34,#35,#36);
#34 = CARTESIAN_POINT('',(0.,0.,0.));
#35 = DIRECTION('',(0.,0.,1.));
#36 = DIRECTION('',(1.,0.,0.));
#37 = DEFINITIONAL_REPRESENTATION('',(#38),#41);
#38 = B_SPLINE_CURVE_WITH_KNOTS('',1,(#39,#40),.UNSPECIFIED.,.F.,.F.,(2,
    2),(0.,65.),.PIECEWISE_BEZIER_KNOTS.);
#39 = CARTESIAN_POINT('',(0.,0.));
#40 = CARTESIAN_POINT('',(0.,65.));
#41 = ( GEOMETRIC_REPRESENTATION_CONTEXT(2) 
PARAMETRIC_REPRESENTATION_CONTEXT() REPRESENTATION_CONTEXT('2D SPACE',''
  ) );
#42 = PCURVE('',#43,#48);
#43 = PLANE('',#44);
#44 = AXIS2_PLACEMENT_3D('',#45,#46,#47);
#45 = CARTESIAN_POINT('',(0.,0.,-500.));
#46 = DIRECTION('',(1.,0.,0.));
#47 = DIRECTION('',(0.,0.,1.));
#48 = DEFINITIONAL_REPRESENTATION('',(#49),#52);
#49 = B_SPLINE_CURVE_WITH_KNOTS('',1,(#50,#51),.UNSPECIFIED.,.F.,.F.,(2,
    2),(0.,65.),.PIECEWISE_BEZIER_KNOTS.);
#50 = CARTESIAN_POINT('',(500.,0.));
#51 = CARTESIAN_POINT('',(500.,-65.));
#52 = ( GEOMETRIC_REPRESENTATION_CONTEXT(2) 
PARAMETRIC_REPRESENTATION_CONTEXT() REPRESENTATION_CONTEXT('2D SPACE',''
  ) );
#53 = ORIENTED_EDGE('',*,*,#54,.T.);
#54 = EDGE_CURVE('',#24,#55,#57,.T.);
#55 = VERTEX_POINT('',#56);
#56 = CARTESIAN_POINT('',(-52.18181442952,38.756396153965,0.));
#57 = SURFACE_CURVE('',#58,(#63,#70),.PCURVE_S1.);
#58 = CIRCLE('',#59,65.);
#59 = AXIS2_PLACEMENT_3D('',#60,#61,#62);
#60 = CARTESIAN_POINT('',(0.,0.,0.));
#61 = DIRECTION('',(0.,0.,1.));
#62 = DIRECTION('',(1.,0.,0.));
#63 = PCURVE('',#32,#64);
#64 = DEFINITIONAL_REPRESENTATION('',(#65),#69);
#65 = CIRCLE('',#66,65.);
#66 = AXIS2_PLACEMENT_2D('',#67,#68);
#67 = CARTESIAN_POINT('',(0.,0.));
#68 = DIRECTION('',(1.,0.));
#69 = ( GEOMETRIC_REPRESENTATION_CONTEXT(2) 
PARAMETRIC_REPRESENTATION_CONTEXT() REPRESENTATION_CONTEXT('2D SPACE',''
  ) );
#70 = PCURVE('',#71,#92);
#71 = B_SPLINE_SURFACE_WITH_KNOTS('',9,1,(
    (#72,#73)
    ,(#74,#75)
    ,(#76,#77)
    ,(#78,#79)
    ,(#80,#81)
    ,(#82,#83)
    ,(#84,#85)
    ,(#86,#87)
    ,(#88,#89)
    ,(#90,#91
    )),.UNSPECIFIED.,.F.,.F.,.F.,(10,10),(2,2),(0.,412.),(0.,1.),
  .PIECEWISE_BEZIER_KNOTS.);
#72 = CARTESIAN_POINT('',(52.181814429521,38.756396153965,0.));
#73 = CARTESIAN_POINT('',(206.,153.,50.));
#74 = CARTESIAN_POINT('',(44.155177693659,49.563501824472,0.));
#75 = CARTESIAN_POINT('',(160.22222222222,153.,50.));
#76 = CARTESIAN_POINT('',(33.610561814769,58.500459208913,0.));
#77 = CARTESIAN_POINT('',(114.44444444444,153.,50.));
#78 = CARTESIAN_POINT('',(21.045944966519,64.89677535726,0.));
#79 = CARTESIAN_POINT('',(68.666666666667,153.,50.));
#80 = CARTESIAN_POINT('',(7.167600710476,68.236717611226,0.));
#81 = CARTESIAN_POINT('',(22.888888888889,153.,50.));
#82 = CARTESIAN_POINT('',(-7.167600710476,68.236717611221,0.));
#83 = CARTESIAN_POINT('',(-22.88888888888,153.,50.));
#84 = CARTESIAN_POINT('',(-21.04594496651,64.896775357264,0.));
#85 = CARTESIAN_POINT('',(-68.66666666666,153.,50.));
#86 = CARTESIAN_POINT('',(-33.61056181477,58.500459208912,0.));
#87 = CARTESIAN_POINT('',(-114.4444444444,153.,50.));
#88 = CARTESIAN_POINT('',(-44.15517769365,49.563501824472,0.));
#89 = CARTESIAN_POINT('',(-160.2222222222,153.,50.));
#90 = CARTESIAN_POINT('',(-52.18181442952,38.756396153965,0.));
#91 = CARTESIAN_POINT('',(-206.,153.,50.));
#92 = DEFINITIONAL_REPRESENTATION('',(#93),#96);
#93 = B_SPLINE_CURVE_WITH_KNOTS('',1,(#94,#95),.UNSPECIFIED.,.F.,.F.,(2,
    2),(0.638824603524,2.502768050066),.PIECEWISE_BEZIER_KNOTS.);
#94 = CARTESIAN_POINT('',(0.,0.));
#95 = CARTESIAN_POINT('',(412.,0.));
#96 = ( GEOMETRIC_REPRESENTATION_CONTEXT(2) 
PARAMETRIC_REPRESENTATION_CONTEXT() REPRESENTATION_CONTEXT('2D SPACE',''
  ) );
#97 = ORIENTED_EDGE('',*,*,#98,.T.);
#98 = EDGE_CURVE('',#55,#99,#101,.T.);
#99 = VERTEX_POINT('',#100);
#100 = CARTESIAN_POINT('',(-65.,7.960204194458E-15,0.));
#101 = SURFACE_CURVE('',#102,(#107,#114),.PCURVE_S1.);
#102 = CIRCLE('',#103,65.);
#103 = AXIS2_PLACEMENT_3D('',#104,#105,#106);
#104 = CARTESIAN_POINT('',(0.,0.,0.));
#105 = DIRECTION('',(0.,0.,1.));
#106 = DIRECTION('',(1.,0.,0.));
#107 = PCURVE('',#32,#108);
#108 = DEFINITIONAL_REPRESENTATION('',(#109),#113);
#109 = CIRCLE('',#110,65.);
#110 = AXIS2_PLACEMENT_2D('',#111,#112);
#111 = CARTESIAN_POINT('',(0.,0.));
#112 = DIRECTION('',(1.,0.));
#113 = ( GEOMETRIC_REPRESENTATION_CONTEXT(2) 
PARAMETRIC_REPRESENTATION_CONTEXT() REPRESENTATION_CONTEXT('2D SPACE',''
  ) );
#114 = PCURVE('',#115,#134);
#115 = B_SPLINE_SURFACE_WITH_KNOTS('',8,1,(
    (#116,#117)
    ,(#118,#119)
    ,(#120,#121)
    ,(#122,#123)
    ,(#124,#125)
    ,(#126,#127)
    ,(#128,#129)
    ,(#130,#131)
    ,(#132,#133
    )),.UNSPECIFIED.,.F.,.F.,.F.,(9,9),(2,2),(0.,306.),(0.,1.),
  .PIECEWISE_BEZIER_KNOTS.);
#116 = CARTESIAN_POINT('',(-52.18181442952,38.756396153965,0.));
#117 = CARTESIAN_POINT('',(-206.,153.,50.));
#118 = CARTESIAN_POINT('',(-58.37144928129,30.42263942544,0.));
#119 = CARTESIAN_POINT('',(-206.,114.75,50.));
#120 = CARTESIAN_POINT('',(-63.03999593335,20.95914156022,0.));
#121 = CARTESIAN_POINT('',(-206.,76.5,50.));
#122 = CARTESIAN_POINT('',(-65.94688535697,10.689812154163,0.));
#123 = CARTESIAN_POINT('',(-206.,38.25,50.));
#124 = CARTESIAN_POINT('',(-66.93431786045,-8.881784197001E-14,0.));
#125 = CARTESIAN_POINT('',(-206.,-8.881784197001E-16,50.));
#126 = CARTESIAN_POINT('',(-65.94688535697,-10.68981215416,0.));
#127 = CARTESIAN_POINT('',(-206.,-38.25,50.));
#128 = CARTESIAN_POINT('',(-63.03999593335,-20.95914156022,0.));
#129 = CARTESIAN_POINT('',(-206.,-76.5,50.));
#130 = CARTESIAN_POINT('',(-58.37144928129,-30.42263942544,0.));
#131 = CARTESIAN_POINT('',(-206.,-114.75,50.));
#132 = CARTESIAN_POINT('',(-52.18181442952,-38.75639615396,0.));
#133 = CARTESIAN_POINT('',(-206.,-153.,50.));
#134 = DEFINITIONAL_REPRESENTATION('',(#135),#138);
#135 = B_SPLINE_CURVE_WITH_KNOTS('',1,(#136,#137),.UNSPECIFIED.,.F.,.F.,
  (2,2),(2.502768050066,3.780417257114),.PIECEWISE_BEZIER_KNOTS.);
#136 = CARTESIAN_POINT('',(0.,0.));
#137 = CARTESIAN_POINT('',(306.,0.));
#138 = ( GEOMETRIC_REPRESENTATION_CONTEXT(2) 
PARAMETRIC_REPRESENTATION_CONTEXT() REPRESENTATION_CONTEXT('2D SPACE',''
  ) );
#139 = ORIENTED_EDGE('',*,*,#140,.F.);
#140 = EDGE_CURVE('',#141,#99,#143,.T.);
#141 = VERTEX_POINT('',#142);
#142 = CARTESIAN_POINT('',(-62.28087649345,-5.340497362035E-15,0.));
#143 = SURFACE_CURVE('',#144,(#148,#154),.PCURVE_S1.);
#144 = LINE('',#145,#146);
#145 = CARTESIAN_POINT('',(-500.,0.,0.));
#146 = VECTOR('',#147,1.);
#147 = DIRECTION('',(-1.,0.,0.));
#148 = PCURVE('',#32,#149);
#149 = DEFINITIONAL_REPRESENTATION('',(#150),#153);
#150 = B_SPLINE_CURVE_WITH_KNOTS('',1,(#151,#152),.UNSPECIFIED.,.F.,.F.,
  (2,2),(-500.,-435.),.PIECEWISE_BEZIER_KNOTS.);
#151 = CARTESIAN_POINT('',(0.,0.));
#152 = CARTESIAN_POINT('',(-65.,0.));
#153 = ( GEOMETRIC_REPRESENTATION_CONTEXT(2) 
PARAMETRIC_REPRESENTATION_CONTEXT() REPRESENTATION_CONTEXT('2D SPACE',''
  ) );
#154 = PCURVE('',#155,#160);
#155 = PLANE('',#156);
#156 = AXIS2_PLACEMENT_3D('',#157,#158,#159);
#157 = CARTESIAN_POINT('',(-1.E+03,0.,-500.));
#158 = DIRECTION('',(0.,1.,0.));
#159 = DIRECTION('',(0.,0.,1.));
#160 = DEFINITIONAL_REPRESENTATION('',(#161),#164);
#161 = B_SPLINE_CURVE_WITH_KNOTS('',1,(#162,#163),.UNSPECIFIED.,.F.,.F.,
  (2,2),(-500.,-435.),.PIECEWISE_BEZIER_KNOTS.);
#162 = CARTESIAN_POINT('',(500.,1.E+03));
#163 = CARTESIAN_POINT('',(500.,935.));
#164 = ( GEOMETRIC_REPRESENTATION_CONTEXT(2) 
PARAMETRIC_REPRESENTATION_CONTEXT() REPRESENTATION_CONTEXT('2D SPACE',''
  ) );
#165 = ORIENTED_EDGE('',*,*,#166,.T.);
#166 = EDGE_CURVE('',#141,#167,#169,.T.);
#167 = VERTEX_POINT('',#168);
#168 = CARTESIAN_POINT('',(-50.16907693136,37.07074650101,
    -6.938893903907E-17));
#169 = SURFACE_CURVE('',#170,(#193,#219),.PCURVE_S1.);
#170 = B_SPLINE_CURVE_WITH_KNOTS('',6,(#171,#172,#173,#174,#175,#176,
    #177,#178,#179,#180,#181,#182,#183,#184,#185,#186,#187,#188,#189,
    #190,#191,#192),.UNSPECIFIED.,.F.,.F.,(7,5,5,5,7),(0.,0.249993969376
    ,0.5,0.750006030624,1.),.UNSPECIFIED.);
#171 = CARTESIAN_POINT('',(-50.16907693136,-37.07074650101,0.));
#172 = CARTESIAN_POINT('',(-52.11919830878,-34.40668087306,0.));
#173 = CARTESIAN_POINT('',(-53.90133192459,-31.61855539272,0.));
#174 = CARTESIAN_POINT('',(-55.50561281284,-28.71974311067,0.));
#175 = CARTESIAN_POINT('',(-56.9236078167,-25.72464749457,0.));
#176 = CARTESIAN_POINT('',(-58.14845848478,-22.64848335418,0.));
#177 = CARTESIAN_POINT('',(-60.20154307788,-16.36543028845,0.));
#178 = CARTESIAN_POINT('',(-61.02976125405,-13.15852469442,0.));
#179 = CARTESIAN_POINT('',(-61.65443855099,-9.902099215998,0.));
#180 = CARTESIAN_POINT('',(-62.07206427553,-6.612469873356,0.));
#181 = CARTESIAN_POINT('',(-62.28087649345,-3.306232208584,0.));
#182 = CARTESIAN_POINT('',(-62.28087649345,3.306232208593,0.));
#183 = CARTESIAN_POINT('',(-62.07206427553,6.612469873345,0.));
#184 = CARTESIAN_POINT('',(-61.65443855099,9.902099216017,0.));
#185 = CARTESIAN_POINT('',(-61.02976125405,13.158524694419,0.));
#186 = CARTESIAN_POINT('',(-60.20154307788,16.365430288463,0.));
#187 = CARTESIAN_POINT('',(-58.14845848478,22.64848335418,0.));
#188 = CARTESIAN_POINT('',(-56.92360781669,25.72464749459,0.));
#189 = CARTESIAN_POINT('',(-55.50561281284,28.719743110663,0.));
#190 = CARTESIAN_POINT('',(-53.90133192459,31.618555392735,0.));
#191 = CARTESIAN_POINT('',(-52.11919830878,34.406680873058,0.));
#192 = CARTESIAN_POINT('',(-50.16907693136,37.07074650101,0.));
#193 = PCURVE('',#32,#194);
#194 = DEFINITIONAL_REPRESENTATION('',(#195),#218);
#195 = B_SPLINE_CURVE_WITH_KNOTS('',6,(#196,#197,#198,#199,#200,#201,
    #202,#203,#204,#205,#206,#207,#208,#209,#210,#211,#212,#213,#214,
    #215,#216,#217),.UNSPECIFIED.,.F.,.F.,(7,5,5,5,7),(0.,0.249993969376
    ,0.5,0.750006030624,1.),.UNSPECIFIED.);
#196 = CARTESIAN_POINT('',(-50.16907693136,-37.07074650101));
#197 = CARTESIAN_POINT('',(-52.11919830878,-34.40668087306));
#198 = CARTESIAN_POINT('',(-53.90133192459,-31.61855539272));
#199 = CARTESIAN_POINT('',(-55.50561281284,-28.71974311067));
#200 = CARTESIAN_POINT('',(-56.9236078167,-25.72464749457));
#201 = CARTESIAN_POINT('',(-58.14845848478,-22.64848335418));
#202 = CARTESIAN_POINT('',(-60.20154307788,-16.36543028845));
#203 = CARTESIAN_POINT('',(-61.02976125405,-13.15852469442));
#204 = CARTESIAN_POINT('',(-61.65443855099,-9.902099215998));
#205 = CARTESIAN_POINT('',(-62.07206427553,-6.612469873356));
#206 = CARTESIAN_POINT('',(-62.28087649345,-3.306232208584));
#207 = CARTESIAN_POINT('',(-62.28087649345,3.306232208593));
#208 = CARTESIAN_POINT('',(-62.07206427553,6.612469873345));
#209 = CARTESIAN_POINT('',(-61.65443855099,9.902099216017));
#210 = CARTESIAN_POINT('',(-61.02976125405,13.158524694419));
#211 = CARTESIAN_POINT('',(-60.20154307788,16.365430288463));
#212 = CARTESIAN_POINT('',(-58.14845848478,22.64848335418));
#213 = CARTESIAN_POINT('',(-56.92360781669,25.72464749459));
#214 = CARTESIAN_POINT('',(-55.50561281284,28.719743110663));
#215 = CARTESIAN_POINT('',(-53.90133192459,31.618555392735));
#216 = CARTESIAN_POINT('',(-52.11919830878,34.406680873058));
#217 = CARTESIAN_POINT('',(-50.16907693136,37.07074650101));
#218 = ( GEOMETRIC_REPRESENTATION_CONTEXT(2) 
PARAMETRIC_REPRESENTATION_CONTEXT() REPRESENTATION_CONTEXT('2D SPACE',''
  ) );
#219 = PCURVE('',#220,#239);
#220 = B_SPLINE_SURFACE_WITH_KNOTS('',8,1,(
    (#221,#222)
    ,(#223,#224)
    ,(#225,#226)
    ,(#227,#228)
    ,(#229,#230)
    ,(#231,#232)
    ,(#233,#234)
    ,(#235,#236)
    ,(#237,#238
    )),.UNSPECIFIED.,.F.,.F.,.F.,(9,9),(2,2),(0.,300.),(0.,1.),
  .PIECEWISE_BEZIER_KNOTS.);
#221 = CARTESIAN_POINT('',(-49.86402518871,36.845338809396,-0.1));
#222 = CARTESIAN_POINT('',(-203.,150.,50.1));
#223 = CARTESIAN_POINT('',(-55.72583942028,28.912350216009,-1.E-01));
#224 = CARTESIAN_POINT('',(-203.,112.5,50.1));
#225 = CARTESIAN_POINT('',(-60.14527839934,19.913566297928,-0.1));
#226 = CARTESIAN_POINT('',(-203.,75.,50.1));
#227 = CARTESIAN_POINT('',(-62.89626197859,10.154954564785,
    -9.999999999999E-02));
#228 = CARTESIAN_POINT('',(-203.,37.5,50.1));
#229 = CARTESIAN_POINT('',(-63.83059409694,9.130474154517E-13,-0.1));
#230 = CARTESIAN_POINT('',(-203.,-8.881784197001E-16,50.1));
#231 = CARTESIAN_POINT('',(-62.89626197859,-10.15495456478,
    -9.999999999999E-02));
#232 = CARTESIAN_POINT('',(-203.,-37.5,50.1));
#233 = CARTESIAN_POINT('',(-60.14527839934,-19.91356629792,-0.1));
#234 = CARTESIAN_POINT('',(-203.,-75.,50.1));
#235 = CARTESIAN_POINT('',(-55.72583942028,-28.912350216,-1.E-01));
#236 = CARTESIAN_POINT('',(-203.,-112.5,50.1));
#237 = CARTESIAN_POINT('',(-49.86402518871,-36.84533880939,-0.1));
#238 = CARTESIAN_POINT('',(-203.,-150.,50.1));
#239 = DEFINITIONAL_REPRESENTATION('',(#240),#263);
#240 = B_SPLINE_CURVE_WITH_KNOTS('',6,(#241,#242,#243,#244,#245,#246,
    #247,#248,#249,#250,#251,#252,#253,#254,#255,#256,#257,#258,#259,
    #260,#261,#262),.UNSPECIFIED.,.F.,.F.,(7,5,5,5,7),(0.,0.249993969376
    ,0.5,0.750006030624,1.),.UNSPECIFIED.);
#241 = CARTESIAN_POINT('',(300.,1.99203187251E-03));
#242 = CARTESIAN_POINT('',(287.49951535012,1.99203187251E-03));
#243 = CARTESIAN_POINT('',(274.99924123667,1.99203187251E-03));
#244 = CARTESIAN_POINT('',(262.49919742125,1.99203187251E-03));
#245 = CARTESIAN_POINT('',(249.99933294877,1.99203187251E-03));
#246 = CARTESIAN_POINT('',(237.49959535558,1.99203187251E-03));
#247 = CARTESIAN_POINT('',(212.49980158695,1.99203187251E-03));
#248 = CARTESIAN_POINT('',(199.99970423191,1.99203187251E-03));
#249 = CARTESIAN_POINT('',(187.49972324683,1.99203187251E-03));
#250 = CARTESIAN_POINT('',(174.9998040952,1.99203187251E-03));
#251 = CARTESIAN_POINT('',(162.49989175219,1.99203187251E-03));
#252 = CARTESIAN_POINT('',(137.50010824776,1.99203187251E-03));
#253 = CARTESIAN_POINT('',(125.00019590484,1.99203187251E-03));
#254 = CARTESIAN_POINT('',(112.50027675308,1.99203187251E-03));
#255 = CARTESIAN_POINT('',(100.00029576812,1.99203187251E-03));
#256 = CARTESIAN_POINT('',(87.500198413018,1.99203187251E-03));
#257 = CARTESIAN_POINT('',(62.500404644421,1.99203187251E-03));
#258 = CARTESIAN_POINT('',(50.000667051176,1.99203187251E-03));
#259 = CARTESIAN_POINT('',(37.500802578798,1.99203187251E-03));
#260 = CARTESIAN_POINT('',(25.000758763279,1.99203187251E-03));
#261 = CARTESIAN_POINT('',(12.500484649889,1.99203187251E-03));
#262 = CARTESIAN_POINT('',(0.,1.99203187251E-03));
#263 = ( GEOMETRIC_REPRESENTATION_CONTEXT(2) 
PARAMETRIC_REPRESENTATION_CONTEXT() REPRESENTATION_CONTEXT('2D SPACE',''
  ) );
#264 = ORIENTED_EDGE('',*,*,#265,.T.);
#265 = EDGE_CURVE('',#167,#22,#266,.T.);
#266 = SURFACE_CURVE('',#267,(#290,#316),.PCURVE_S1.);
#267 = B_SPLINE_CURVE_WITH_KNOTS('',6,(#268,#269,#270,#271,#272,#273,
    #274,#275,#276,#277,#278,#279,#280,#281,#282,#283,#284,#285,#286,
    #287,#288,#289),.UNSPECIFIED.,.F.,.F.,(7,5,5,5,7),(0.,0.2499864552,
    0.499999999999,0.750013544798,1.),.UNSPECIFIED.);
#268 = CARTESIAN_POINT('',(-50.16907693136,37.07074650101,0.));
#269 = CARTESIAN_POINT('',(-47.27174752124,40.946189823563,0.));
#270 = CARTESIAN_POINT('',(-44.01234449152,44.553908043046,0.));
#271 = CARTESIAN_POINT('',(-40.42221668819,47.851562542816,0.));
#272 = CARTESIAN_POINT('',(-36.53923822502,50.801851227342,0.));
#273 = CARTESIAN_POINT('',(-32.40661121922,53.373819507089,0.));
#274 = CARTESIAN_POINT('',(-23.73564877959,57.714018801565,0.));
#275 = CARTESIAN_POINT('',(-19.19719148919,59.482201699943,0.));
#276 = CARTESIAN_POINT('',(-14.50302384153,60.824650015932,0.));
#277 = CARTESIAN_POINT('',(-9.703741122111,61.725087512542,0.));
#278 = CARTESIAN_POINT('',(-4.851848769728,62.175298778515,0.));
#279 = CARTESIAN_POINT('',(4.851848769743,62.175298778515,0.));
#280 = CARTESIAN_POINT('',(9.703741122081,61.725087512545,0.));
#281 = CARTESIAN_POINT('',(14.503023841573,60.824650015924,0.));
#282 = CARTESIAN_POINT('',(19.19719148917,59.48220169995,0.));
#283 = CARTESIAN_POINT('',(23.735648779599,57.714018801561,0.));
#284 = CARTESIAN_POINT('',(32.406611219228,53.373819507087,0.));
#285 = CARTESIAN_POINT('',(36.539238225024,50.801851227346,0.));
#286 = CARTESIAN_POINT('',(40.422216688197,47.851562542809,0.));
#287 = CARTESIAN_POINT('',(44.012344491517,44.553908043051,0.));
#288 = CARTESIAN_POINT('',(47.27174752125,40.94618982356,0.));
#289 = CARTESIAN_POINT('',(50.169076931367,37.07074650101,0.));
#290 = PCURVE('',#32,#291);
#291 = DEFINITIONAL_REPRESENTATION('',(#292),#315);
#292 = B_SPLINE_CURVE_WITH_KNOTS('',6,(#293,#294,#295,#296,#297,#298,
    #299,#300,#301,#302,#303,#304,#305,#306,#307,#308,#309,#310,#311,
    #312,#313,#314),.UNSPECIFIED.,.F.,.F.,(7,5,5,5,7),(0.,0.2499864552,
    0.499999999999,0.750013544798,1.),.UNSPECIFIED.);
#293 = CARTESIAN_POINT('',(-50.16907693136,37.07074650101));
#294 = CARTESIAN_POINT('',(-47.27174752124,40.946189823563));
#295 = CARTESIAN_POINT('',(-44.01234449152,44.553908043046));
#296 = CARTESIAN_POINT('',(-40.42221668819,47.851562542816));
#297 = CARTESIAN_POINT('',(-36.53923822502,50.801851227342));
#298 = CARTESIAN_POINT('',(-32.40661121922,53.373819507089));
#299 = CARTESIAN_POINT('',(-23.73564877959,57.714018801565));
#300 = CARTESIAN_POINT('',(-19.19719148919,59.482201699943));
#301 = CARTESIAN_POINT('',(-14.50302384153,60.824650015932));
#302 = CARTESIAN_POINT('',(-9.703741122111,61.725087512542));
#303 = CARTESIAN_POINT('',(-4.851848769728,62.175298778515));
#304 = CARTESIAN_POINT('',(4.851848769743,62.175298778515));
#305 = CARTESIAN_POINT('',(9.703741122081,61.725087512545));
#306 = CARTESIAN_POINT('',(14.503023841573,60.824650015924));
#307 = CARTESIAN_POINT('',(19.19719148917,59.48220169995));
#308 = CARTESIAN_POINT('',(23.735648779599,57.714018801561));
#309 = CARTESIAN_POINT('',(32.406611219228,53.373819507087));
#310 = CARTESIAN_POINT('',(36.539238225024,50.801851227346));
#311 = CARTESIAN_POINT('',(40.422216688197,47.851562542809));
#312 = CARTESIAN_POINT('',(44.012344491517,44.553908043051));
#313 = CARTESIAN_POINT('',(47.27174752125,40.94618982356));
#314 = CARTESIAN_POINT('',(50.169076931367,37.07074650101));
#315 = ( GEOMETRIC_REPRESENTATION_CONTEXT(2) 
PARAMETRIC_REPRESENTATION_CONTEXT() REPRESENTATION_CONTEXT('2D SPACE',''
  ) );
#316 = PCURVE('',#317,#338);
#317 = B_SPLINE_SURFACE_WITH_KNOTS('',9,1,(
    (#318,#319)
    ,(#320,#321)
    ,(#322,#323)
    ,(#324,#325)
    ,(#326,#327)
    ,(#328,#329)
    ,(#330,#331)
    ,(#332,#333)
    ,(#334,#335)
    ,(#336,#337
    )),.UNSPECIFIED.,.F.,.F.,.F.,(10,10),(2,2),(0.,406.),(0.,1.),
  .PIECEWISE_BEZIER_KNOTS.);
#318 = CARTESIAN_POINT('',(49.864025188715,36.845338809396,-0.1));
#319 = CARTESIAN_POINT('',(203.,150.,50.1));
#320 = CARTESIAN_POINT('',(42.213077203149,47.199621749862,-1.E-01));
#321 = CARTESIAN_POINT('',(157.88888888888,150.,50.1));
#322 = CARTESIAN_POINT('',(32.143299857127,55.766593600257,-0.1));
#323 = CARTESIAN_POINT('',(112.77777777777,150.,50.1));
#324 = CARTESIAN_POINT('',(20.131867266239,61.900466443736,-1.E-01));
#325 = CARTESIAN_POINT('',(67.666666666667,150.,50.1));
#326 = CARTESIAN_POINT('',(6.85710255254,65.104138950959,-0.1));
#327 = CARTESIAN_POINT('',(22.555555555556,150.,50.1));
#328 = CARTESIAN_POINT('',(-6.85710255254,65.104138950971,-0.1));
#329 = CARTESIAN_POINT('',(-22.55555555555,150.,50.1));
#330 = CARTESIAN_POINT('',(-20.13186726623,61.900466443728,-1.E-01));
#331 = CARTESIAN_POINT('',(-67.66666666666,150.,50.1));
#332 = CARTESIAN_POINT('',(-32.14329985712,55.76659360026,-0.1));
#333 = CARTESIAN_POINT('',(-112.7777777777,150.,50.1));
#334 = CARTESIAN_POINT('',(-42.21307720314,47.199621749861,-1.E-01));
#335 = CARTESIAN_POINT('',(-157.8888888888,150.,50.1));
#336 = CARTESIAN_POINT('',(-49.86402518871,36.845338809396,-0.1));
#337 = CARTESIAN_POINT('',(-203.,150.,50.1));
#338 = DEFINITIONAL_REPRESENTATION('',(#339),#362);
#339 = B_SPLINE_CURVE_WITH_KNOTS('',6,(#340,#341,#342,#343,#344,#345,
    #346,#347,#348,#349,#350,#351,#352,#353,#354,#355,#356,#357,#358,
    #359,#360,#361),.UNSPECIFIED.,.F.,.F.,(7,5,5,5,7),(0.,0.2499864552,
    0.499999999999,0.750013544798,1.),.UNSPECIFIED.);
#340 = CARTESIAN_POINT('',(406.,1.99203187251E-03));
#341 = CARTESIAN_POINT('',(389.08192768751,1.99203187251E-03));
#342 = CARTESIAN_POINT('',(372.16437131769,1.99203187251E-03));
#343 = CARTESIAN_POINT('',(355.24760214871,1.99203187251E-03));
#344 = CARTESIAN_POINT('',(338.33137199464,1.99203187251E-03));
#345 = CARTESIAN_POINT('',(321.41542361657,1.99203187251E-03));
#346 = CARTESIAN_POINT('',(287.58274335597,1.99203187251E-03));
#347 = CARTESIAN_POINT('',(270.66570906561,1.99203187251E-03));
#348 = CARTESIAN_POINT('',(253.74913941037,1.99203187251E-03));
#349 = CARTESIAN_POINT('',(236.83276318471,1.99203187251E-03));
#350 = CARTESIAN_POINT('',(219.91630601649,1.99203187251E-03));
#351 = CARTESIAN_POINT('',(186.08369398345,1.99203187251E-03));
#352 = CARTESIAN_POINT('',(169.1672368154,1.99203187251E-03));
#353 = CARTESIAN_POINT('',(152.25086058947,1.99203187251E-03));
#354 = CARTESIAN_POINT('',(135.33429093446,1.99203187251E-03));
#355 = CARTESIAN_POINT('',(118.41725664399,1.99203187251E-03));
#356 = CARTESIAN_POINT('',(84.584576383405,1.99203187251E-03));
#357 = CARTESIAN_POINT('',(67.668628005394,1.99203187251E-03));
#358 = CARTESIAN_POINT('',(50.752397851226,1.99203187251E-03));
#359 = CARTESIAN_POINT('',(33.835628682341,1.99203187251E-03));
#360 = CARTESIAN_POINT('',(16.918072312473,1.99203187251E-03));
#361 = CARTESIAN_POINT('',(0.,1.99203187251E-03));
#362 = ( GEOMETRIC_REPRESENTATION_CONTEXT(2) 
PARAMETRIC_REPRESENTATION_CONTEXT() REPRESENTATION_CONTEXT('2D SPACE',''
  ) );
#363 = ADVANCED_FACE('',(#364),#43,.T.);
#364 = FACE_BOUND('',#365,.T.);
#365 = EDGE_LOOP('',(#366,#395,#396,#425));
#366 = ORIENTED_EDGE('',*,*,#367,.F.);
#367 = EDGE_CURVE('',#22,#368,#370,.T.);
#368 = VERTEX_POINT('',#369);
#369 = CARTESIAN_POINT('',(4.576170158801E-14,149.82470119516,50.));
#370 = SURFACE_CURVE('',#371,(#377,#386),.PCURVE_S1.);
#371 = B_SPLINE_CURVE_WITH_KNOTS('',4,(#372,#373,#374,#375,#376),
  .UNSPECIFIED.,.F.,.F.,(5,5),(0.,1.),.PIECEWISE_BEZIER_KNOTS.);
#372 = CARTESIAN_POINT('',(0.,62.175245978515,-3.012000001945E-05));
#373 = CARTESIAN_POINT('',(0.,84.087622982678,12.49998494));
#374 = CARTESIAN_POINT('',(0.,105.99999998684,25.));
#375 = CARTESIAN_POINT('',(0.,127.912376991,37.50001506));
#376 = CARTESIAN_POINT('',(0.,149.82475399516,50.00003012));
#377 = PCURVE('',#43,#378);
#378 = DEFINITIONAL_REPRESENTATION('',(#379),#385);
#379 = B_SPLINE_CURVE_WITH_KNOTS('',4,(#380,#381,#382,#383,#384),
  .UNSPECIFIED.,.F.,.F.,(5,5),(0.,1.),.PIECEWISE_BEZIER_KNOTS.);
#380 = CARTESIAN_POINT('',(499.99996988,-62.17524597851));
#381 = CARTESIAN_POINT('',(512.49998494,-84.08762298267));
#382 = CARTESIAN_POINT('',(525.,-105.9999999868));
#383 = CARTESIAN_POINT('',(537.50001506,-127.912376991));
#384 = CARTESIAN_POINT('',(550.00003012,-149.8247539951));
#385 = ( GEOMETRIC_REPRESENTATION_CONTEXT(2) 
PARAMETRIC_REPRESENTATION_CONTEXT() REPRESENTATION_CONTEXT('2D SPACE',''
  ) );
#386 = PCURVE('',#317,#387);
#387 = DEFINITIONAL_REPRESENTATION('',(#388),#394);
#388 = B_SPLINE_CURVE_WITH_KNOTS('',4,(#389,#390,#391,#392,#393),
  .UNSPECIFIED.,.F.,.F.,(5,5),(0.,1.),.PIECEWISE_BEZIER_KNOTS.);
#389 = CARTESIAN_POINT('',(203.,1.99143187251E-03));
#390 = CARTESIAN_POINT('',(203.,0.250995715936));
#391 = CARTESIAN_POINT('',(203.,0.5));
#392 = CARTESIAN_POINT('',(203.,0.749004284064));
#393 = CARTESIAN_POINT('',(203.,0.998008568127));
#394 = ( GEOMETRIC_REPRESENTATION_CONTEXT(2) 
PARAMETRIC_REPRESENTATION_CONTEXT() REPRESENTATION_CONTEXT('2D SPACE',''
  ) );
#395 = ORIENTED_EDGE('',*,*,#21,.T.);
#396 = ORIENTED_EDGE('',*,*,#397,.T.);
#397 = EDGE_CURVE('',#24,#398,#400,.T.);
#398 = VERTEX_POINT('',#399);
#399 = CARTESIAN_POINT('',(0.,153.,50.));
#400 = SURFACE_CURVE('',#401,(#407,#416),.PCURVE_S1.);
#401 = B_SPLINE_CURVE_WITH_KNOTS('',4,(#402,#403,#404,#405,#406),
  .UNSPECIFIED.,.F.,.F.,(5,5),(0.,1.),.PIECEWISE_BEZIER_KNOTS.);
#402 = CARTESIAN_POINT('',(0.,64.999999973122,0.));
#403 = CARTESIAN_POINT('',(0.,86.999999979842,12.5));
#404 = CARTESIAN_POINT('',(0.,108.99999998656,25.));
#405 = CARTESIAN_POINT('',(0.,130.99999999328,37.5));
#406 = CARTESIAN_POINT('',(0.,153.,50.));
#407 = PCURVE('',#43,#408);
#408 = DEFINITIONAL_REPRESENTATION('',(#409),#415);
#409 = B_SPLINE_CURVE_WITH_KNOTS('',4,(#410,#411,#412,#413,#414),
  .UNSPECIFIED.,.F.,.F.,(5,5),(0.,1.),.PIECEWISE_BEZIER_KNOTS.);
#410 = CARTESIAN_POINT('',(500.,-64.99999997312));
#411 = CARTESIAN_POINT('',(512.5,-86.99999997984));
#412 = CARTESIAN_POINT('',(525.,-108.9999999865));
#413 = CARTESIAN_POINT('',(537.5,-130.9999999932));
#414 = CARTESIAN_POINT('',(550.,-153.));
#415 = ( GEOMETRIC_REPRESENTATION_CONTEXT(2) 
PARAMETRIC_REPRESENTATION_CONTEXT() REPRESENTATION_CONTEXT('2D SPACE',''
  ) );
#416 = PCURVE('',#71,#417);
#417 = DEFINITIONAL_REPRESENTATION('',(#418),#424);
#418 = B_SPLINE_CURVE_WITH_KNOTS('',4,(#419,#420,#421,#422,#423),
  .UNSPECIFIED.,.F.,.F.,(5,5),(0.,1.),.PIECEWISE_BEZIER_KNOTS.);
#419 = CARTESIAN_POINT('',(206.,0.));
#420 = CARTESIAN_POINT('',(206.,0.25));
#421 = CARTESIAN_POINT('',(206.,0.5));
#422 = CARTESIAN_POINT('',(206.,0.75));
#423 = CARTESIAN_POINT('',(206.,1.));
#424 = ( GEOMETRIC_REPRESENTATION_CONTEXT(2) 
PARAMETRIC_REPRESENTATION_CONTEXT() REPRESENTATION_CONTEXT('2D SPACE',''
  ) );
#425 = ORIENTED_EDGE('',*,*,#426,.F.);
#426 = EDGE_CURVE('',#368,#398,#427,.T.);
#427 = SURFACE_CURVE('',#428,(#432,#438),.PCURVE_S1.);
#428 = LINE('',#429,#430);
#429 = CARTESIAN_POINT('',(0.,0.,50.));
#430 = VECTOR('',#431,1.);
#431 = DIRECTION('',(0.,1.,0.));
#432 = PCURVE('',#43,#433);
#433 = DEFINITIONAL_REPRESENTATION('',(#434),#437);
#434 = B_SPLINE_CURVE_WITH_KNOTS('',1,(#435,#436),.UNSPECIFIED.,.F.,.F.,
  (2,2),(0.,229.5),.PIECEWISE_BEZIER_KNOTS.);
#435 = CARTESIAN_POINT('',(550.,0.));
#436 = CARTESIAN_POINT('',(550.,-229.5));
#437 = ( GEOMETRIC_REPRESENTATION_CONTEXT(2) 
PARAMETRIC_REPRESENTATION_CONTEXT() REPRESENTATION_CONTEXT('2D SPACE',''
  ) );
#438 = PCURVE('',#439,#444);
#439 = PLANE('',#440);
#440 = AXIS2_PLACEMENT_3D('',#441,#442,#443);
#441 = CARTESIAN_POINT('',(206.,0.,50.));
#442 = DIRECTION('',(0.,0.,1.));
#443 = DIRECTION('',(-0.93744648951,0.348129400231,0.));
#444 = DEFINITIONAL_REPRESENTATION('',(#445),#448);
#445 = B_SPLINE_CURVE_WITH_KNOTS('',1,(#446,#447),.UNSPECIFIED.,.F.,.F.,
  (2,2),(0.,229.5),.PIECEWISE_BEZIER_KNOTS.);
#446 = CARTESIAN_POINT('',(193.1139768391,71.71465644753));
#447 = CARTESIAN_POINT('',(273.00967419205,-143.429312895));
#448 = ( GEOMETRIC_REPRESENTATION_CONTEXT(2) 
PARAMETRIC_REPRESENTATION_CONTEXT() REPRESENTATION_CONTEXT('2D SPACE',''
  ) );
#449 = ADVANCED_FACE('',(#450),#317,.F.);
#450 = FACE_BOUND('',#451,.F.);
#451 = EDGE_LOOP('',(#452,#453,#454,#476));
#452 = ORIENTED_EDGE('',*,*,#367,.F.);
#453 = ORIENTED_EDGE('',*,*,#265,.F.);
#454 = ORIENTED_EDGE('',*,*,#455,.T.);
#455 = EDGE_CURVE('',#167,#456,#458,.T.);
#456 = VERTEX_POINT('',#457);
#457 = CARTESIAN_POINT('',(-202.6949482573,149.77459230838,50.));
#458 = SURFACE_CURVE('',#459,(#462,#469),.PCURVE_S1.);
#459 = B_SPLINE_CURVE_WITH_KNOTS('',1,(#460,#461),.UNSPECIFIED.,.F.,.F.,
  (2,2),(0.,1.),.PIECEWISE_BEZIER_KNOTS.);
#460 = CARTESIAN_POINT('',(-49.86402518871,36.845338809396,-0.1));
#461 = CARTESIAN_POINT('',(-203.,150.,50.1));
#462 = PCURVE('',#317,#463);
#463 = DEFINITIONAL_REPRESENTATION('',(#464),#468);
#464 = LINE('',#465,#466);
#465 = CARTESIAN_POINT('',(406.,0.));
#466 = VECTOR('',#467,1.);
#467 = DIRECTION('',(0.,1.));
#468 = ( GEOMETRIC_REPRESENTATION_CONTEXT(2) 
PARAMETRIC_REPRESENTATION_CONTEXT() REPRESENTATION_CONTEXT('2D SPACE',''
  ) );
#469 = PCURVE('',#220,#470);
#470 = DEFINITIONAL_REPRESENTATION('',(#471),#475);
#471 = LINE('',#472,#473);
#472 = CARTESIAN_POINT('',(0.,0.));
#473 = VECTOR('',#474,1.);
#474 = DIRECTION('',(0.,1.));
#475 = ( GEOMETRIC_REPRESENTATION_CONTEXT(2) 
PARAMETRIC_REPRESENTATION_CONTEXT() REPRESENTATION_CONTEXT('2D SPACE',''
  ) );
#476 = ORIENTED_EDGE('',*,*,#477,.T.);
#477 = EDGE_CURVE('',#456,#368,#478,.T.);
#478 = SURFACE_CURVE('',#479,(#492,#508),.PCURVE_S1.);
#479 = B_SPLINE_CURVE_WITH_KNOTS('',6,(#480,#481,#482,#483,#484,#485,
    #486,#487,#488,#489,#490,#491),.UNSPECIFIED.,.F.,.F.,(7,5,7),(0.,0.5
    ,1.),.UNSPECIFIED.);
#480 = CARTESIAN_POINT('',(-202.6949482573,149.77459230838,50.));
#481 = CARTESIAN_POINT('',(-168.915024323,149.79006302567,50.));
#482 = CARTESIAN_POINT('',(-135.1336517985,149.80339647936,50.));
#483 = CARTESIAN_POINT('',(-101.3510806463,149.81391794983,50.));
#484 = CARTESIAN_POINT('',(-67.56766739063,149.82110686235,50.));
#485 = CARTESIAN_POINT('',(-33.78383370725,149.82470119516,50.));
#486 = CARTESIAN_POINT('',(33.783833707229,149.82470119516,50.));
#487 = CARTESIAN_POINT('',(67.567667390731,149.82110686236,50.));
#488 = CARTESIAN_POINT('',(101.35108064621,149.81391794982,50.));
#489 = CARTESIAN_POINT('',(135.1336517987,149.80339647937,50.));
#490 = CARTESIAN_POINT('',(168.91502432305,149.79006302567,50.));
#491 = CARTESIAN_POINT('',(202.69494825734,149.77459230838,50.));
#492 = PCURVE('',#317,#493);
#493 = DEFINITIONAL_REPRESENTATION('',(#494),#507);
#494 = B_SPLINE_CURVE_WITH_KNOTS('',6,(#495,#496,#497,#498,#499,#500,
    #501,#502,#503,#504,#505,#506),.UNSPECIFIED.,.F.,.F.,(7,5,7),(0.,0.5
    ,1.),.UNSPECIFIED.);
#495 = CARTESIAN_POINT('',(406.,0.998007968127));
#496 = CARTESIAN_POINT('',(372.16410544986,0.998007968127));
#497 = CARTESIAN_POINT('',(338.3296560787,0.998007968127));
#498 = CARTESIAN_POINT('',(304.49640242264,0.998007968127));
#499 = CARTESIAN_POINT('',(270.66398872778,0.998007968127));
#500 = CARTESIAN_POINT('',(236.83199433391,0.998007968127));
#501 = CARTESIAN_POINT('',(169.1680056661,0.998007968127));
#502 = CARTESIAN_POINT('',(135.33601127212,0.998007968127));
#503 = CARTESIAN_POINT('',(101.50359757749,0.998007968127));
#504 = CARTESIAN_POINT('',(67.67034392118,0.998007968127));
#505 = CARTESIAN_POINT('',(33.83589455018,0.998007968127));
#506 = CARTESIAN_POINT('',(0.,0.998007968127));
#507 = ( GEOMETRIC_REPRESENTATION_CONTEXT(2) 
PARAMETRIC_REPRESENTATION_CONTEXT() REPRESENTATION_CONTEXT('2D SPACE',''
  ) );
#508 = PCURVE('',#439,#509);
#509 = DEFINITIONAL_REPRESENTATION('',(#510),#523);
#510 = B_SPLINE_CURVE_WITH_KNOTS('',6,(#511,#512,#513,#514,#515,#516,
    #517,#518,#519,#520,#521,#522),.UNSPECIFIED.,.F.,.F.,(7,5,7),(0.,0.5
    ,1.),.UNSPECIFIED.);
#511 = CARTESIAN_POINT('',(435.27058351452,1.873061436843));
#512 = CARTESIAN_POINT('',(403.60909821796,-9.90122619184));
#513 = CARTESIAN_POINT('',(371.94551090126,-21.67401454712));
#514 = CARTESIAN_POINT('',(340.27982100118,-33.44458409615));
#515 = CARTESIAN_POINT('',(308.61218151273,-45.21232271142));
#516 = CARTESIAN_POINT('',(276.94289651698,-56.97683796379));
#517 = CARTESIAN_POINT('',(213.60182389488,-80.49912949578));
#518 = CARTESIAN_POINT('',(181.93003631316,-92.25690575884));
#519 = CARTESIAN_POINT('',(150.25739148133,-104.0111659324));
#520 = CARTESIAN_POINT('',(118.5843759146,-115.7620088504));
#521 = CARTESIAN_POINT('',(86.911505063578,-127.5097984069));
#522 = CARTESIAN_POINT('',(55.239248143919,-139.2550800964));
#523 = ( GEOMETRIC_REPRESENTATION_CONTEXT(2) 
PARAMETRIC_REPRESENTATION_CONTEXT() REPRESENTATION_CONTEXT('2D SPACE',''
  ) );
#524 = ADVANCED_FACE('',(#525),#220,.F.);
#525 = FACE_BOUND('',#526,.F.);
#526 = EDGE_LOOP('',(#527,#528,#529,#558));
#527 = ORIENTED_EDGE('',*,*,#455,.F.);
#528 = ORIENTED_EDGE('',*,*,#166,.F.);
#529 = ORIENTED_EDGE('',*,*,#530,.T.);
#530 = EDGE_CURVE('',#141,#531,#533,.T.);
#531 = VERTEX_POINT('',#532);
#532 = CARTESIAN_POINT('',(-202.7191235047,3.552713678801E-15,50.));
#533 = SURFACE_CURVE('',#534,(#540,#549),.PCURVE_S1.);
#534 = B_SPLINE_CURVE_WITH_KNOTS('',4,(#535,#536,#537,#538,#539),
  .UNSPECIFIED.,.F.,.F.,(5,5),(0.,1.),.PIECEWISE_BEZIER_KNOTS.);
#535 = CARTESIAN_POINT('',(-62.28079189345,0.,-3.012000001945E-05));
#536 = CARTESIAN_POINT('',(-97.39039594658,0.,12.49998494));
#537 = CARTESIAN_POINT('',(-132.4999999997,0.,25.));
#538 = CARTESIAN_POINT('',(-167.6096040528,0.,37.50001506));
#539 = CARTESIAN_POINT('',(-202.7192081059,0.,50.00003012));
#540 = PCURVE('',#220,#541);
#541 = DEFINITIONAL_REPRESENTATION('',(#542),#548);
#542 = B_SPLINE_CURVE_WITH_KNOTS('',4,(#543,#544,#545,#546,#547),
  .UNSPECIFIED.,.F.,.F.,(5,5),(0.,1.),.PIECEWISE_BEZIER_KNOTS.);
#543 = CARTESIAN_POINT('',(150.,1.99143187251E-03));
#544 = CARTESIAN_POINT('',(150.,0.250995715936));
#545 = CARTESIAN_POINT('',(150.,0.5));
#546 = CARTESIAN_POINT('',(150.,0.749004284064));
#547 = CARTESIAN_POINT('',(150.,0.998008568127));
#548 = ( GEOMETRIC_REPRESENTATION_CONTEXT(2) 
PARAMETRIC_REPRESENTATION_CONTEXT() REPRESENTATION_CONTEXT('2D SPACE',''
  ) );
#549 = PCURVE('',#155,#550);
#550 = DEFINITIONAL_REPRESENTATION('',(#551),#557);
#551 = B_SPLINE_CURVE_WITH_KNOTS('',4,(#552,#553,#554,#555,#556),
  .UNSPECIFIED.,.F.,.F.,(5,5),(0.,1.),.PIECEWISE_BEZIER_KNOTS.);
#552 = CARTESIAN_POINT('',(499.99996988,937.71920810654));
#553 = CARTESIAN_POINT('',(512.49998494,902.60960405341));
#554 = CARTESIAN_POINT('',(525.,867.50000000028));
#555 = CARTESIAN_POINT('',(537.50001506,832.39039594715));
#556 = CARTESIAN_POINT('',(550.00003012,797.28079189402));
#557 = ( GEOMETRIC_REPRESENTATION_CONTEXT(2) 
PARAMETRIC_REPRESENTATION_CONTEXT() REPRESENTATION_CONTEXT('2D SPACE',''
  ) );
#558 = ORIENTED_EDGE('',*,*,#559,.T.);
#559 = EDGE_CURVE('',#531,#456,#560,.T.);
#560 = SURFACE_CURVE('',#561,(#569,#580),.PCURVE_S1.);
#561 = B_SPLINE_CURVE_WITH_KNOTS('',6,(#562,#563,#564,#565,#566,#567,
    #568),.UNSPECIFIED.,.F.,.F.,(7,7),(0.,1.),.PIECEWISE_BEZIER_KNOTS.);
#562 = CARTESIAN_POINT('',(-202.6949482573,-149.7745923083,50.));
#563 = CARTESIAN_POINT('',(-202.7105180134,-99.85142932445,50.));
#564 = CARTESIAN_POINT('',(-202.7207233229,-49.92628100478,50.));
#565 = CARTESIAN_POINT('',(-202.724304597,6.045297595847E-11,50.));
#566 = CARTESIAN_POINT('',(-202.7207233229,49.926281004714,50.));
#567 = CARTESIAN_POINT('',(-202.7105180134,99.851429324464,50.));
#568 = CARTESIAN_POINT('',(-202.6949482573,149.77459230838,50.));
#569 = PCURVE('',#220,#570);
#570 = DEFINITIONAL_REPRESENTATION('',(#571),#579);
#571 = B_SPLINE_CURVE_WITH_KNOTS('',6,(#572,#573,#574,#575,#576,#577,
    #578),.UNSPECIFIED.,.F.,.F.,(7,7),(0.,1.),.PIECEWISE_BEZIER_KNOTS.);
#572 = CARTESIAN_POINT('',(300.,0.998007968127));
#573 = CARTESIAN_POINT('',(249.99830311209,0.998007968127));
#574 = CARTESIAN_POINT('',(199.99858655867,0.998007968127));
#575 = CARTESIAN_POINT('',(149.99999999995,0.998007968127));
#576 = CARTESIAN_POINT('',(100.00141344138,0.998007968127));
#577 = CARTESIAN_POINT('',(50.001696887891,0.998007968127));
#578 = CARTESIAN_POINT('',(0.,0.998007968127));
#579 = ( GEOMETRIC_REPRESENTATION_CONTEXT(2) 
PARAMETRIC_REPRESENTATION_CONTEXT() REPRESENTATION_CONTEXT('2D SPACE',''
  ) );
#580 = PCURVE('',#439,#581);
#581 = DEFINITIONAL_REPRESENTATION('',(#582),#590);
#582 = B_SPLINE_CURVE_WITH_KNOTS('',6,(#583,#584,#585,#586,#587,#588,
    #589),.UNSPECIFIED.,.F.,.F.,(7,7),(0.,1.),.PIECEWISE_BEZIER_KNOTS.);
#583 = CARTESIAN_POINT('',(330.98870553428,282.68439299147));
#584 = CARTESIAN_POINT('',(348.38302213469,235.88951939679));
#585 = CARTESIAN_POINT('',(365.77300100721,189.09091713452));
#586 = CARTESIAN_POINT('',(383.157164522,142.28894701902));
#587 = CARTESIAN_POINT('',(400.53461353108,95.484483410115));
#588 = CARTESIAN_POINT('',(417.9054585405,48.678775611215));
#589 = CARTESIAN_POINT('',(435.27058351452,1.873061436843));
#590 = ( GEOMETRIC_REPRESENTATION_CONTEXT(2) 
PARAMETRIC_REPRESENTATION_CONTEXT() REPRESENTATION_CONTEXT('2D SPACE',''
  ) );
#591 = ADVANCED_FACE('',(#592),#155,.F.);
#592 = FACE_BOUND('',#593,.F.);
#593 = EDGE_LOOP('',(#594,#595,#596,#625));
#594 = ORIENTED_EDGE('',*,*,#530,.F.);
#595 = ORIENTED_EDGE('',*,*,#140,.T.);
#596 = ORIENTED_EDGE('',*,*,#597,.T.);
#597 = EDGE_CURVE('',#99,#598,#600,.T.);
#598 = VERTEX_POINT('',#599);
#599 = CARTESIAN_POINT('',(-206.,0.,50.));
#600 = SURFACE_CURVE('',#601,(#607,#616),.PCURVE_S1.);
#601 = B_SPLINE_CURVE_WITH_KNOTS('',4,(#602,#603,#604,#605,#606),
  .UNSPECIFIED.,.F.,.F.,(5,5),(0.,1.),.PIECEWISE_BEZIER_KNOTS.);
#602 = CARTESIAN_POINT('',(-64.99999999937,0.,0.));
#603 = CARTESIAN_POINT('',(-100.2499999995,0.,12.5));
#604 = CARTESIAN_POINT('',(-135.4999999996,0.,25.));
#605 = CARTESIAN_POINT('',(-170.7499999998,0.,37.5));
#606 = CARTESIAN_POINT('',(-206.,0.,50.));
#607 = PCURVE('',#155,#608);
#608 = DEFINITIONAL_REPRESENTATION('',(#609),#615);
#609 = B_SPLINE_CURVE_WITH_KNOTS('',4,(#610,#611,#612,#613,#614),
  .UNSPECIFIED.,.F.,.F.,(5,5),(0.,1.),.PIECEWISE_BEZIER_KNOTS.);
#610 = CARTESIAN_POINT('',(500.,935.00000000062));
#611 = CARTESIAN_POINT('',(512.5,899.75000000046));
#612 = CARTESIAN_POINT('',(525.,864.50000000031));
#613 = CARTESIAN_POINT('',(537.5,829.25000000015));
#614 = CARTESIAN_POINT('',(550.,794.));
#615 = ( GEOMETRIC_REPRESENTATION_CONTEXT(2) 
PARAMETRIC_REPRESENTATION_CONTEXT() REPRESENTATION_CONTEXT('2D SPACE',''
  ) );
#616 = PCURVE('',#115,#617);
#617 = DEFINITIONAL_REPRESENTATION('',(#618),#624);
#618 = B_SPLINE_CURVE_WITH_KNOTS('',4,(#619,#620,#621,#622,#623),
  .UNSPECIFIED.,.F.,.F.,(5,5),(0.,1.),.PIECEWISE_BEZIER_KNOTS.);
#619 = CARTESIAN_POINT('',(153.,0.));
#620 = CARTESIAN_POINT('',(153.,0.25));
#621 = CARTESIAN_POINT('',(153.,0.5));
#622 = CARTESIAN_POINT('',(153.,0.75));
#623 = CARTESIAN_POINT('',(153.,1.));
#624 = ( GEOMETRIC_REPRESENTATION_CONTEXT(2) 
PARAMETRIC_REPRESENTATION_CONTEXT() REPRESENTATION_CONTEXT('2D SPACE',''
  ) );
#625 = ORIENTED_EDGE('',*,*,#626,.F.);
#626 = EDGE_CURVE('',#531,#598,#627,.T.);
#627 = SURFACE_CURVE('',#628,(#632,#638),.PCURVE_S1.);
#628 = LINE('',#629,#630);
#629 = CARTESIAN_POINT('',(-397.,0.,50.));
#630 = VECTOR('',#631,1.);
#631 = DIRECTION('',(-1.,0.,0.));
#632 = PCURVE('',#155,#633);
#633 = DEFINITIONAL_REPRESENTATION('',(#634),#637);
#634 = B_SPLINE_CURVE_WITH_KNOTS('',1,(#635,#636),.UNSPECIFIED.,.F.,.F.,
  (2,2),(-397.,-134.1820388349),.PIECEWISE_BEZIER_KNOTS.);
#635 = CARTESIAN_POINT('',(550.,1.E+03));
#636 = CARTESIAN_POINT('',(550.,737.18203883495));
#637 = ( GEOMETRIC_REPRESENTATION_CONTEXT(2) 
PARAMETRIC_REPRESENTATION_CONTEXT() REPRESENTATION_CONTEXT('2D SPACE',''
  ) );
#638 = PCURVE('',#439,#639);
#639 = DEFINITIONAL_REPRESENTATION('',(#640),#643);
#640 = B_SPLINE_CURVE_WITH_KNOTS('',1,(#641,#642),.UNSPECIFIED.,.F.,.F.,
  (2,2),(-397.,-134.1820388349),.PIECEWISE_BEZIER_KNOTS.);
#641 = CARTESIAN_POINT('',(193.1139768391,71.71465644753));
#642 = CARTESIAN_POINT('',(439.4917519135,163.20931563778));
#643 = ( GEOMETRIC_REPRESENTATION_CONTEXT(2) 
PARAMETRIC_REPRESENTATION_CONTEXT() REPRESENTATION_CONTEXT('2D SPACE',''
  ) );
#644 = ADVANCED_FACE('',(#645),#115,.T.);
#645 = FACE_BOUND('',#646,.T.);
#646 = EDGE_LOOP('',(#647,#669,#670,#671));
#647 = ORIENTED_EDGE('',*,*,#648,.F.);
#648 = EDGE_CURVE('',#55,#649,#651,.T.);
#649 = VERTEX_POINT('',#650);
#650 = CARTESIAN_POINT('',(-206.,153.,50.));
#651 = SURFACE_CURVE('',#652,(#655,#662),.PCURVE_S1.);
#652 = B_SPLINE_CURVE_WITH_KNOTS('',1,(#653,#654),.UNSPECIFIED.,.F.,.F.,
  (2,2),(0.,1.),.PIECEWISE_BEZIER_KNOTS.);
#653 = CARTESIAN_POINT('',(-52.18181442952,38.756396153965,0.));
#654 = CARTESIAN_POINT('',(-206.,153.,50.));
#655 = PCURVE('',#115,#656);
#656 = DEFINITIONAL_REPRESENTATION('',(#657),#661);
#657 = LINE('',#658,#659);
#658 = CARTESIAN_POINT('',(0.,0.));
#659 = VECTOR('',#660,1.);
#660 = DIRECTION('',(0.,1.));
#661 = ( GEOMETRIC_REPRESENTATION_CONTEXT(2) 
PARAMETRIC_REPRESENTATION_CONTEXT() REPRESENTATION_CONTEXT('2D SPACE',''
  ) );
#662 = PCURVE('',#71,#663);
#663 = DEFINITIONAL_REPRESENTATION('',(#664),#668);
#664 = LINE('',#665,#666);
#665 = CARTESIAN_POINT('',(412.,0.));
#666 = VECTOR('',#667,1.);
#667 = DIRECTION('',(0.,1.));
#668 = ( GEOMETRIC_REPRESENTATION_CONTEXT(2) 
PARAMETRIC_REPRESENTATION_CONTEXT() REPRESENTATION_CONTEXT('2D SPACE',''
  ) );
#669 = ORIENTED_EDGE('',*,*,#98,.T.);
#670 = ORIENTED_EDGE('',*,*,#597,.T.);
#671 = ORIENTED_EDGE('',*,*,#672,.F.);
#672 = EDGE_CURVE('',#649,#598,#673,.T.);
#673 = SURFACE_CURVE('',#674,(#678,#685),.PCURVE_S1.);
#674 = LINE('',#675,#676);
#675 = CARTESIAN_POINT('',(-206.,153.,50.));
#676 = VECTOR('',#677,1.);
#677 = DIRECTION('',(0.,-1.,0.));
#678 = PCURVE('',#115,#679);
#679 = DEFINITIONAL_REPRESENTATION('',(#680),#684);
#680 = LINE('',#681,#682);
#681 = CARTESIAN_POINT('',(0.,1.));
#682 = VECTOR('',#683,1.);
#683 = DIRECTION('',(1.,0.));
#684 = ( GEOMETRIC_REPRESENTATION_CONTEXT(2) 
PARAMETRIC_REPRESENTATION_CONTEXT() REPRESENTATION_CONTEXT('2D SPACE',''
  ) );
#685 = PCURVE('',#439,#686);
#686 = DEFINITIONAL_REPRESENTATION('',(#687),#691);
#687 = LINE('',#688,#689);
#688 = CARTESIAN_POINT('',(439.4917519135,0.));
#689 = VECTOR('',#690,1.);
#690 = DIRECTION('',(-0.348129400231,0.93744648951));
#691 = ( GEOMETRIC_REPRESENTATION_CONTEXT(2) 
PARAMETRIC_REPRESENTATION_CONTEXT() REPRESENTATION_CONTEXT('2D SPACE',''
  ) );
#692 = ADVANCED_FACE('',(#693),#71,.T.);
#693 = FACE_BOUND('',#694,.T.);
#694 = EDGE_LOOP('',(#695,#696,#697,#698));
#695 = ORIENTED_EDGE('',*,*,#397,.F.);
#696 = ORIENTED_EDGE('',*,*,#54,.T.);
#697 = ORIENTED_EDGE('',*,*,#648,.T.);
#698 = ORIENTED_EDGE('',*,*,#699,.F.);
#699 = EDGE_CURVE('',#398,#649,#700,.T.);
#700 = SURFACE_CURVE('',#701,(#705,#712),.PCURVE_S1.);
#701 = LINE('',#702,#703);
#702 = CARTESIAN_POINT('',(206.,153.,50.));
#703 = VECTOR('',#704,1.);
#704 = DIRECTION('',(-1.,0.,0.));
#705 = PCURVE('',#71,#706);
#706 = DEFINITIONAL_REPRESENTATION('',(#707),#711);
#707 = LINE('',#708,#709);
#708 = CARTESIAN_POINT('',(0.,1.));
#709 = VECTOR('',#710,1.);
#710 = DIRECTION('',(1.,0.));
#711 = ( GEOMETRIC_REPRESENTATION_CONTEXT(2) 
PARAMETRIC_REPRESENTATION_CONTEXT() REPRESENTATION_CONTEXT('2D SPACE',''
  ) );
#712 = PCURVE('',#439,#713);
#713 = DEFINITIONAL_REPRESENTATION('',(#714),#718);
#714 = LINE('',#715,#716);
#715 = CARTESIAN_POINT('',(53.263798235302,-143.429312895));
#716 = VECTOR('',#717,1.);
#717 = DIRECTION('',(0.93744648951,0.348129400231));
#718 = ( GEOMETRIC_REPRESENTATION_CONTEXT(2) 
PARAMETRIC_REPRESENTATION_CONTEXT() REPRESENTATION_CONTEXT('2D SPACE',''
  ) );
#719 = ADVANCED_FACE('',(#720),#439,.T.);
#720 = FACE_BOUND('',#721,.T.);
#721 = EDGE_LOOP('',(#722,#723,#724,#725,#726,#727));
#722 = ORIENTED_EDGE('',*,*,#426,.T.);
#723 = ORIENTED_EDGE('',*,*,#699,.T.);
#724 = ORIENTED_EDGE('',*,*,#672,.T.);
#725 = ORIENTED_EDGE('',*,*,#626,.F.);
#726 = ORIENTED_EDGE('',*,*,#559,.T.);
#727 = ORIENTED_EDGE('',*,*,#477,.T.);
#728 = ( GEOMETRIC_REPRESENTATION_CONTEXT(3) 
GLOBAL_UNCERTAINTY_ASSIGNED_CONTEXT((#732)) GLOBAL_UNIT_ASSIGNED_CONTEXT
((#729,#730,#731)) REPRESENTATION_CONTEXT('Context #1',
  '3D Context with UNIT and UNCERTAINTY') );
#729 = ( LENGTH_UNIT() NAMED_UNIT(*) SI_UNIT(.MILLI.,.METRE.) );
#730 = ( NAMED_UNIT(*) PLANE_ANGLE_UNIT() SI_UNIT($,.RADIAN.) );
#731 = ( NAMED_UNIT(*) SI_UNIT($,.STERADIAN.) SOLID_ANGLE_UNIT() );
#732 = UNCERTAINTY_MEASURE_WITH_UNIT(LENGTH_MEASURE(2.E-06),#729,
  'distance_accuracy_value','confusion accuracy');
#733 = PRODUCT_RELATED_PRODUCT_CATEGORY('part',$,(#7));
ENDSEC;
END-ISO-10303-21;
