ISO-10303-21;
HEADER;
FILE_DESCRIPTION(('Open CASCADE Model'),'2;1');
FILE_NAME('Open CASCADE Shape Model','2026-05-11T23:09:46',('Author'),(
    'Open CASCADE'),'Open CASCADE STEP processor 7.8','Open CASCADE 7.8'
  ,'Unknown');
FILE_SCHEMA(('AUTOMOTIVE_DESIGN { 1 0 10303 214 1 1 1 1 }'));
ENDSEC;
DATA;
#1 = APPLICATION_PROTOCOL_DEFINITION('international standard',
  'automotive_design',2000,#2);
#2 = APPLICATION_CONTEXT(
  'core data for automotive mechanical design processes');
#3 = SHAPE_DEFINITION_REPRESENTATION(#4,#10);
#4 = PRODUCT_DEFINITION_SHAPE('','',#5);
#5 = PRODUCT_DEFINITION('design','',#6,#9);
#6 = PRODUCT_DEFINITION_FORMATION('','',#7);
#7 = PRODUCT('Open CASCADE STEP translator 7.8 1',
  'Open CASCADE STEP translator 7.8 1','',(#8));
#8 = PRODUCT_CONTEXT('',#2,'mechanical');
#9 = PRODUCT_DEFINITION_CONTEXT('part definition',#2,'design');
#10 = ADVANCED_BREP_SHAPE_REPRESENTATION('',(#11,#15),#1427);
#11 = AXIS2_PLACEMENT_3D('',#12,#13,#14);
#12 = CARTESIAN_POINT('',(0.,0.,0.));
#13 = DIRECTION('',(0.,0.,1.));
#14 = DIRECTION('',(1.,0.,-0.));
#15 = MANIFOLD_SOLID_BREP('',#16);
#16 = CLOSED_SHELL('',(#17,#137,#364,#418,#468,#1002,#1029,#1056,#1083,
    #1110,#1117,#1176,#1245,#1293,#1341,#1389,#1416));
#17 = ADVANCED_FACE('',(#18),#32,.F.);
#18 = FACE_BOUND('',#19,.F.);
#19 = EDGE_LOOP('',(#20,#55,#83,#111));
#20 = ORIENTED_EDGE('',*,*,#21,.F.);
#21 = EDGE_CURVE('',#22,#24,#26,.T.);
#22 = VERTEX_POINT('',#23);
#23 = CARTESIAN_POINT('',(-198.,-153.,0.));
#24 = VERTEX_POINT('',#25);
#25 = CARTESIAN_POINT('',(198.,-153.,0.));
#26 = SURFACE_CURVE('',#27,(#31,#43),.PCURVE_S1.);
#27 = LINE('',#28,#29);
#28 = CARTESIAN_POINT('',(-206.,-153.,0.));
#29 = VECTOR('',#30,1.);
#30 = DIRECTION('',(1.,0.,0.));
#31 = PCURVE('',#32,#37);
#32 = PLANE('',#33);
#33 = AXIS2_PLACEMENT_3D('',#34,#35,#36);
#34 = CARTESIAN_POINT('',(-206.,-153.,0.));
#35 = DIRECTION('',(0.,1.,0.));
#36 = DIRECTION('',(1.,0.,0.));
#37 = DEFINITIONAL_REPRESENTATION('',(#38),#42);
#38 = LINE('',#39,#40);
#39 = CARTESIAN_POINT('',(0.,0.));
#40 = VECTOR('',#41,1.);
#41 = DIRECTION('',(1.,0.));
#42 = ( GEOMETRIC_REPRESENTATION_CONTEXT(2) 
PARAMETRIC_REPRESENTATION_CONTEXT() REPRESENTATION_CONTEXT('2D SPACE',''
  ) );
#43 = PCURVE('',#44,#49);
#44 = PLANE('',#45);
#45 = AXIS2_PLACEMENT_3D('',#46,#47,#48);
#46 = CARTESIAN_POINT('',(0.,0.,0.));
#47 = DIRECTION('',(0.,0.,1.));
#48 = DIRECTION('',(1.,0.,-0.));
#49 = DEFINITIONAL_REPRESENTATION('',(#50),#54);
#50 = LINE('',#51,#52);
#51 = CARTESIAN_POINT('',(-206.,-153.));
#52 = VECTOR('',#53,1.);
#53 = DIRECTION('',(1.,0.));
#54 = ( GEOMETRIC_REPRESENTATION_CONTEXT(2) 
PARAMETRIC_REPRESENTATION_CONTEXT() REPRESENTATION_CONTEXT('2D SPACE',''
  ) );
#55 = ORIENTED_EDGE('',*,*,#56,.T.);
#56 = EDGE_CURVE('',#22,#57,#59,.T.);
#57 = VERTEX_POINT('',#58);
#58 = CARTESIAN_POINT('',(-198.,-153.,22.));
#59 = SURFACE_CURVE('',#60,(#64,#71),.PCURVE_S1.);
#60 = LINE('',#61,#62);
#61 = CARTESIAN_POINT('',(-198.,-153.,0.));
#62 = VECTOR('',#63,1.);
#63 = DIRECTION('',(0.,0.,1.));
#64 = PCURVE('',#32,#65);
#65 = DEFINITIONAL_REPRESENTATION('',(#66),#70);
#66 = LINE('',#67,#68);
#67 = CARTESIAN_POINT('',(8.,0.));
#68 = VECTOR('',#69,1.);
#69 = DIRECTION('',(0.,-1.));
#70 = ( GEOMETRIC_REPRESENTATION_CONTEXT(2) 
PARAMETRIC_REPRESENTATION_CONTEXT() REPRESENTATION_CONTEXT('2D SPACE',''
  ) );
#71 = PCURVE('',#72,#77);
#72 = CYLINDRICAL_SURFACE('',#73,8.);
#73 = AXIS2_PLACEMENT_3D('',#74,#75,#76);
#74 = CARTESIAN_POINT('',(-198.,-145.,0.));
#75 = DIRECTION('',(0.,0.,1.));
#76 = DIRECTION('',(0.,-1.,0.));
#77 = DEFINITIONAL_REPRESENTATION('',(#78),#82);
#78 = LINE('',#79,#80);
#79 = CARTESIAN_POINT('',(-0.,0.));
#80 = VECTOR('',#81,1.);
#81 = DIRECTION('',(-0.,1.));
#82 = ( GEOMETRIC_REPRESENTATION_CONTEXT(2) 
PARAMETRIC_REPRESENTATION_CONTEXT() REPRESENTATION_CONTEXT('2D SPACE',''
  ) );
#83 = ORIENTED_EDGE('',*,*,#84,.T.);
#84 = EDGE_CURVE('',#57,#85,#87,.T.);
#85 = VERTEX_POINT('',#86);
#86 = CARTESIAN_POINT('',(198.,-153.,22.));
#87 = SURFACE_CURVE('',#88,(#92,#99),.PCURVE_S1.);
#88 = LINE('',#89,#90);
#89 = CARTESIAN_POINT('',(-206.,-153.,22.));
#90 = VECTOR('',#91,1.);
#91 = DIRECTION('',(1.,0.,0.));
#92 = PCURVE('',#32,#93);
#93 = DEFINITIONAL_REPRESENTATION('',(#94),#98);
#94 = LINE('',#95,#96);
#95 = CARTESIAN_POINT('',(0.,-22.));
#96 = VECTOR('',#97,1.);
#97 = DIRECTION('',(1.,0.));
#98 = ( GEOMETRIC_REPRESENTATION_CONTEXT(2) 
PARAMETRIC_REPRESENTATION_CONTEXT() REPRESENTATION_CONTEXT('2D SPACE',''
  ) );
#99 = PCURVE('',#100,#105);
#100 = PLANE('',#101);
#101 = AXIS2_PLACEMENT_3D('',#102,#103,#104);
#102 = CARTESIAN_POINT('',(0.,0.,22.));
#103 = DIRECTION('',(0.,0.,1.));
#104 = DIRECTION('',(1.,0.,-0.));
#105 = DEFINITIONAL_REPRESENTATION('',(#106),#110);
#106 = LINE('',#107,#108);
#107 = CARTESIAN_POINT('',(-206.,-153.));
#108 = VECTOR('',#109,1.);
#109 = DIRECTION('',(1.,0.));
#110 = ( GEOMETRIC_REPRESENTATION_CONTEXT(2) 
PARAMETRIC_REPRESENTATION_CONTEXT() REPRESENTATION_CONTEXT('2D SPACE',''
  ) );
#111 = ORIENTED_EDGE('',*,*,#112,.F.);
#112 = EDGE_CURVE('',#24,#85,#113,.T.);
#113 = SURFACE_CURVE('',#114,(#118,#125),.PCURVE_S1.);
#114 = LINE('',#115,#116);
#115 = CARTESIAN_POINT('',(198.,-153.,0.));
#116 = VECTOR('',#117,1.);
#117 = DIRECTION('',(0.,0.,1.));
#118 = PCURVE('',#32,#119);
#119 = DEFINITIONAL_REPRESENTATION('',(#120),#124);
#120 = LINE('',#121,#122);
#121 = CARTESIAN_POINT('',(404.,0.));
#122 = VECTOR('',#123,1.);
#123 = DIRECTION('',(0.,-1.));
#124 = ( GEOMETRIC_REPRESENTATION_CONTEXT(2) 
PARAMETRIC_REPRESENTATION_CONTEXT() REPRESENTATION_CONTEXT('2D SPACE',''
  ) );
#125 = PCURVE('',#126,#131);
#126 = CYLINDRICAL_SURFACE('',#127,8.);
#127 = AXIS2_PLACEMENT_3D('',#128,#129,#130);
#128 = CARTESIAN_POINT('',(198.,-145.,0.));
#129 = DIRECTION('',(0.,0.,1.));
#130 = DIRECTION('',(0.,-1.,0.));
#131 = DEFINITIONAL_REPRESENTATION('',(#132),#136);
#132 = LINE('',#133,#134);
#133 = CARTESIAN_POINT('',(0.,0.));
#134 = VECTOR('',#135,1.);
#135 = DIRECTION('',(0.,1.));
#136 = ( GEOMETRIC_REPRESENTATION_CONTEXT(2) 
PARAMETRIC_REPRESENTATION_CONTEXT() REPRESENTATION_CONTEXT('2D SPACE',''
  ) );
#137 = ADVANCED_FACE('',(#138,#333),#44,.F.);
#138 = FACE_BOUND('',#139,.F.);
#139 = EDGE_LOOP('',(#140,#141,#165,#193,#222,#250,#279,#307));
#140 = ORIENTED_EDGE('',*,*,#21,.T.);
#141 = ORIENTED_EDGE('',*,*,#142,.T.);
#142 = EDGE_CURVE('',#24,#143,#145,.T.);
#143 = VERTEX_POINT('',#144);
#144 = CARTESIAN_POINT('',(206.,-145.,0.));
#145 = SURFACE_CURVE('',#146,(#151,#158),.PCURVE_S1.);
#146 = CIRCLE('',#147,8.);
#147 = AXIS2_PLACEMENT_3D('',#148,#149,#150);
#148 = CARTESIAN_POINT('',(198.,-145.,0.));
#149 = DIRECTION('',(0.,0.,1.));
#150 = DIRECTION('',(0.,-1.,0.));
#151 = PCURVE('',#44,#152);
#152 = DEFINITIONAL_REPRESENTATION('',(#153),#157);
#153 = CIRCLE('',#154,8.);
#154 = AXIS2_PLACEMENT_2D('',#155,#156);
#155 = CARTESIAN_POINT('',(198.,-145.));
#156 = DIRECTION('',(0.,-1.));
#157 = ( GEOMETRIC_REPRESENTATION_CONTEXT(2) 
PARAMETRIC_REPRESENTATION_CONTEXT() REPRESENTATION_CONTEXT('2D SPACE',''
  ) );
#158 = PCURVE('',#126,#159);
#159 = DEFINITIONAL_REPRESENTATION('',(#160),#164);
#160 = LINE('',#161,#162);
#161 = CARTESIAN_POINT('',(0.,0.));
#162 = VECTOR('',#163,1.);
#163 = DIRECTION('',(1.,0.));
#164 = ( GEOMETRIC_REPRESENTATION_CONTEXT(2) 
PARAMETRIC_REPRESENTATION_CONTEXT() REPRESENTATION_CONTEXT('2D SPACE',''
  ) );
#165 = ORIENTED_EDGE('',*,*,#166,.T.);
#166 = EDGE_CURVE('',#143,#167,#169,.T.);
#167 = VERTEX_POINT('',#168);
#168 = CARTESIAN_POINT('',(206.,145.,0.));
#169 = SURFACE_CURVE('',#170,(#174,#181),.PCURVE_S1.);
#170 = LINE('',#171,#172);
#171 = CARTESIAN_POINT('',(206.,-153.,0.));
#172 = VECTOR('',#173,1.);
#173 = DIRECTION('',(0.,1.,0.));
#174 = PCURVE('',#44,#175);
#175 = DEFINITIONAL_REPRESENTATION('',(#176),#180);
#176 = LINE('',#177,#178);
#177 = CARTESIAN_POINT('',(206.,-153.));
#178 = VECTOR('',#179,1.);
#179 = DIRECTION('',(0.,1.));
#180 = ( GEOMETRIC_REPRESENTATION_CONTEXT(2) 
PARAMETRIC_REPRESENTATION_CONTEXT() REPRESENTATION_CONTEXT('2D SPACE',''
  ) );
#181 = PCURVE('',#182,#187);
#182 = PLANE('',#183);
#183 = AXIS2_PLACEMENT_3D('',#184,#185,#186);
#184 = CARTESIAN_POINT('',(206.,-153.,0.));
#185 = DIRECTION('',(-1.,0.,0.));
#186 = DIRECTION('',(0.,1.,0.));
#187 = DEFINITIONAL_REPRESENTATION('',(#188),#192);
#188 = LINE('',#189,#190);
#189 = CARTESIAN_POINT('',(0.,0.));
#190 = VECTOR('',#191,1.);
#191 = DIRECTION('',(1.,0.));
#192 = ( GEOMETRIC_REPRESENTATION_CONTEXT(2) 
PARAMETRIC_REPRESENTATION_CONTEXT() REPRESENTATION_CONTEXT('2D SPACE',''
  ) );
#193 = ORIENTED_EDGE('',*,*,#194,.T.);
#194 = EDGE_CURVE('',#167,#195,#197,.T.);
#195 = VERTEX_POINT('',#196);
#196 = CARTESIAN_POINT('',(198.,153.,0.));
#197 = SURFACE_CURVE('',#198,(#203,#210),.PCURVE_S1.);
#198 = CIRCLE('',#199,8.);
#199 = AXIS2_PLACEMENT_3D('',#200,#201,#202);
#200 = CARTESIAN_POINT('',(198.,145.,0.));
#201 = DIRECTION('',(0.,0.,1.));
#202 = DIRECTION('',(0.,-1.,0.));
#203 = PCURVE('',#44,#204);
#204 = DEFINITIONAL_REPRESENTATION('',(#205),#209);
#205 = CIRCLE('',#206,8.);
#206 = AXIS2_PLACEMENT_2D('',#207,#208);
#207 = CARTESIAN_POINT('',(198.,145.));
#208 = DIRECTION('',(0.,-1.));
#209 = ( GEOMETRIC_REPRESENTATION_CONTEXT(2) 
PARAMETRIC_REPRESENTATION_CONTEXT() REPRESENTATION_CONTEXT('2D SPACE',''
  ) );
#210 = PCURVE('',#211,#216);
#211 = CYLINDRICAL_SURFACE('',#212,8.);
#212 = AXIS2_PLACEMENT_3D('',#213,#214,#215);
#213 = CARTESIAN_POINT('',(198.,145.,0.));
#214 = DIRECTION('',(0.,0.,1.));
#215 = DIRECTION('',(1.,0.,-0.));
#216 = DEFINITIONAL_REPRESENTATION('',(#217),#221);
#217 = LINE('',#218,#219);
#218 = CARTESIAN_POINT('',(-1.570796326795,0.));
#219 = VECTOR('',#220,1.);
#220 = DIRECTION('',(1.,0.));
#221 = ( GEOMETRIC_REPRESENTATION_CONTEXT(2) 
PARAMETRIC_REPRESENTATION_CONTEXT() REPRESENTATION_CONTEXT('2D SPACE',''
  ) );
#222 = ORIENTED_EDGE('',*,*,#223,.T.);
#223 = EDGE_CURVE('',#195,#224,#226,.T.);
#224 = VERTEX_POINT('',#225);
#225 = CARTESIAN_POINT('',(-198.,153.,0.));
#226 = SURFACE_CURVE('',#227,(#231,#238),.PCURVE_S1.);
#227 = LINE('',#228,#229);
#228 = CARTESIAN_POINT('',(206.,153.,0.));
#229 = VECTOR('',#230,1.);
#230 = DIRECTION('',(-1.,0.,0.));
#231 = PCURVE('',#44,#232);
#232 = DEFINITIONAL_REPRESENTATION('',(#233),#237);
#233 = LINE('',#234,#235);
#234 = CARTESIAN_POINT('',(206.,153.));
#235 = VECTOR('',#236,1.);
#236 = DIRECTION('',(-1.,0.));
#237 = ( GEOMETRIC_REPRESENTATION_CONTEXT(2) 
PARAMETRIC_REPRESENTATION_CONTEXT() REPRESENTATION_CONTEXT('2D SPACE',''
  ) );
#238 = PCURVE('',#239,#244);
#239 = PLANE('',#240);
#240 = AXIS2_PLACEMENT_3D('',#241,#242,#243);
#241 = CARTESIAN_POINT('',(206.,153.,0.));
#242 = DIRECTION('',(0.,-1.,0.));
#243 = DIRECTION('',(-1.,0.,0.));
#244 = DEFINITIONAL_REPRESENTATION('',(#245),#249);
#245 = LINE('',#246,#247);
#246 = CARTESIAN_POINT('',(0.,-0.));
#247 = VECTOR('',#248,1.);
#248 = DIRECTION('',(1.,0.));
#249 = ( GEOMETRIC_REPRESENTATION_CONTEXT(2) 
PARAMETRIC_REPRESENTATION_CONTEXT() REPRESENTATION_CONTEXT('2D SPACE',''
  ) );
#250 = ORIENTED_EDGE('',*,*,#251,.T.);
#251 = EDGE_CURVE('',#224,#252,#254,.T.);
#252 = VERTEX_POINT('',#253);
#253 = CARTESIAN_POINT('',(-206.,145.,0.));
#254 = SURFACE_CURVE('',#255,(#260,#267),.PCURVE_S1.);
#255 = CIRCLE('',#256,8.);
#256 = AXIS2_PLACEMENT_3D('',#257,#258,#259);
#257 = CARTESIAN_POINT('',(-198.,145.,0.));
#258 = DIRECTION('',(0.,0.,1.));
#259 = DIRECTION('',(0.,-1.,0.));
#260 = PCURVE('',#44,#261);
#261 = DEFINITIONAL_REPRESENTATION('',(#262),#266);
#262 = CIRCLE('',#263,8.);
#263 = AXIS2_PLACEMENT_2D('',#264,#265);
#264 = CARTESIAN_POINT('',(-198.,145.));
#265 = DIRECTION('',(0.,-1.));
#266 = ( GEOMETRIC_REPRESENTATION_CONTEXT(2) 
PARAMETRIC_REPRESENTATION_CONTEXT() REPRESENTATION_CONTEXT('2D SPACE',''
  ) );
#267 = PCURVE('',#268,#273);
#268 = CYLINDRICAL_SURFACE('',#269,8.);
#269 = AXIS2_PLACEMENT_3D('',#270,#271,#272);
#270 = CARTESIAN_POINT('',(-198.,145.,0.));
#271 = DIRECTION('',(0.,0.,1.));
#272 = DIRECTION('',(-0.,1.,0.));
#273 = DEFINITIONAL_REPRESENTATION('',(#274),#278);
#274 = LINE('',#275,#276);
#275 = CARTESIAN_POINT('',(-3.14159265359,0.));
#276 = VECTOR('',#277,1.);
#277 = DIRECTION('',(1.,0.));
#278 = ( GEOMETRIC_REPRESENTATION_CONTEXT(2) 
PARAMETRIC_REPRESENTATION_CONTEXT() REPRESENTATION_CONTEXT('2D SPACE',''
  ) );
#279 = ORIENTED_EDGE('',*,*,#280,.T.);
#280 = EDGE_CURVE('',#252,#281,#283,.T.);
#281 = VERTEX_POINT('',#282);
#282 = CARTESIAN_POINT('',(-206.,-145.,0.));
#283 = SURFACE_CURVE('',#284,(#288,#295),.PCURVE_S1.);
#284 = LINE('',#285,#286);
#285 = CARTESIAN_POINT('',(-206.,153.,0.));
#286 = VECTOR('',#287,1.);
#287 = DIRECTION('',(0.,-1.,0.));
#288 = PCURVE('',#44,#289);
#289 = DEFINITIONAL_REPRESENTATION('',(#290),#294);
#290 = LINE('',#291,#292);
#291 = CARTESIAN_POINT('',(-206.,153.));
#292 = VECTOR('',#293,1.);
#293 = DIRECTION('',(0.,-1.));
#294 = ( GEOMETRIC_REPRESENTATION_CONTEXT(2) 
PARAMETRIC_REPRESENTATION_CONTEXT() REPRESENTATION_CONTEXT('2D SPACE',''
  ) );
#295 = PCURVE('',#296,#301);
#296 = PLANE('',#297);
#297 = AXIS2_PLACEMENT_3D('',#298,#299,#300);
#298 = CARTESIAN_POINT('',(-206.,153.,0.));
#299 = DIRECTION('',(1.,0.,-0.));
#300 = DIRECTION('',(0.,-1.,0.));
#301 = DEFINITIONAL_REPRESENTATION('',(#302),#306);
#302 = LINE('',#303,#304);
#303 = CARTESIAN_POINT('',(0.,0.));
#304 = VECTOR('',#305,1.);
#305 = DIRECTION('',(1.,0.));
#306 = ( GEOMETRIC_REPRESENTATION_CONTEXT(2) 
PARAMETRIC_REPRESENTATION_CONTEXT() REPRESENTATION_CONTEXT('2D SPACE',''
  ) );
#307 = ORIENTED_EDGE('',*,*,#308,.F.);
#308 = EDGE_CURVE('',#22,#281,#309,.T.);
#309 = SURFACE_CURVE('',#310,(#315,#326),.PCURVE_S1.);
#310 = CIRCLE('',#311,8.);
#311 = AXIS2_PLACEMENT_3D('',#312,#313,#314);
#312 = CARTESIAN_POINT('',(-198.,-145.,0.));
#313 = DIRECTION('',(-0.,-0.,-1.));
#314 = DIRECTION('',(0.,-1.,0.));
#315 = PCURVE('',#44,#316);
#316 = DEFINITIONAL_REPRESENTATION('',(#317),#325);
#317 = ( BOUNDED_CURVE() B_SPLINE_CURVE(2,(#318,#319,#320,#321,#322,#323
,#324),.UNSPECIFIED.,.T.,.F.) B_SPLINE_CURVE_WITH_KNOTS((1,2,2,2,2,1),(
    -2.094395102393,0.,2.094395102393,4.188790204786,6.28318530718,
8.377580409573),.UNSPECIFIED.) CURVE() GEOMETRIC_REPRESENTATION_ITEM() 
RATIONAL_B_SPLINE_CURVE((1.,0.5,1.,0.5,1.,0.5,1.)) REPRESENTATION_ITEM(
  '') );
#318 = CARTESIAN_POINT('',(-198.,-153.));
#319 = CARTESIAN_POINT('',(-211.8564064605,-153.));
#320 = CARTESIAN_POINT('',(-204.9282032302,-141.));
#321 = CARTESIAN_POINT('',(-198.,-129.));
#322 = CARTESIAN_POINT('',(-191.0717967697,-141.));
#323 = CARTESIAN_POINT('',(-184.1435935394,-153.));
#324 = CARTESIAN_POINT('',(-198.,-153.));
#325 = ( GEOMETRIC_REPRESENTATION_CONTEXT(2) 
PARAMETRIC_REPRESENTATION_CONTEXT() REPRESENTATION_CONTEXT('2D SPACE',''
  ) );
#326 = PCURVE('',#72,#327);
#327 = DEFINITIONAL_REPRESENTATION('',(#328),#332);
#328 = LINE('',#329,#330);
#329 = CARTESIAN_POINT('',(-0.,0.));
#330 = VECTOR('',#331,1.);
#331 = DIRECTION('',(-1.,0.));
#332 = ( GEOMETRIC_REPRESENTATION_CONTEXT(2) 
PARAMETRIC_REPRESENTATION_CONTEXT() REPRESENTATION_CONTEXT('2D SPACE',''
  ) );
#333 = FACE_BOUND('',#334,.F.);
#334 = EDGE_LOOP('',(#335));
#335 = ORIENTED_EDGE('',*,*,#336,.F.);
#336 = EDGE_CURVE('',#337,#337,#339,.T.);
#337 = VERTEX_POINT('',#338);
#338 = CARTESIAN_POINT('',(46.,0.,0.));
#339 = SURFACE_CURVE('',#340,(#345,#352),.PCURVE_S1.);
#340 = CIRCLE('',#341,46.);
#341 = AXIS2_PLACEMENT_3D('',#342,#343,#344);
#342 = CARTESIAN_POINT('',(0.,0.,0.));
#343 = DIRECTION('',(0.,0.,1.));
#344 = DIRECTION('',(1.,0.,0.));
#345 = PCURVE('',#44,#346);
#346 = DEFINITIONAL_REPRESENTATION('',(#347),#351);
#347 = CIRCLE('',#348,46.);
#348 = AXIS2_PLACEMENT_2D('',#349,#350);
#349 = CARTESIAN_POINT('',(0.,0.));
#350 = DIRECTION('',(1.,0.));
#351 = ( GEOMETRIC_REPRESENTATION_CONTEXT(2) 
PARAMETRIC_REPRESENTATION_CONTEXT() REPRESENTATION_CONTEXT('2D SPACE',''
  ) );
#352 = PCURVE('',#353,#358);
#353 = CYLINDRICAL_SURFACE('',#354,46.);
#354 = AXIS2_PLACEMENT_3D('',#355,#356,#357);
#355 = CARTESIAN_POINT('',(0.,0.,0.));
#356 = DIRECTION('',(-0.,-0.,-1.));
#357 = DIRECTION('',(1.,0.,0.));
#358 = DEFINITIONAL_REPRESENTATION('',(#359),#363);
#359 = LINE('',#360,#361);
#360 = CARTESIAN_POINT('',(-0.,0.));
#361 = VECTOR('',#362,1.);
#362 = DIRECTION('',(-1.,0.));
#363 = ( GEOMETRIC_REPRESENTATION_CONTEXT(2) 
PARAMETRIC_REPRESENTATION_CONTEXT() REPRESENTATION_CONTEXT('2D SPACE',''
  ) );
#364 = ADVANCED_FACE('',(#365),#72,.T.);
#365 = FACE_BOUND('',#366,.F.);
#366 = EDGE_LOOP('',(#367,#368,#391,#417));
#367 = ORIENTED_EDGE('',*,*,#308,.T.);
#368 = ORIENTED_EDGE('',*,*,#369,.T.);
#369 = EDGE_CURVE('',#281,#370,#372,.T.);
#370 = VERTEX_POINT('',#371);
#371 = CARTESIAN_POINT('',(-206.,-145.,22.));
#372 = SURFACE_CURVE('',#373,(#377,#384),.PCURVE_S1.);
#373 = LINE('',#374,#375);
#374 = CARTESIAN_POINT('',(-206.,-145.,0.));
#375 = VECTOR('',#376,1.);
#376 = DIRECTION('',(0.,0.,1.));
#377 = PCURVE('',#72,#378);
#378 = DEFINITIONAL_REPRESENTATION('',(#379),#383);
#379 = LINE('',#380,#381);
#380 = CARTESIAN_POINT('',(-1.570796326795,0.));
#381 = VECTOR('',#382,1.);
#382 = DIRECTION('',(-0.,1.));
#383 = ( GEOMETRIC_REPRESENTATION_CONTEXT(2) 
PARAMETRIC_REPRESENTATION_CONTEXT() REPRESENTATION_CONTEXT('2D SPACE',''
  ) );
#384 = PCURVE('',#296,#385);
#385 = DEFINITIONAL_REPRESENTATION('',(#386),#390);
#386 = LINE('',#387,#388);
#387 = CARTESIAN_POINT('',(298.,0.));
#388 = VECTOR('',#389,1.);
#389 = DIRECTION('',(0.,-1.));
#390 = ( GEOMETRIC_REPRESENTATION_CONTEXT(2) 
PARAMETRIC_REPRESENTATION_CONTEXT() REPRESENTATION_CONTEXT('2D SPACE',''
  ) );
#391 = ORIENTED_EDGE('',*,*,#392,.F.);
#392 = EDGE_CURVE('',#57,#370,#393,.T.);
#393 = SURFACE_CURVE('',#394,(#399,#406),.PCURVE_S1.);
#394 = CIRCLE('',#395,8.);
#395 = AXIS2_PLACEMENT_3D('',#396,#397,#398);
#396 = CARTESIAN_POINT('',(-198.,-145.,22.));
#397 = DIRECTION('',(-0.,-0.,-1.));
#398 = DIRECTION('',(0.,-1.,0.));
#399 = PCURVE('',#72,#400);
#400 = DEFINITIONAL_REPRESENTATION('',(#401),#405);
#401 = LINE('',#402,#403);
#402 = CARTESIAN_POINT('',(-0.,22.));
#403 = VECTOR('',#404,1.);
#404 = DIRECTION('',(-1.,0.));
#405 = ( GEOMETRIC_REPRESENTATION_CONTEXT(2) 
PARAMETRIC_REPRESENTATION_CONTEXT() REPRESENTATION_CONTEXT('2D SPACE',''
  ) );
#406 = PCURVE('',#100,#407);
#407 = DEFINITIONAL_REPRESENTATION('',(#408),#416);
#408 = ( BOUNDED_CURVE() B_SPLINE_CURVE(2,(#409,#410,#411,#412,#413,#414
,#415),.UNSPECIFIED.,.T.,.F.) B_SPLINE_CURVE_WITH_KNOTS((1,2,2,2,2,1),(
    -2.094395102393,0.,2.094395102393,4.188790204786,6.28318530718,
8.377580409573),.UNSPECIFIED.) CURVE() GEOMETRIC_REPRESENTATION_ITEM() 
RATIONAL_B_SPLINE_CURVE((1.,0.5,1.,0.5,1.,0.5,1.)) REPRESENTATION_ITEM(
  '') );
#409 = CARTESIAN_POINT('',(-198.,-153.));
#410 = CARTESIAN_POINT('',(-211.8564064605,-153.));
#411 = CARTESIAN_POINT('',(-204.9282032302,-141.));
#412 = CARTESIAN_POINT('',(-198.,-129.));
#413 = CARTESIAN_POINT('',(-191.0717967697,-141.));
#414 = CARTESIAN_POINT('',(-184.1435935394,-153.));
#415 = CARTESIAN_POINT('',(-198.,-153.));
#416 = ( GEOMETRIC_REPRESENTATION_CONTEXT(2) 
PARAMETRIC_REPRESENTATION_CONTEXT() REPRESENTATION_CONTEXT('2D SPACE',''
  ) );
#417 = ORIENTED_EDGE('',*,*,#56,.F.);
#418 = ADVANCED_FACE('',(#419),#126,.T.);
#419 = FACE_BOUND('',#420,.T.);
#420 = EDGE_LOOP('',(#421,#422,#445,#467));
#421 = ORIENTED_EDGE('',*,*,#142,.T.);
#422 = ORIENTED_EDGE('',*,*,#423,.T.);
#423 = EDGE_CURVE('',#143,#424,#426,.T.);
#424 = VERTEX_POINT('',#425);
#425 = CARTESIAN_POINT('',(206.,-145.,22.));
#426 = SURFACE_CURVE('',#427,(#431,#438),.PCURVE_S1.);
#427 = LINE('',#428,#429);
#428 = CARTESIAN_POINT('',(206.,-145.,0.));
#429 = VECTOR('',#430,1.);
#430 = DIRECTION('',(0.,0.,1.));
#431 = PCURVE('',#126,#432);
#432 = DEFINITIONAL_REPRESENTATION('',(#433),#437);
#433 = LINE('',#434,#435);
#434 = CARTESIAN_POINT('',(1.570796326795,0.));
#435 = VECTOR('',#436,1.);
#436 = DIRECTION('',(0.,1.));
#437 = ( GEOMETRIC_REPRESENTATION_CONTEXT(2) 
PARAMETRIC_REPRESENTATION_CONTEXT() REPRESENTATION_CONTEXT('2D SPACE',''
  ) );
#438 = PCURVE('',#182,#439);
#439 = DEFINITIONAL_REPRESENTATION('',(#440),#444);
#440 = LINE('',#441,#442);
#441 = CARTESIAN_POINT('',(8.,0.));
#442 = VECTOR('',#443,1.);
#443 = DIRECTION('',(0.,-1.));
#444 = ( GEOMETRIC_REPRESENTATION_CONTEXT(2) 
PARAMETRIC_REPRESENTATION_CONTEXT() REPRESENTATION_CONTEXT('2D SPACE',''
  ) );
#445 = ORIENTED_EDGE('',*,*,#446,.F.);
#446 = EDGE_CURVE('',#85,#424,#447,.T.);
#447 = SURFACE_CURVE('',#448,(#453,#460),.PCURVE_S1.);
#448 = CIRCLE('',#449,8.);
#449 = AXIS2_PLACEMENT_3D('',#450,#451,#452);
#450 = CARTESIAN_POINT('',(198.,-145.,22.));
#451 = DIRECTION('',(0.,0.,1.));
#452 = DIRECTION('',(0.,-1.,0.));
#453 = PCURVE('',#126,#454);
#454 = DEFINITIONAL_REPRESENTATION('',(#455),#459);
#455 = LINE('',#456,#457);
#456 = CARTESIAN_POINT('',(0.,22.));
#457 = VECTOR('',#458,1.);
#458 = DIRECTION('',(1.,0.));
#459 = ( GEOMETRIC_REPRESENTATION_CONTEXT(2) 
PARAMETRIC_REPRESENTATION_CONTEXT() REPRESENTATION_CONTEXT('2D SPACE',''
  ) );
#460 = PCURVE('',#100,#461);
#461 = DEFINITIONAL_REPRESENTATION('',(#462),#466);
#462 = CIRCLE('',#463,8.);
#463 = AXIS2_PLACEMENT_2D('',#464,#465);
#464 = CARTESIAN_POINT('',(198.,-145.));
#465 = DIRECTION('',(0.,-1.));
#466 = ( GEOMETRIC_REPRESENTATION_CONTEXT(2) 
PARAMETRIC_REPRESENTATION_CONTEXT() REPRESENTATION_CONTEXT('2D SPACE',''
  ) );
#467 = ORIENTED_EDGE('',*,*,#112,.F.);
#468 = ADVANCED_FACE('',(#469,#589),#100,.T.);
#469 = FACE_BOUND('',#470,.T.);
#470 = EDGE_LOOP('',(#471,#472,#473,#496,#520,#543,#567,#588));
#471 = ORIENTED_EDGE('',*,*,#84,.T.);
#472 = ORIENTED_EDGE('',*,*,#446,.T.);
#473 = ORIENTED_EDGE('',*,*,#474,.T.);
#474 = EDGE_CURVE('',#424,#475,#477,.T.);
#475 = VERTEX_POINT('',#476);
#476 = CARTESIAN_POINT('',(206.,145.,22.));
#477 = SURFACE_CURVE('',#478,(#482,#489),.PCURVE_S1.);
#478 = LINE('',#479,#480);
#479 = CARTESIAN_POINT('',(206.,-153.,22.));
#480 = VECTOR('',#481,1.);
#481 = DIRECTION('',(0.,1.,0.));
#482 = PCURVE('',#100,#483);
#483 = DEFINITIONAL_REPRESENTATION('',(#484),#488);
#484 = LINE('',#485,#486);
#485 = CARTESIAN_POINT('',(206.,-153.));
#486 = VECTOR('',#487,1.);
#487 = DIRECTION('',(0.,1.));
#488 = ( GEOMETRIC_REPRESENTATION_CONTEXT(2) 
PARAMETRIC_REPRESENTATION_CONTEXT() REPRESENTATION_CONTEXT('2D SPACE',''
  ) );
#489 = PCURVE('',#182,#490);
#490 = DEFINITIONAL_REPRESENTATION('',(#491),#495);
#491 = LINE('',#492,#493);
#492 = CARTESIAN_POINT('',(0.,-22.));
#493 = VECTOR('',#494,1.);
#494 = DIRECTION('',(1.,0.));
#495 = ( GEOMETRIC_REPRESENTATION_CONTEXT(2) 
PARAMETRIC_REPRESENTATION_CONTEXT() REPRESENTATION_CONTEXT('2D SPACE',''
  ) );
#496 = ORIENTED_EDGE('',*,*,#497,.T.);
#497 = EDGE_CURVE('',#475,#498,#500,.T.);
#498 = VERTEX_POINT('',#499);
#499 = CARTESIAN_POINT('',(198.,153.,22.));
#500 = SURFACE_CURVE('',#501,(#506,#513),.PCURVE_S1.);
#501 = CIRCLE('',#502,8.);
#502 = AXIS2_PLACEMENT_3D('',#503,#504,#505);
#503 = CARTESIAN_POINT('',(198.,145.,22.));
#504 = DIRECTION('',(0.,0.,1.));
#505 = DIRECTION('',(0.,-1.,0.));
#506 = PCURVE('',#100,#507);
#507 = DEFINITIONAL_REPRESENTATION('',(#508),#512);
#508 = CIRCLE('',#509,8.);
#509 = AXIS2_PLACEMENT_2D('',#510,#511);
#510 = CARTESIAN_POINT('',(198.,145.));
#511 = DIRECTION('',(0.,-1.));
#512 = ( GEOMETRIC_REPRESENTATION_CONTEXT(2) 
PARAMETRIC_REPRESENTATION_CONTEXT() REPRESENTATION_CONTEXT('2D SPACE',''
  ) );
#513 = PCURVE('',#211,#514);
#514 = DEFINITIONAL_REPRESENTATION('',(#515),#519);
#515 = LINE('',#516,#517);
#516 = CARTESIAN_POINT('',(-1.570796326795,22.));
#517 = VECTOR('',#518,1.);
#518 = DIRECTION('',(1.,0.));
#519 = ( GEOMETRIC_REPRESENTATION_CONTEXT(2) 
PARAMETRIC_REPRESENTATION_CONTEXT() REPRESENTATION_CONTEXT('2D SPACE',''
  ) );
#520 = ORIENTED_EDGE('',*,*,#521,.T.);
#521 = EDGE_CURVE('',#498,#522,#524,.T.);
#522 = VERTEX_POINT('',#523);
#523 = CARTESIAN_POINT('',(-198.,153.,22.));
#524 = SURFACE_CURVE('',#525,(#529,#536),.PCURVE_S1.);
#525 = LINE('',#526,#527);
#526 = CARTESIAN_POINT('',(206.,153.,22.));
#527 = VECTOR('',#528,1.);
#528 = DIRECTION('',(-1.,0.,0.));
#529 = PCURVE('',#100,#530);
#530 = DEFINITIONAL_REPRESENTATION('',(#531),#535);
#531 = LINE('',#532,#533);
#532 = CARTESIAN_POINT('',(206.,153.));
#533 = VECTOR('',#534,1.);
#534 = DIRECTION('',(-1.,0.));
#535 = ( GEOMETRIC_REPRESENTATION_CONTEXT(2) 
PARAMETRIC_REPRESENTATION_CONTEXT() REPRESENTATION_CONTEXT('2D SPACE',''
  ) );
#536 = PCURVE('',#239,#537);
#537 = DEFINITIONAL_REPRESENTATION('',(#538),#542);
#538 = LINE('',#539,#540);
#539 = CARTESIAN_POINT('',(0.,-22.));
#540 = VECTOR('',#541,1.);
#541 = DIRECTION('',(1.,0.));
#542 = ( GEOMETRIC_REPRESENTATION_CONTEXT(2) 
PARAMETRIC_REPRESENTATION_CONTEXT() REPRESENTATION_CONTEXT('2D SPACE',''
  ) );
#543 = ORIENTED_EDGE('',*,*,#544,.T.);
#544 = EDGE_CURVE('',#522,#545,#547,.T.);
#545 = VERTEX_POINT('',#546);
#546 = CARTESIAN_POINT('',(-206.,145.,22.));
#547 = SURFACE_CURVE('',#548,(#553,#560),.PCURVE_S1.);
#548 = CIRCLE('',#549,8.);
#549 = AXIS2_PLACEMENT_3D('',#550,#551,#552);
#550 = CARTESIAN_POINT('',(-198.,145.,22.));
#551 = DIRECTION('',(0.,0.,1.));
#552 = DIRECTION('',(0.,-1.,0.));
#553 = PCURVE('',#100,#554);
#554 = DEFINITIONAL_REPRESENTATION('',(#555),#559);
#555 = CIRCLE('',#556,8.);
#556 = AXIS2_PLACEMENT_2D('',#557,#558);
#557 = CARTESIAN_POINT('',(-198.,145.));
#558 = DIRECTION('',(0.,-1.));
#559 = ( GEOMETRIC_REPRESENTATION_CONTEXT(2) 
PARAMETRIC_REPRESENTATION_CONTEXT() REPRESENTATION_CONTEXT('2D SPACE',''
  ) );
#560 = PCURVE('',#268,#561);
#561 = DEFINITIONAL_REPRESENTATION('',(#562),#566);
#562 = LINE('',#563,#564);
#563 = CARTESIAN_POINT('',(-3.14159265359,22.));
#564 = VECTOR('',#565,1.);
#565 = DIRECTION('',(1.,0.));
#566 = ( GEOMETRIC_REPRESENTATION_CONTEXT(2) 
PARAMETRIC_REPRESENTATION_CONTEXT() REPRESENTATION_CONTEXT('2D SPACE',''
  ) );
#567 = ORIENTED_EDGE('',*,*,#568,.T.);
#568 = EDGE_CURVE('',#545,#370,#569,.T.);
#569 = SURFACE_CURVE('',#570,(#574,#581),.PCURVE_S1.);
#570 = LINE('',#571,#572);
#571 = CARTESIAN_POINT('',(-206.,153.,22.));
#572 = VECTOR('',#573,1.);
#573 = DIRECTION('',(0.,-1.,0.));
#574 = PCURVE('',#100,#575);
#575 = DEFINITIONAL_REPRESENTATION('',(#576),#580);
#576 = LINE('',#577,#578);
#577 = CARTESIAN_POINT('',(-206.,153.));
#578 = VECTOR('',#579,1.);
#579 = DIRECTION('',(0.,-1.));
#580 = ( GEOMETRIC_REPRESENTATION_CONTEXT(2) 
PARAMETRIC_REPRESENTATION_CONTEXT() REPRESENTATION_CONTEXT('2D SPACE',''
  ) );
#581 = PCURVE('',#296,#582);
#582 = DEFINITIONAL_REPRESENTATION('',(#583),#587);
#583 = LINE('',#584,#585);
#584 = CARTESIAN_POINT('',(0.,-22.));
#585 = VECTOR('',#586,1.);
#586 = DIRECTION('',(1.,0.));
#587 = ( GEOMETRIC_REPRESENTATION_CONTEXT(2) 
PARAMETRIC_REPRESENTATION_CONTEXT() REPRESENTATION_CONTEXT('2D SPACE',''
  ) );
#588 = ORIENTED_EDGE('',*,*,#392,.F.);
#589 = FACE_BOUND('',#590,.T.);
#590 = EDGE_LOOP('',(#591,#682,#755,#828,#917));
#591 = ORIENTED_EDGE('',*,*,#592,.T.);
#592 = EDGE_CURVE('',#593,#595,#597,.T.);
#593 = VERTEX_POINT('',#594);
#594 = CARTESIAN_POINT('',(-195.46384003,144.4314088892,22.));
#595 = VERTEX_POINT('',#596);
#596 = CARTESIAN_POINT('',(195.46384003005,144.4314088892,22.));
#597 = SURFACE_CURVE('',#598,(#617,#639),.PCURVE_S1.);
#598 = B_SPLINE_CURVE_WITH_KNOTS('',5,(#599,#600,#601,#602,#603,#604,
    #605,#606,#607,#608,#609,#610,#611,#612,#613,#614,#615,#616),
  .UNSPECIFIED.,.F.,.F.,(6,4,4,4,6),(0.,0.249809501928,0.5,
    0.750190498072,1.),.UNSPECIFIED.);
#599 = CARTESIAN_POINT('',(-195.46384003,144.4314088892,22.));
#600 = CARTESIAN_POINT('',(-175.9748770777,144.67594776739,22.));
#601 = CARTESIAN_POINT('',(-156.4708874173,144.8991860611,22.));
#602 = CARTESIAN_POINT('',(-136.9536307953,145.09673878955,22.));
#603 = CARTESIAN_POINT('',(-117.4254032963,145.26504262342,22.));
#604 = CARTESIAN_POINT('',(-78.32240059585,145.53854046773,22.));
#605 = CARTESIAN_POINT('',(-58.74759857377,145.64363790686,22.));
#606 = CARTESIAN_POINT('',(-39.16699972084,145.71454780499,22.));
#607 = CARTESIAN_POINT('',(-19.58349945514,145.74999999862,22.));
#608 = CARTESIAN_POINT('',(19.583499455152,145.74999999862,22.));
#609 = CARTESIAN_POINT('',(39.166999720848,145.71454780499,22.));
#610 = CARTESIAN_POINT('',(58.747598573781,145.64363790686,22.));
#611 = CARTESIAN_POINT('',(78.322400595864,145.53854046773,22.));
#612 = CARTESIAN_POINT('',(117.42540329632,145.26504262342,22.));
#613 = CARTESIAN_POINT('',(136.95363079537,145.09673878955,22.));
#614 = CARTESIAN_POINT('',(156.47088741732,144.8991860611,22.));
#615 = CARTESIAN_POINT('',(175.97487707775,144.67594776739,22.));
#616 = CARTESIAN_POINT('',(195.46384003005,144.4314088892,22.));
#617 = PCURVE('',#100,#618);
#618 = DEFINITIONAL_REPRESENTATION('',(#619),#638);
#619 = B_SPLINE_CURVE_WITH_KNOTS('',5,(#620,#621,#622,#623,#624,#625,
    #626,#627,#628,#629,#630,#631,#632,#633,#634,#635,#636,#637),
  .UNSPECIFIED.,.F.,.F.,(6,4,4,4,6),(0.,0.249809501928,0.5,
    0.750190498072,1.),.UNSPECIFIED.);
#620 = CARTESIAN_POINT('',(-195.46384003,144.4314088892));
#621 = CARTESIAN_POINT('',(-175.9748770777,144.67594776739));
#622 = CARTESIAN_POINT('',(-156.4708874173,144.8991860611));
#623 = CARTESIAN_POINT('',(-136.9536307953,145.09673878955));
#624 = CARTESIAN_POINT('',(-117.4254032963,145.26504262342));
#625 = CARTESIAN_POINT('',(-78.32240059585,145.53854046773));
#626 = CARTESIAN_POINT('',(-58.74759857377,145.64363790686));
#627 = CARTESIAN_POINT('',(-39.16699972084,145.71454780499));
#628 = CARTESIAN_POINT('',(-19.58349945514,145.74999999862));
#629 = CARTESIAN_POINT('',(19.583499455152,145.74999999862));
#630 = CARTESIAN_POINT('',(39.166999720848,145.71454780499));
#631 = CARTESIAN_POINT('',(58.747598573781,145.64363790686));
#632 = CARTESIAN_POINT('',(78.322400595864,145.53854046773));
#633 = CARTESIAN_POINT('',(117.42540329632,145.26504262342));
#634 = CARTESIAN_POINT('',(136.95363079537,145.09673878955));
#635 = CARTESIAN_POINT('',(156.47088741732,144.8991860611));
#636 = CARTESIAN_POINT('',(175.97487707775,144.67594776739));
#637 = CARTESIAN_POINT('',(195.46384003005,144.4314088892));
#638 = ( GEOMETRIC_REPRESENTATION_CONTEXT(2) 
PARAMETRIC_REPRESENTATION_CONTEXT() REPRESENTATION_CONTEXT('2D SPACE',''
  ) );
#639 = PCURVE('',#640,#661);
#640 = B_SPLINE_SURFACE_WITH_KNOTS('',9,1,(
    (#641,#642)
    ,(#643,#644)
    ,(#645,#646)
    ,(#647,#648)
    ,(#649,#650)
    ,(#651,#652)
    ,(#653,#654)
    ,(#655,#656)
    ,(#657,#658)
    ,(#659,#660
    )),.UNSPECIFIED.,.F.,.F.,.F.,(10,10),(2,2),(0.,406.),(0.,1.),
  .PIECEWISE_BEZIER_KNOTS.);
#641 = CARTESIAN_POINT('',(52.276800601073,38.628177784044,3.));
#642 = CARTESIAN_POINT('',(203.,150.,23.));
#643 = CARTESIAN_POINT('',(44.255645454915,49.483474415179,3.));
#644 = CARTESIAN_POINT('',(157.88888888888,150.,23.));
#645 = CARTESIAN_POINT('',(33.698620817951,58.464977161554,3.));
#646 = CARTESIAN_POINT('',(112.77777777777,150.,23.));
#647 = CARTESIAN_POINT('',(21.105989875904,64.895650303925,3.));
#648 = CARTESIAN_POINT('',(67.666666666667,150.,23.));
#649 = CARTESIAN_POINT('',(7.188897837329,68.254339222772,3.));
#650 = CARTESIAN_POINT('',(22.555555555556,150.,23.));
#651 = CARTESIAN_POINT('',(-7.18889783733,68.254339222797,3.));
#652 = CARTESIAN_POINT('',(-22.55555555555,150.,23.));
#653 = CARTESIAN_POINT('',(-21.1059898759,64.895650303907,3.));
#654 = CARTESIAN_POINT('',(-67.66666666666,150.,23.));
#655 = CARTESIAN_POINT('',(-33.69862081795,58.464977161563,3.));
#656 = CARTESIAN_POINT('',(-112.7777777777,150.,23.));
#657 = CARTESIAN_POINT('',(-44.25564545491,49.483474415177,3.));
#658 = CARTESIAN_POINT('',(-157.8888888888,150.,23.));
#659 = CARTESIAN_POINT('',(-52.27680060107,38.628177784044,3.));
#660 = CARTESIAN_POINT('',(-203.,150.,23.));
#661 = DEFINITIONAL_REPRESENTATION('',(#662),#681);
#662 = B_SPLINE_CURVE_WITH_KNOTS('',5,(#663,#664,#665,#666,#667,#668,
    #669,#670,#671,#672,#673,#674,#675,#676,#677,#678,#679,#680),
  .UNSPECIFIED.,.F.,.F.,(6,4,4,4,6),(0.,0.249809501928,0.5,
    0.750190498072,1.),.UNSPECIFIED.);
#663 = CARTESIAN_POINT('',(406.,0.95));
#664 = CARTESIAN_POINT('',(385.67550610531,0.95));
#665 = CARTESIAN_POINT('',(365.36516420938,0.95));
#666 = CARTESIAN_POINT('',(345.06729365938,0.95));
#667 = CARTESIAN_POINT('',(324.77971868935,0.95));
#668 = CARTESIAN_POINT('',(284.18935176408,0.95));
#669 = CARTESIAN_POINT('',(263.88658278615,0.95));
#670 = CARTESIAN_POINT('',(243.58924543554,0.95));
#671 = CARTESIAN_POINT('',(223.29462236695,0.95));
#672 = CARTESIAN_POINT('',(182.70537763304,0.95));
#673 = CARTESIAN_POINT('',(162.41075456444,0.95));
#674 = CARTESIAN_POINT('',(142.11341721384,0.95));
#675 = CARTESIAN_POINT('',(121.8106482359,0.95));
#676 = CARTESIAN_POINT('',(81.220281310638,0.95));
#677 = CARTESIAN_POINT('',(60.932706340608,0.95));
#678 = CARTESIAN_POINT('',(40.634835790621,0.95));
#679 = CARTESIAN_POINT('',(20.324493894677,0.95));
#680 = CARTESIAN_POINT('',(0.,0.95));
#681 = ( GEOMETRIC_REPRESENTATION_CONTEXT(2) 
PARAMETRIC_REPRESENTATION_CONTEXT() REPRESENTATION_CONTEXT('2D SPACE',''
  ) );
#682 = ORIENTED_EDGE('',*,*,#683,.T.);
#683 = EDGE_CURVE('',#595,#684,#686,.T.);
#684 = VERTEX_POINT('',#685);
#685 = CARTESIAN_POINT('',(196.1,0.,22.));
#686 = SURFACE_CURVE('',#687,(#702,#720),.PCURVE_S1.);
#687 = B_SPLINE_CURVE_WITH_KNOTS('',4,(#688,#689,#690,#691,#692,#693,
    #694,#695,#696,#697,#698,#699,#700,#701),.UNSPECIFIED.,.F.,.F.,(5,3,
    3,3,5),(0.,0.249854153967,0.499832269964,0.749894773648,1.),
  .UNSPECIFIED.);
#688 = CARTESIAN_POINT('',(195.46384003005,144.4314088892,22.));
#689 = CARTESIAN_POINT('',(195.54068105694,135.41851271909,22.));
#690 = CARTESIAN_POINT('',(195.61198929721,126.40347487403,22.));
#691 = CARTESIAN_POINT('',(195.67744689672,117.38652801461,22.));
#692 = CARTESIAN_POINT('',(195.79620062486,99.344853240136,22.));
#693 = CARTESIAN_POINT('',(195.84949088234,90.32012347291,22.));
#694 = CARTESIAN_POINT('',(195.89643475472,81.293994690997,22.));
#695 = CARTESIAN_POINT('',(195.97731035819,63.236437613673,22.));
#696 = CARTESIAN_POINT('',(196.01123781145,54.20500833462,22.));
#697 = CARTESIAN_POINT('',(196.03848154758,45.172725293971,22.));
#698 = CARTESIAN_POINT('',(196.07943650773,27.10547547855,22.));
#699 = CARTESIAN_POINT('',(196.09314547917,18.070508278425,22.));
#700 = CARTESIAN_POINT('',(196.1,9.035254081039,22.));
#701 = CARTESIAN_POINT('',(196.1,-7.105427357601E-15,22.));
#702 = PCURVE('',#100,#703);
#703 = DEFINITIONAL_REPRESENTATION('',(#704),#719);
#704 = B_SPLINE_CURVE_WITH_KNOTS('',4,(#705,#706,#707,#708,#709,#710,
    #711,#712,#713,#714,#715,#716,#717,#718),.UNSPECIFIED.,.F.,.F.,(5,3,
    3,3,5),(0.,0.249854153967,0.499832269964,0.749894773648,1.),
  .UNSPECIFIED.);
#705 = CARTESIAN_POINT('',(195.46384003005,144.4314088892));
#706 = CARTESIAN_POINT('',(195.54068105694,135.41851271909));
#707 = CARTESIAN_POINT('',(195.61198929721,126.40347487403));
#708 = CARTESIAN_POINT('',(195.67744689672,117.38652801461));
#709 = CARTESIAN_POINT('',(195.79620062486,99.344853240136));
#710 = CARTESIAN_POINT('',(195.84949088234,90.32012347291));
#711 = CARTESIAN_POINT('',(195.89643475472,81.293994690997));
#712 = CARTESIAN_POINT('',(195.97731035819,63.236437613673));
#713 = CARTESIAN_POINT('',(196.01123781145,54.20500833462));
#714 = CARTESIAN_POINT('',(196.03848154758,45.172725293971));
#715 = CARTESIAN_POINT('',(196.07943650773,27.10547547855));
#716 = CARTESIAN_POINT('',(196.09314547917,18.070508278425));
#717 = CARTESIAN_POINT('',(196.1,9.035254081039));
#718 = CARTESIAN_POINT('',(196.1,-7.105427357601E-15));
#719 = ( GEOMETRIC_REPRESENTATION_CONTEXT(2) 
PARAMETRIC_REPRESENTATION_CONTEXT() REPRESENTATION_CONTEXT('2D SPACE',''
  ) );
#720 = PCURVE('',#721,#738);
#721 = B_SPLINE_SURFACE_WITH_KNOTS('',7,1,(
    (#722,#723)
    ,(#724,#725)
    ,(#726,#727)
    ,(#728,#729)
    ,(#730,#731)
    ,(#732,#733)
    ,(#734,#735)
    ,(#736,#737
    )),.UNSPECIFIED.,.F.,.F.,.F.,(8,8),(2,2),(150.,300.),(0.,1.),
  .PIECEWISE_BEZIER_KNOTS.);
#722 = CARTESIAN_POINT('',(65.,0.,3.));
#723 = CARTESIAN_POINT('',(203.,0.,23.));
#724 = CARTESIAN_POINT('',(65.,5.909147144157,3.));
#725 = CARTESIAN_POINT('',(203.,21.428571428571,23.));
#726 = CARTESIAN_POINT('',(64.373266232398,11.818294265597,3.));
#727 = CARTESIAN_POINT('',(203.,42.857142857143,23.));
#728 = CARTESIAN_POINT('',(63.119799262445,17.647674663538,3.));
#729 = CARTESIAN_POINT('',(203.,64.285714285714,23.));
#730 = CARTESIAN_POINT('',(61.252287298471,23.31752089453,3.));
#731 = CARTESIAN_POINT('',(203.,85.714285714286,23.));
#732 = CARTESIAN_POINT('',(58.796116536407,28.750759381496,3.));
#733 = CARTESIAN_POINT('',(203.,107.14285714285,23.));
#734 = CARTESIAN_POINT('',(55.78848654625,33.875696138236,3.));
#735 = CARTESIAN_POINT('',(203.,128.57142857142,23.));
#736 = CARTESIAN_POINT('',(52.276800601073,38.628177784044,3.));
#737 = CARTESIAN_POINT('',(203.,150.,23.));
#738 = DEFINITIONAL_REPRESENTATION('',(#739),#754);
#739 = B_SPLINE_CURVE_WITH_KNOTS('',4,(#740,#741,#742,#743,#744,#745,
    #746,#747,#748,#749,#750,#751,#752,#753),.UNSPECIFIED.,.F.,.F.,(5,3,
    3,3,5),(0.,0.249854153967,0.499832269964,0.749894773648,1.),
  .UNSPECIFIED.);
#740 = CARTESIAN_POINT('',(300.,0.95));
#741 = CARTESIAN_POINT('',(290.62220563469,0.95));
#742 = CARTESIAN_POINT('',(281.24642426751,0.95));
#743 = CARTESIAN_POINT('',(271.87243599462,0.95));
#744 = CARTESIAN_POINT('',(253.12291398787,0.95));
#745 = CARTESIAN_POINT('',(243.74738198318,0.95));
#746 = CARTESIAN_POINT('',(234.37316278911,0.95));
#747 = CARTESIAN_POINT('',(215.62367301581,0.95));
#748 = CARTESIAN_POINT('',(206.24840334631,0.95));
#749 = CARTESIAN_POINT('',(196.8739343119,0.95));
#750 = CARTESIAN_POINT('',(178.12446417058,0.95));
#751 = CARTESIAN_POINT('',(168.74946344739,0.95));
#752 = CARTESIAN_POINT('',(159.37473177427,0.95));
#753 = CARTESIAN_POINT('',(150.,0.95));
#754 = ( GEOMETRIC_REPRESENTATION_CONTEXT(2) 
PARAMETRIC_REPRESENTATION_CONTEXT() REPRESENTATION_CONTEXT('2D SPACE',''
  ) );
#755 = ORIENTED_EDGE('',*,*,#756,.T.);
#756 = EDGE_CURVE('',#684,#757,#759,.T.);
#757 = VERTEX_POINT('',#758);
#758 = CARTESIAN_POINT('',(195.46384003005,-144.4314088892,22.));
#759 = SURFACE_CURVE('',#760,(#775,#793),.PCURVE_S1.);
#760 = B_SPLINE_CURVE_WITH_KNOTS('',4,(#761,#762,#763,#764,#765,#766,
    #767,#768,#769,#770,#771,#772,#773,#774),.UNSPECIFIED.,.F.,.F.,(5,3,
    3,3,5),(0.,0.250105226352,0.500167730036,0.750145846033,1.),
  .UNSPECIFIED.);
#761 = CARTESIAN_POINT('',(196.1,0.,22.));
#762 = CARTESIAN_POINT('',(196.1,-9.035254081037,22.));
#763 = CARTESIAN_POINT('',(196.09314547917,-18.07050827842,22.));
#764 = CARTESIAN_POINT('',(196.07943650773,-27.10547547854,22.));
#765 = CARTESIAN_POINT('',(196.03848154758,-45.17272529396,22.));
#766 = CARTESIAN_POINT('',(196.01123781145,-54.20500833461,22.));
#767 = CARTESIAN_POINT('',(195.97731035819,-63.23643761367,22.));
#768 = CARTESIAN_POINT('',(195.89643475472,-81.29399469099,22.));
#769 = CARTESIAN_POINT('',(195.84949088234,-90.3201234729,22.));
#770 = CARTESIAN_POINT('',(195.79620062486,-99.34485324013,22.));
#771 = CARTESIAN_POINT('',(195.67744689672,-117.3865280146,22.));
#772 = CARTESIAN_POINT('',(195.61198929721,-126.403474874,22.));
#773 = CARTESIAN_POINT('',(195.54068105694,-135.418512719,22.));
#774 = CARTESIAN_POINT('',(195.46384003005,-144.4314088892,22.));
#775 = PCURVE('',#100,#776);
#776 = DEFINITIONAL_REPRESENTATION('',(#777),#792);
#777 = B_SPLINE_CURVE_WITH_KNOTS('',4,(#778,#779,#780,#781,#782,#783,
    #784,#785,#786,#787,#788,#789,#790,#791),.UNSPECIFIED.,.F.,.F.,(5,3,
    3,3,5),(0.,0.250105226352,0.500167730036,0.750145846033,1.),
  .UNSPECIFIED.);
#778 = CARTESIAN_POINT('',(196.1,0.));
#779 = CARTESIAN_POINT('',(196.1,-9.035254081037));
#780 = CARTESIAN_POINT('',(196.09314547917,-18.07050827842));
#781 = CARTESIAN_POINT('',(196.07943650773,-27.10547547854));
#782 = CARTESIAN_POINT('',(196.03848154758,-45.17272529396));
#783 = CARTESIAN_POINT('',(196.01123781145,-54.20500833461));
#784 = CARTESIAN_POINT('',(195.97731035819,-63.23643761367));
#785 = CARTESIAN_POINT('',(195.89643475472,-81.29399469099));
#786 = CARTESIAN_POINT('',(195.84949088234,-90.3201234729));
#787 = CARTESIAN_POINT('',(195.79620062486,-99.34485324013));
#788 = CARTESIAN_POINT('',(195.67744689672,-117.3865280146));
#789 = CARTESIAN_POINT('',(195.61198929721,-126.403474874));
#790 = CARTESIAN_POINT('',(195.54068105694,-135.418512719));
#791 = CARTESIAN_POINT('',(195.46384003005,-144.4314088892));
#792 = ( GEOMETRIC_REPRESENTATION_CONTEXT(2) 
PARAMETRIC_REPRESENTATION_CONTEXT() REPRESENTATION_CONTEXT('2D SPACE',''
  ) );
#793 = PCURVE('',#794,#811);
#794 = B_SPLINE_SURFACE_WITH_KNOTS('',7,1,(
    (#795,#796)
    ,(#797,#798)
    ,(#799,#800)
    ,(#801,#802)
    ,(#803,#804)
    ,(#805,#806)
    ,(#807,#808)
    ,(#809,#810
    )),.UNSPECIFIED.,.F.,.F.,.F.,(8,8),(2,2),(0.,150.),(0.,1.),
  .PIECEWISE_BEZIER_KNOTS.);
#795 = CARTESIAN_POINT('',(52.276800601073,-38.62817778404,3.));
#796 = CARTESIAN_POINT('',(203.,-150.,23.));
#797 = CARTESIAN_POINT('',(55.78848654625,-33.87569613823,3.));
#798 = CARTESIAN_POINT('',(203.,-128.5714285714,23.));
#799 = CARTESIAN_POINT('',(58.796116536407,-28.75075938149,3.));
#800 = CARTESIAN_POINT('',(203.,-107.1428571428,23.));
#801 = CARTESIAN_POINT('',(61.252287298471,-23.31752089453,3.));
#802 = CARTESIAN_POINT('',(203.,-85.71428571428,23.));
#803 = CARTESIAN_POINT('',(63.119799262444,-17.64767466353,3.));
#804 = CARTESIAN_POINT('',(203.,-64.28571428571,23.));
#805 = CARTESIAN_POINT('',(64.373266232398,-11.81829426559,3.));
#806 = CARTESIAN_POINT('',(203.,-42.85714285714,23.));
#807 = CARTESIAN_POINT('',(65.,-5.909147144157,3.));
#808 = CARTESIAN_POINT('',(203.,-21.42857142857,23.));
#809 = CARTESIAN_POINT('',(65.,-1.42108547152E-14,3.));
#810 = CARTESIAN_POINT('',(203.,0.,23.));
#811 = DEFINITIONAL_REPRESENTATION('',(#812),#827);
#812 = B_SPLINE_CURVE_WITH_KNOTS('',4,(#813,#814,#815,#816,#817,#818,
    #819,#820,#821,#822,#823,#824,#825,#826),.UNSPECIFIED.,.F.,.F.,(5,3,
    3,3,5),(0.,0.250105226352,0.500167730036,0.750145846033,1.),
  .UNSPECIFIED.);
#813 = CARTESIAN_POINT('',(150.,0.95));
#814 = CARTESIAN_POINT('',(140.62526822572,0.95));
#815 = CARTESIAN_POINT('',(131.2505365526,0.95));
#816 = CARTESIAN_POINT('',(121.87553582941,0.95));
#817 = CARTESIAN_POINT('',(103.12606568809,0.95));
#818 = CARTESIAN_POINT('',(93.751596653693,0.95));
#819 = CARTESIAN_POINT('',(84.37632698419,0.95));
#820 = CARTESIAN_POINT('',(65.62683721089,0.95));
#821 = CARTESIAN_POINT('',(56.252618016822,0.95));
#822 = CARTESIAN_POINT('',(46.877086012128,0.95));
#823 = CARTESIAN_POINT('',(28.127564005381,0.95));
#824 = CARTESIAN_POINT('',(18.753575732492,0.95));
#825 = CARTESIAN_POINT('',(9.377794365304,0.95));
#826 = CARTESIAN_POINT('',(0.,0.95));
#827 = ( GEOMETRIC_REPRESENTATION_CONTEXT(2) 
PARAMETRIC_REPRESENTATION_CONTEXT() REPRESENTATION_CONTEXT('2D SPACE',''
  ) );
#828 = ORIENTED_EDGE('',*,*,#829,.T.);
#829 = EDGE_CURVE('',#757,#830,#832,.T.);
#830 = VERTEX_POINT('',#831);
#831 = CARTESIAN_POINT('',(-195.46384003,-144.4314088892,22.));
#832 = SURFACE_CURVE('',#833,(#852,#874),.PCURVE_S1.);
#833 = B_SPLINE_CURVE_WITH_KNOTS('',5,(#834,#835,#836,#837,#838,#839,
    #840,#841,#842,#843,#844,#845,#846,#847,#848,#849,#850,#851),
  .UNSPECIFIED.,.F.,.F.,(6,4,4,4,6),(0.,0.249809501928,0.5,
    0.750190498072,1.),.UNSPECIFIED.);
#834 = CARTESIAN_POINT('',(195.46384003005,-144.4314088892,22.));
#835 = CARTESIAN_POINT('',(175.97487707774,-144.6759477673,22.));
#836 = CARTESIAN_POINT('',(156.47088741732,-144.8991860611,22.));
#837 = CARTESIAN_POINT('',(136.95363079536,-145.0967387895,22.));
#838 = CARTESIAN_POINT('',(117.42540329632,-145.2650426234,22.));
#839 = CARTESIAN_POINT('',(78.322400595863,-145.5385404677,22.));
#840 = CARTESIAN_POINT('',(58.747598573763,-145.6436379068,22.));
#841 = CARTESIAN_POINT('',(39.166999720856,-145.7145478049,22.));
#842 = CARTESIAN_POINT('',(19.58349945514,-145.7499999986,22.));
#843 = CARTESIAN_POINT('',(-19.58349945514,-145.7499999986,22.));
#844 = CARTESIAN_POINT('',(-39.16699972085,-145.7145478049,22.));
#845 = CARTESIAN_POINT('',(-58.74759857377,-145.6436379068,22.));
#846 = CARTESIAN_POINT('',(-78.32240059586,-145.5385404677,22.));
#847 = CARTESIAN_POINT('',(-117.4254032963,-145.2650426234,22.));
#848 = CARTESIAN_POINT('',(-136.9536307953,-145.0967387895,22.));
#849 = CARTESIAN_POINT('',(-156.4708874173,-144.8991860611,22.));
#850 = CARTESIAN_POINT('',(-175.9748770777,-144.6759477673,22.));
#851 = CARTESIAN_POINT('',(-195.46384003,-144.4314088892,22.));
#852 = PCURVE('',#100,#853);
#853 = DEFINITIONAL_REPRESENTATION('',(#854),#873);
#854 = B_SPLINE_CURVE_WITH_KNOTS('',5,(#855,#856,#857,#858,#859,#860,
    #861,#862,#863,#864,#865,#866,#867,#868,#869,#870,#871,#872),
  .UNSPECIFIED.,.F.,.F.,(6,4,4,4,6),(0.,0.249809501928,0.5,
    0.750190498072,1.),.UNSPECIFIED.);
#855 = CARTESIAN_POINT('',(195.46384003005,-144.4314088892));
#856 = CARTESIAN_POINT('',(175.97487707774,-144.6759477673));
#857 = CARTESIAN_POINT('',(156.47088741732,-144.8991860611));
#858 = CARTESIAN_POINT('',(136.95363079536,-145.0967387895));
#859 = CARTESIAN_POINT('',(117.42540329632,-145.2650426234));
#860 = CARTESIAN_POINT('',(78.322400595863,-145.5385404677));
#861 = CARTESIAN_POINT('',(58.747598573763,-145.6436379068));
#862 = CARTESIAN_POINT('',(39.166999720856,-145.7145478049));
#863 = CARTESIAN_POINT('',(19.58349945514,-145.7499999986));
#864 = CARTESIAN_POINT('',(-19.58349945514,-145.7499999986));
#865 = CARTESIAN_POINT('',(-39.16699972085,-145.7145478049));
#866 = CARTESIAN_POINT('',(-58.74759857377,-145.6436379068));
#867 = CARTESIAN_POINT('',(-78.32240059586,-145.5385404677));
#868 = CARTESIAN_POINT('',(-117.4254032963,-145.2650426234));
#869 = CARTESIAN_POINT('',(-136.9536307953,-145.0967387895));
#870 = CARTESIAN_POINT('',(-156.4708874173,-144.8991860611));
#871 = CARTESIAN_POINT('',(-175.9748770777,-144.6759477673));
#872 = CARTESIAN_POINT('',(-195.46384003,-144.4314088892));
#873 = ( GEOMETRIC_REPRESENTATION_CONTEXT(2) 
PARAMETRIC_REPRESENTATION_CONTEXT() REPRESENTATION_CONTEXT('2D SPACE',''
  ) );
#874 = PCURVE('',#875,#896);
#875 = B_SPLINE_SURFACE_WITH_KNOTS('',9,1,(
    (#876,#877)
    ,(#878,#879)
    ,(#880,#881)
    ,(#882,#883)
    ,(#884,#885)
    ,(#886,#887)
    ,(#888,#889)
    ,(#890,#891)
    ,(#892,#893)
    ,(#894,#895
    )),.UNSPECIFIED.,.F.,.F.,.F.,(10,10),(2,2),(0.,406.),(0.,1.),
  .PIECEWISE_BEZIER_KNOTS.);
#876 = CARTESIAN_POINT('',(-52.27680060107,-38.62817778404,3.));
#877 = CARTESIAN_POINT('',(-203.,-150.,23.));
#878 = CARTESIAN_POINT('',(-44.25564545491,-49.48347441517,3.));
#879 = CARTESIAN_POINT('',(-157.8888888888,-150.,23.));
#880 = CARTESIAN_POINT('',(-33.69862081795,-58.46497716156,3.));
#881 = CARTESIAN_POINT('',(-112.7777777777,-150.,23.));
#882 = CARTESIAN_POINT('',(-21.10598987589,-64.8956503039,2.999999999999
    ));
#883 = CARTESIAN_POINT('',(-67.66666666666,-150.,23.));
#884 = CARTESIAN_POINT('',(-7.188897837341,-68.2543392228,3.000000000001
    ));
#885 = CARTESIAN_POINT('',(-22.55555555555,-150.,23.));
#886 = CARTESIAN_POINT('',(7.18889783734,-68.25433922277,2.999999999999)
  );
#887 = CARTESIAN_POINT('',(22.555555555556,-150.,23.));
#888 = CARTESIAN_POINT('',(21.105989875896,-64.89565030392,3.));
#889 = CARTESIAN_POINT('',(67.666666666667,-150.,23.));
#890 = CARTESIAN_POINT('',(33.698620817955,-58.46497716155,3.));
#891 = CARTESIAN_POINT('',(112.77777777777,-150.,23.));
#892 = CARTESIAN_POINT('',(44.255645454914,-49.48347441517,3.));
#893 = CARTESIAN_POINT('',(157.88888888888,-150.,23.));
#894 = CARTESIAN_POINT('',(52.276800601073,-38.62817778404,3.));
#895 = CARTESIAN_POINT('',(203.,-150.,23.));
#896 = DEFINITIONAL_REPRESENTATION('',(#897),#916);
#897 = B_SPLINE_CURVE_WITH_KNOTS('',5,(#898,#899,#900,#901,#902,#903,
    #904,#905,#906,#907,#908,#909,#910,#911,#912,#913,#914,#915),
  .UNSPECIFIED.,.F.,.F.,(6,4,4,4,6),(0.,0.249809501928,0.5,
    0.750190498072,1.),.UNSPECIFIED.);
#898 = CARTESIAN_POINT('',(406.,0.95));
#899 = CARTESIAN_POINT('',(385.67550610531,0.95));
#900 = CARTESIAN_POINT('',(365.36516420937,0.95));
#901 = CARTESIAN_POINT('',(345.06729365938,0.95));
#902 = CARTESIAN_POINT('',(324.77971868935,0.95));
#903 = CARTESIAN_POINT('',(284.18935176409,0.95));
#904 = CARTESIAN_POINT('',(263.88658278614,0.95));
#905 = CARTESIAN_POINT('',(243.58924543556,0.95));
#906 = CARTESIAN_POINT('',(223.29462236694,0.95));
#907 = CARTESIAN_POINT('',(182.70537763304,0.95));
#908 = CARTESIAN_POINT('',(162.41075456443,0.95));
#909 = CARTESIAN_POINT('',(142.11341721384,0.95));
#910 = CARTESIAN_POINT('',(121.8106482359,0.95));
#911 = CARTESIAN_POINT('',(81.220281310638,0.95));
#912 = CARTESIAN_POINT('',(60.93270634061,0.95));
#913 = CARTESIAN_POINT('',(40.634835790617,0.95));
#914 = CARTESIAN_POINT('',(20.32449389468,0.95));
#915 = CARTESIAN_POINT('',(0.,0.95));
#916 = ( GEOMETRIC_REPRESENTATION_CONTEXT(2) 
PARAMETRIC_REPRESENTATION_CONTEXT() REPRESENTATION_CONTEXT('2D SPACE',''
  ) );
#917 = ORIENTED_EDGE('',*,*,#918,.T.);
#918 = EDGE_CURVE('',#830,#593,#919,.T.);
#919 = SURFACE_CURVE('',#920,(#939,#961),.PCURVE_S1.);
#920 = B_SPLINE_CURVE_WITH_KNOTS('',5,(#921,#922,#923,#924,#925,#926,
    #927,#928,#929,#930,#931,#932,#933,#934,#935,#936,#937,#938),
  .UNSPECIFIED.,.F.,.F.,(6,4,4,4,6),(0.,0.249916135029,0.5,
    0.750083864971,1.),.UNSPECIFIED.);
#921 = CARTESIAN_POINT('',(-195.46384003,-144.4314088892,22.));
#922 = CARTESIAN_POINT('',(-195.5868161719,-130.0071977243,22.));
#923 = CARTESIAN_POINT('',(-195.6965068689,-115.5778441719,22.));
#924 = CARTESIAN_POINT('',(-195.7918957436,-101.1440914811,22.));
#925 = CARTESIAN_POINT('',(-195.8721922079,-86.7067663411,22.));
#926 = CARTESIAN_POINT('',(-196.0015826618,-57.81702203892,22.));
#927 = CARTESIAN_POINT('',(-196.0506556776,-43.36459905762,22.));
#928 = CARTESIAN_POINT('',(-196.0835520796,-28.91034369866,22.));
#929 = CARTESIAN_POINT('',(-196.0999999999,-14.45517179508,22.));
#930 = CARTESIAN_POINT('',(-196.0999999999,14.455171795089,22.));
#931 = CARTESIAN_POINT('',(-196.0835520796,28.910343698681,22.));
#932 = CARTESIAN_POINT('',(-196.0506556776,43.364599057627,22.));
#933 = CARTESIAN_POINT('',(-196.0015826618,57.817022038933,22.));
#934 = CARTESIAN_POINT('',(-195.8721922079,86.70676634111,22.));
#935 = CARTESIAN_POINT('',(-195.7918957436,101.14409148117,22.));
#936 = CARTESIAN_POINT('',(-195.6965068689,115.57784417197,22.));
#937 = CARTESIAN_POINT('',(-195.5868161719,130.00719772431,22.));
#938 = CARTESIAN_POINT('',(-195.46384003,144.4314088892,22.));
#939 = PCURVE('',#100,#940);
#940 = DEFINITIONAL_REPRESENTATION('',(#941),#960);
#941 = B_SPLINE_CURVE_WITH_KNOTS('',5,(#942,#943,#944,#945,#946,#947,
    #948,#949,#950,#951,#952,#953,#954,#955,#956,#957,#958,#959),
  .UNSPECIFIED.,.F.,.F.,(6,4,4,4,6),(0.,0.249916135029,0.5,
    0.750083864971,1.),.UNSPECIFIED.);
#942 = CARTESIAN_POINT('',(-195.46384003,-144.4314088892));
#943 = CARTESIAN_POINT('',(-195.5868161719,-130.0071977243));
#944 = CARTESIAN_POINT('',(-195.6965068689,-115.5778441719));
#945 = CARTESIAN_POINT('',(-195.7918957436,-101.1440914811));
#946 = CARTESIAN_POINT('',(-195.8721922079,-86.7067663411));
#947 = CARTESIAN_POINT('',(-196.0015826618,-57.81702203892));
#948 = CARTESIAN_POINT('',(-196.0506556776,-43.36459905762));
#949 = CARTESIAN_POINT('',(-196.0835520796,-28.91034369866));
#950 = CARTESIAN_POINT('',(-196.0999999999,-14.45517179508));
#951 = CARTESIAN_POINT('',(-196.0999999999,14.455171795089));
#952 = CARTESIAN_POINT('',(-196.0835520796,28.910343698681));
#953 = CARTESIAN_POINT('',(-196.0506556776,43.364599057627));
#954 = CARTESIAN_POINT('',(-196.0015826618,57.817022038933));
#955 = CARTESIAN_POINT('',(-195.8721922079,86.70676634111));
#956 = CARTESIAN_POINT('',(-195.7918957436,101.14409148117));
#957 = CARTESIAN_POINT('',(-195.6965068689,115.57784417197));
#958 = CARTESIAN_POINT('',(-195.5868161719,130.00719772431));
#959 = CARTESIAN_POINT('',(-195.46384003,144.4314088892));
#960 = ( GEOMETRIC_REPRESENTATION_CONTEXT(2) 
PARAMETRIC_REPRESENTATION_CONTEXT() REPRESENTATION_CONTEXT('2D SPACE',''
  ) );
#961 = PCURVE('',#962,#981);
#962 = B_SPLINE_SURFACE_WITH_KNOTS('',8,1,(
    (#963,#964)
    ,(#965,#966)
    ,(#967,#968)
    ,(#969,#970)
    ,(#971,#972)
    ,(#973,#974)
    ,(#975,#976)
    ,(#977,#978)
    ,(#979,#980
    )),.UNSPECIFIED.,.F.,.F.,.F.,(9,9),(2,2),(0.,300.),(0.,1.),
  .PIECEWISE_BEZIER_KNOTS.);
#963 = CARTESIAN_POINT('',(-52.27680060107,38.628177784044,3.));
#964 = CARTESIAN_POINT('',(-203.,150.,23.));
#965 = CARTESIAN_POINT('',(-58.42225100513,30.311334903881,3.));
#966 = CARTESIAN_POINT('',(-203.,112.5,23.));
#967 = CARTESIAN_POINT('',(-63.05553380576,20.877125957504,3.));
#968 = CARTESIAN_POINT('',(-203.,75.,23.));
#969 = CARTESIAN_POINT('',(-65.93962949368,10.64632333405,3.));
#970 = CARTESIAN_POINT('',(-203.,37.5,23.));
#971 = CARTESIAN_POINT('',(-66.91917123067,-2.48689957516E-13,3.));
#972 = CARTESIAN_POINT('',(-203.,-8.881784197001E-16,23.));
#973 = CARTESIAN_POINT('',(-65.93962949368,-10.64632333405,3.));
#974 = CARTESIAN_POINT('',(-203.,-37.5,23.));
#975 = CARTESIAN_POINT('',(-63.05553380576,-20.8771259575,3.));
#976 = CARTESIAN_POINT('',(-203.,-75.,23.));
#977 = CARTESIAN_POINT('',(-58.42225100513,-30.31133490388,3.));
#978 = CARTESIAN_POINT('',(-203.,-112.5,23.));
#979 = CARTESIAN_POINT('',(-52.27680060107,-38.62817778404,3.));
#980 = CARTESIAN_POINT('',(-203.,-150.,23.));
#981 = DEFINITIONAL_REPRESENTATION('',(#982),#1001);
#982 = B_SPLINE_CURVE_WITH_KNOTS('',5,(#983,#984,#985,#986,#987,#988,
    #989,#990,#991,#992,#993,#994,#995,#996,#997,#998,#999,#1000),
  .UNSPECIFIED.,.F.,.F.,(6,4,4,4,6),(0.,0.249916135029,0.5,
    0.750083864971,1.),.UNSPECIFIED.);
#983 = CARTESIAN_POINT('',(300.,0.95));
#984 = CARTESIAN_POINT('',(284.99180689169,0.95));
#985 = CARTESIAN_POINT('',(269.98844706396,0.95));
#986 = CARTESIAN_POINT('',(254.98921838971,0.95));
#987 = CARTESIAN_POINT('',(239.99334198816,0.95));
#988 = CARTESIAN_POINT('',(209.99659530665,0.95));
#989 = CARTESIAN_POINT('',(194.9957282518,0.95));
#990 = CARTESIAN_POINT('',(179.99657952897,0.95));
#991 = CARTESIAN_POINT('',(164.99828971303,0.95));
#992 = CARTESIAN_POINT('',(135.00171028695,0.95));
#993 = CARTESIAN_POINT('',(120.003420471,0.95));
#994 = CARTESIAN_POINT('',(105.00427174819,0.95));
#995 = CARTESIAN_POINT('',(90.003404693335,0.95));
#996 = CARTESIAN_POINT('',(60.006658011822,0.95));
#997 = CARTESIAN_POINT('',(45.010781610283,0.95));
#998 = CARTESIAN_POINT('',(30.011552936026,0.95));
#999 = CARTESIAN_POINT('',(15.008193108307,0.95));
#1000 = CARTESIAN_POINT('',(0.,0.95));
#1001 = ( GEOMETRIC_REPRESENTATION_CONTEXT(2) 
PARAMETRIC_REPRESENTATION_CONTEXT() REPRESENTATION_CONTEXT('2D SPACE',''
  ) );
#1002 = ADVANCED_FACE('',(#1003),#296,.F.);
#1003 = FACE_BOUND('',#1004,.F.);
#1004 = EDGE_LOOP('',(#1005,#1006,#1027,#1028));
#1005 = ORIENTED_EDGE('',*,*,#280,.F.);
#1006 = ORIENTED_EDGE('',*,*,#1007,.T.);
#1007 = EDGE_CURVE('',#252,#545,#1008,.T.);
#1008 = SURFACE_CURVE('',#1009,(#1013,#1020),.PCURVE_S1.);
#1009 = LINE('',#1010,#1011);
#1010 = CARTESIAN_POINT('',(-206.,145.,0.));
#1011 = VECTOR('',#1012,1.);
#1012 = DIRECTION('',(0.,0.,1.));
#1013 = PCURVE('',#296,#1014);
#1014 = DEFINITIONAL_REPRESENTATION('',(#1015),#1019);
#1015 = LINE('',#1016,#1017);
#1016 = CARTESIAN_POINT('',(8.,0.));
#1017 = VECTOR('',#1018,1.);
#1018 = DIRECTION('',(0.,-1.));
#1019 = ( GEOMETRIC_REPRESENTATION_CONTEXT(2) 
PARAMETRIC_REPRESENTATION_CONTEXT() REPRESENTATION_CONTEXT('2D SPACE',''
  ) );
#1020 = PCURVE('',#268,#1021);
#1021 = DEFINITIONAL_REPRESENTATION('',(#1022),#1026);
#1022 = LINE('',#1023,#1024);
#1023 = CARTESIAN_POINT('',(1.570796326795,0.));
#1024 = VECTOR('',#1025,1.);
#1025 = DIRECTION('',(0.,1.));
#1026 = ( GEOMETRIC_REPRESENTATION_CONTEXT(2) 
PARAMETRIC_REPRESENTATION_CONTEXT() REPRESENTATION_CONTEXT('2D SPACE',''
  ) );
#1027 = ORIENTED_EDGE('',*,*,#568,.T.);
#1028 = ORIENTED_EDGE('',*,*,#369,.F.);
#1029 = ADVANCED_FACE('',(#1030),#182,.F.);
#1030 = FACE_BOUND('',#1031,.F.);
#1031 = EDGE_LOOP('',(#1032,#1033,#1034,#1035));
#1032 = ORIENTED_EDGE('',*,*,#166,.F.);
#1033 = ORIENTED_EDGE('',*,*,#423,.T.);
#1034 = ORIENTED_EDGE('',*,*,#474,.T.);
#1035 = ORIENTED_EDGE('',*,*,#1036,.F.);
#1036 = EDGE_CURVE('',#167,#475,#1037,.T.);
#1037 = SURFACE_CURVE('',#1038,(#1042,#1049),.PCURVE_S1.);
#1038 = LINE('',#1039,#1040);
#1039 = CARTESIAN_POINT('',(206.,145.,0.));
#1040 = VECTOR('',#1041,1.);
#1041 = DIRECTION('',(0.,0.,1.));
#1042 = PCURVE('',#182,#1043);
#1043 = DEFINITIONAL_REPRESENTATION('',(#1044),#1048);
#1044 = LINE('',#1045,#1046);
#1045 = CARTESIAN_POINT('',(298.,0.));
#1046 = VECTOR('',#1047,1.);
#1047 = DIRECTION('',(0.,-1.));
#1048 = ( GEOMETRIC_REPRESENTATION_CONTEXT(2) 
PARAMETRIC_REPRESENTATION_CONTEXT() REPRESENTATION_CONTEXT('2D SPACE',''
  ) );
#1049 = PCURVE('',#211,#1050);
#1050 = DEFINITIONAL_REPRESENTATION('',(#1051),#1055);
#1051 = LINE('',#1052,#1053);
#1052 = CARTESIAN_POINT('',(0.,0.));
#1053 = VECTOR('',#1054,1.);
#1054 = DIRECTION('',(0.,1.));
#1055 = ( GEOMETRIC_REPRESENTATION_CONTEXT(2) 
PARAMETRIC_REPRESENTATION_CONTEXT() REPRESENTATION_CONTEXT('2D SPACE',''
  ) );
#1056 = ADVANCED_FACE('',(#1057),#268,.T.);
#1057 = FACE_BOUND('',#1058,.T.);
#1058 = EDGE_LOOP('',(#1059,#1060,#1061,#1062));
#1059 = ORIENTED_EDGE('',*,*,#251,.T.);
#1060 = ORIENTED_EDGE('',*,*,#1007,.T.);
#1061 = ORIENTED_EDGE('',*,*,#544,.F.);
#1062 = ORIENTED_EDGE('',*,*,#1063,.F.);
#1063 = EDGE_CURVE('',#224,#522,#1064,.T.);
#1064 = SURFACE_CURVE('',#1065,(#1069,#1076),.PCURVE_S1.);
#1065 = LINE('',#1066,#1067);
#1066 = CARTESIAN_POINT('',(-198.,153.,0.));
#1067 = VECTOR('',#1068,1.);
#1068 = DIRECTION('',(0.,0.,1.));
#1069 = PCURVE('',#268,#1070);
#1070 = DEFINITIONAL_REPRESENTATION('',(#1071),#1075);
#1071 = LINE('',#1072,#1073);
#1072 = CARTESIAN_POINT('',(0.,0.));
#1073 = VECTOR('',#1074,1.);
#1074 = DIRECTION('',(0.,1.));
#1075 = ( GEOMETRIC_REPRESENTATION_CONTEXT(2) 
PARAMETRIC_REPRESENTATION_CONTEXT() REPRESENTATION_CONTEXT('2D SPACE',''
  ) );
#1076 = PCURVE('',#239,#1077);
#1077 = DEFINITIONAL_REPRESENTATION('',(#1078),#1082);
#1078 = LINE('',#1079,#1080);
#1079 = CARTESIAN_POINT('',(404.,0.));
#1080 = VECTOR('',#1081,1.);
#1081 = DIRECTION('',(0.,-1.));
#1082 = ( GEOMETRIC_REPRESENTATION_CONTEXT(2) 
PARAMETRIC_REPRESENTATION_CONTEXT() REPRESENTATION_CONTEXT('2D SPACE',''
  ) );
#1083 = ADVANCED_FACE('',(#1084),#211,.T.);
#1084 = FACE_BOUND('',#1085,.T.);
#1085 = EDGE_LOOP('',(#1086,#1087,#1108,#1109));
#1086 = ORIENTED_EDGE('',*,*,#194,.T.);
#1087 = ORIENTED_EDGE('',*,*,#1088,.T.);
#1088 = EDGE_CURVE('',#195,#498,#1089,.T.);
#1089 = SURFACE_CURVE('',#1090,(#1094,#1101),.PCURVE_S1.);
#1090 = LINE('',#1091,#1092);
#1091 = CARTESIAN_POINT('',(198.,153.,0.));
#1092 = VECTOR('',#1093,1.);
#1093 = DIRECTION('',(0.,0.,1.));
#1094 = PCURVE('',#211,#1095);
#1095 = DEFINITIONAL_REPRESENTATION('',(#1096),#1100);
#1096 = LINE('',#1097,#1098);
#1097 = CARTESIAN_POINT('',(1.570796326795,0.));
#1098 = VECTOR('',#1099,1.);
#1099 = DIRECTION('',(0.,1.));
#1100 = ( GEOMETRIC_REPRESENTATION_CONTEXT(2) 
PARAMETRIC_REPRESENTATION_CONTEXT() REPRESENTATION_CONTEXT('2D SPACE',''
  ) );
#1101 = PCURVE('',#239,#1102);
#1102 = DEFINITIONAL_REPRESENTATION('',(#1103),#1107);
#1103 = LINE('',#1104,#1105);
#1104 = CARTESIAN_POINT('',(8.,0.));
#1105 = VECTOR('',#1106,1.);
#1106 = DIRECTION('',(0.,-1.));
#1107 = ( GEOMETRIC_REPRESENTATION_CONTEXT(2) 
PARAMETRIC_REPRESENTATION_CONTEXT() REPRESENTATION_CONTEXT('2D SPACE',''
  ) );
#1108 = ORIENTED_EDGE('',*,*,#497,.F.);
#1109 = ORIENTED_EDGE('',*,*,#1036,.F.);
#1110 = ADVANCED_FACE('',(#1111),#239,.F.);
#1111 = FACE_BOUND('',#1112,.F.);
#1112 = EDGE_LOOP('',(#1113,#1114,#1115,#1116));
#1113 = ORIENTED_EDGE('',*,*,#223,.F.);
#1114 = ORIENTED_EDGE('',*,*,#1088,.T.);
#1115 = ORIENTED_EDGE('',*,*,#521,.T.);
#1116 = ORIENTED_EDGE('',*,*,#1063,.F.);
#1117 = ADVANCED_FACE('',(#1118),#353,.F.);
#1118 = FACE_BOUND('',#1119,.T.);
#1119 = EDGE_LOOP('',(#1120,#1121,#1144,#1175));
#1120 = ORIENTED_EDGE('',*,*,#336,.F.);
#1121 = ORIENTED_EDGE('',*,*,#1122,.T.);
#1122 = EDGE_CURVE('',#337,#1123,#1125,.T.);
#1123 = VERTEX_POINT('',#1124);
#1124 = CARTESIAN_POINT('',(46.,0.,3.));
#1125 = SEAM_CURVE('',#1126,(#1130,#1137),.PCURVE_S1.);
#1126 = LINE('',#1127,#1128);
#1127 = CARTESIAN_POINT('',(46.,0.,0.));
#1128 = VECTOR('',#1129,1.);
#1129 = DIRECTION('',(0.,0.,1.));
#1130 = PCURVE('',#353,#1131);
#1131 = DEFINITIONAL_REPRESENTATION('',(#1132),#1136);
#1132 = LINE('',#1133,#1134);
#1133 = CARTESIAN_POINT('',(-6.28318530718,0.));
#1134 = VECTOR('',#1135,1.);
#1135 = DIRECTION('',(-0.,-1.));
#1136 = ( GEOMETRIC_REPRESENTATION_CONTEXT(2) 
PARAMETRIC_REPRESENTATION_CONTEXT() REPRESENTATION_CONTEXT('2D SPACE',''
  ) );
#1137 = PCURVE('',#353,#1138);
#1138 = DEFINITIONAL_REPRESENTATION('',(#1139),#1143);
#1139 = LINE('',#1140,#1141);
#1140 = CARTESIAN_POINT('',(-0.,0.));
#1141 = VECTOR('',#1142,1.);
#1142 = DIRECTION('',(-0.,-1.));
#1143 = ( GEOMETRIC_REPRESENTATION_CONTEXT(2) 
PARAMETRIC_REPRESENTATION_CONTEXT() REPRESENTATION_CONTEXT('2D SPACE',''
  ) );
#1144 = ORIENTED_EDGE('',*,*,#1145,.F.);
#1145 = EDGE_CURVE('',#1123,#1123,#1146,.T.);
#1146 = SURFACE_CURVE('',#1147,(#1152,#1159),.PCURVE_S1.);
#1147 = CIRCLE('',#1148,46.);
#1148 = AXIS2_PLACEMENT_3D('',#1149,#1150,#1151);
#1149 = CARTESIAN_POINT('',(0.,0.,3.));
#1150 = DIRECTION('',(0.,0.,-1.));
#1151 = DIRECTION('',(1.,0.,0.));
#1152 = PCURVE('',#353,#1153);
#1153 = DEFINITIONAL_REPRESENTATION('',(#1154),#1158);
#1154 = LINE('',#1155,#1156);
#1155 = CARTESIAN_POINT('',(-6.28318530718,-3.));
#1156 = VECTOR('',#1157,1.);
#1157 = DIRECTION('',(1.,-0.));
#1158 = ( GEOMETRIC_REPRESENTATION_CONTEXT(2) 
PARAMETRIC_REPRESENTATION_CONTEXT() REPRESENTATION_CONTEXT('2D SPACE',''
  ) );
#1159 = PCURVE('',#1160,#1165);
#1160 = PLANE('',#1161);
#1161 = AXIS2_PLACEMENT_3D('',#1162,#1163,#1164);
#1162 = CARTESIAN_POINT('',(0.,0.,3.));
#1163 = DIRECTION('',(0.,0.,1.));
#1164 = DIRECTION('',(1.,0.,0.));
#1165 = DEFINITIONAL_REPRESENTATION('',(#1166),#1174);
#1166 = ( BOUNDED_CURVE() B_SPLINE_CURVE(2,(#1167,#1168,#1169,#1170,
#1171,#1172,#1173),.UNSPECIFIED.,.T.,.F.) B_SPLINE_CURVE_WITH_KNOTS((1,2
    ,2,2,2,1),(-2.094395102393,0.,2.094395102393,4.188790204786,
6.28318530718,8.377580409573),.UNSPECIFIED.) CURVE() 
GEOMETRIC_REPRESENTATION_ITEM() RATIONAL_B_SPLINE_CURVE((1.,0.5,1.,0.5,
1.,0.5,1.)) REPRESENTATION_ITEM('') );
#1167 = CARTESIAN_POINT('',(46.,0.));
#1168 = CARTESIAN_POINT('',(46.,-79.67433714816));
#1169 = CARTESIAN_POINT('',(-23.,-39.83716857408));
#1170 = CARTESIAN_POINT('',(-92.,-1.126675055216E-14));
#1171 = CARTESIAN_POINT('',(-23.,39.837168574084));
#1172 = CARTESIAN_POINT('',(46.,79.674337148168));
#1173 = CARTESIAN_POINT('',(46.,0.));
#1174 = ( GEOMETRIC_REPRESENTATION_CONTEXT(2) 
PARAMETRIC_REPRESENTATION_CONTEXT() REPRESENTATION_CONTEXT('2D SPACE',''
  ) );
#1175 = ORIENTED_EDGE('',*,*,#1122,.F.);
#1176 = ADVANCED_FACE('',(#1177),#640,.F.);
#1177 = FACE_BOUND('',#1178,.F.);
#1178 = EDGE_LOOP('',(#1179,#1201,#1224,#1244));
#1179 = ORIENTED_EDGE('',*,*,#1180,.F.);
#1180 = EDGE_CURVE('',#1181,#595,#1183,.T.);
#1181 = VERTEX_POINT('',#1182);
#1182 = CARTESIAN_POINT('',(52.276800601073,38.628177784044,3.));
#1183 = SURFACE_CURVE('',#1184,(#1187,#1194),.PCURVE_S1.);
#1184 = B_SPLINE_CURVE_WITH_KNOTS('',1,(#1185,#1186),.UNSPECIFIED.,.F.,
  .F.,(2,2),(0.,1.),.PIECEWISE_BEZIER_KNOTS.);
#1185 = CARTESIAN_POINT('',(52.276800601073,38.628177784044,3.));
#1186 = CARTESIAN_POINT('',(203.,150.,23.));
#1187 = PCURVE('',#640,#1188);
#1188 = DEFINITIONAL_REPRESENTATION('',(#1189),#1193);
#1189 = LINE('',#1190,#1191);
#1190 = CARTESIAN_POINT('',(0.,0.));
#1191 = VECTOR('',#1192,1.);
#1192 = DIRECTION('',(0.,1.));
#1193 = ( GEOMETRIC_REPRESENTATION_CONTEXT(2) 
PARAMETRIC_REPRESENTATION_CONTEXT() REPRESENTATION_CONTEXT('2D SPACE',''
  ) );
#1194 = PCURVE('',#721,#1195);
#1195 = DEFINITIONAL_REPRESENTATION('',(#1196),#1200);
#1196 = LINE('',#1197,#1198);
#1197 = CARTESIAN_POINT('',(300.,0.));
#1198 = VECTOR('',#1199,1.);
#1199 = DIRECTION('',(0.,1.));
#1200 = ( GEOMETRIC_REPRESENTATION_CONTEXT(2) 
PARAMETRIC_REPRESENTATION_CONTEXT() REPRESENTATION_CONTEXT('2D SPACE',''
  ) );
#1201 = ORIENTED_EDGE('',*,*,#1202,.T.);
#1202 = EDGE_CURVE('',#1181,#1203,#1205,.T.);
#1203 = VERTEX_POINT('',#1204);
#1204 = CARTESIAN_POINT('',(-52.27680060107,38.628177784044,3.));
#1205 = SURFACE_CURVE('',#1206,(#1211,#1217),.PCURVE_S1.);
#1206 = CIRCLE('',#1207,65.);
#1207 = AXIS2_PLACEMENT_3D('',#1208,#1209,#1210);
#1208 = CARTESIAN_POINT('',(0.,0.,3.));
#1209 = DIRECTION('',(0.,0.,1.));
#1210 = DIRECTION('',(1.,0.,0.));
#1211 = PCURVE('',#640,#1212);
#1212 = DEFINITIONAL_REPRESENTATION('',(#1213),#1216);
#1213 = B_SPLINE_CURVE_WITH_KNOTS('',1,(#1214,#1215),.UNSPECIFIED.,.F.,
  .F.,(2,2),(0.636369692448,2.505222961142),.PIECEWISE_BEZIER_KNOTS.);
#1214 = CARTESIAN_POINT('',(0.,0.));
#1215 = CARTESIAN_POINT('',(406.,0.));
#1216 = ( GEOMETRIC_REPRESENTATION_CONTEXT(2) 
PARAMETRIC_REPRESENTATION_CONTEXT() REPRESENTATION_CONTEXT('2D SPACE',''
  ) );
#1217 = PCURVE('',#1160,#1218);
#1218 = DEFINITIONAL_REPRESENTATION('',(#1219),#1223);
#1219 = CIRCLE('',#1220,65.);
#1220 = AXIS2_PLACEMENT_2D('',#1221,#1222);
#1221 = CARTESIAN_POINT('',(0.,0.));
#1222 = DIRECTION('',(1.,0.));
#1223 = ( GEOMETRIC_REPRESENTATION_CONTEXT(2) 
PARAMETRIC_REPRESENTATION_CONTEXT() REPRESENTATION_CONTEXT('2D SPACE',''
  ) );
#1224 = ORIENTED_EDGE('',*,*,#1225,.T.);
#1225 = EDGE_CURVE('',#1203,#593,#1226,.T.);
#1226 = SURFACE_CURVE('',#1227,(#1230,#1237),.PCURVE_S1.);
#1227 = B_SPLINE_CURVE_WITH_KNOTS('',1,(#1228,#1229),.UNSPECIFIED.,.F.,
  .F.,(2,2),(0.,1.),.PIECEWISE_BEZIER_KNOTS.);
#1228 = CARTESIAN_POINT('',(-52.27680060107,38.628177784044,3.));
#1229 = CARTESIAN_POINT('',(-203.,150.,23.));
#1230 = PCURVE('',#640,#1231);
#1231 = DEFINITIONAL_REPRESENTATION('',(#1232),#1236);
#1232 = LINE('',#1233,#1234);
#1233 = CARTESIAN_POINT('',(406.,0.));
#1234 = VECTOR('',#1235,1.);
#1235 = DIRECTION('',(0.,1.));
#1236 = ( GEOMETRIC_REPRESENTATION_CONTEXT(2) 
PARAMETRIC_REPRESENTATION_CONTEXT() REPRESENTATION_CONTEXT('2D SPACE',''
  ) );
#1237 = PCURVE('',#962,#1238);
#1238 = DEFINITIONAL_REPRESENTATION('',(#1239),#1243);
#1239 = LINE('',#1240,#1241);
#1240 = CARTESIAN_POINT('',(0.,0.));
#1241 = VECTOR('',#1242,1.);
#1242 = DIRECTION('',(0.,1.));
#1243 = ( GEOMETRIC_REPRESENTATION_CONTEXT(2) 
PARAMETRIC_REPRESENTATION_CONTEXT() REPRESENTATION_CONTEXT('2D SPACE',''
  ) );
#1244 = ORIENTED_EDGE('',*,*,#592,.T.);
#1245 = ADVANCED_FACE('',(#1246),#962,.F.);
#1246 = FACE_BOUND('',#1247,.F.);
#1247 = EDGE_LOOP('',(#1248,#1249,#1272,#1292));
#1248 = ORIENTED_EDGE('',*,*,#1225,.F.);
#1249 = ORIENTED_EDGE('',*,*,#1250,.T.);
#1250 = EDGE_CURVE('',#1203,#1251,#1253,.T.);
#1251 = VERTEX_POINT('',#1252);
#1252 = CARTESIAN_POINT('',(-52.27680060107,-38.62817778404,3.));
#1253 = SURFACE_CURVE('',#1254,(#1259,#1265),.PCURVE_S1.);
#1254 = CIRCLE('',#1255,65.);
#1255 = AXIS2_PLACEMENT_3D('',#1256,#1257,#1258);
#1256 = CARTESIAN_POINT('',(0.,0.,3.));
#1257 = DIRECTION('',(0.,0.,1.));
#1258 = DIRECTION('',(1.,0.,0.));
#1259 = PCURVE('',#962,#1260);
#1260 = DEFINITIONAL_REPRESENTATION('',(#1261),#1264);
#1261 = B_SPLINE_CURVE_WITH_KNOTS('',1,(#1262,#1263),.UNSPECIFIED.,.F.,
  .F.,(2,2),(2.505222961142,3.777962346037),.PIECEWISE_BEZIER_KNOTS.);
#1262 = CARTESIAN_POINT('',(0.,0.));
#1263 = CARTESIAN_POINT('',(300.,0.));
#1264 = ( GEOMETRIC_REPRESENTATION_CONTEXT(2) 
PARAMETRIC_REPRESENTATION_CONTEXT() REPRESENTATION_CONTEXT('2D SPACE',''
  ) );
#1265 = PCURVE('',#1160,#1266);
#1266 = DEFINITIONAL_REPRESENTATION('',(#1267),#1271);
#1267 = CIRCLE('',#1268,65.);
#1268 = AXIS2_PLACEMENT_2D('',#1269,#1270);
#1269 = CARTESIAN_POINT('',(0.,0.));
#1270 = DIRECTION('',(1.,0.));
#1271 = ( GEOMETRIC_REPRESENTATION_CONTEXT(2) 
PARAMETRIC_REPRESENTATION_CONTEXT() REPRESENTATION_CONTEXT('2D SPACE',''
  ) );
#1272 = ORIENTED_EDGE('',*,*,#1273,.T.);
#1273 = EDGE_CURVE('',#1251,#830,#1274,.T.);
#1274 = SURFACE_CURVE('',#1275,(#1278,#1285),.PCURVE_S1.);
#1275 = B_SPLINE_CURVE_WITH_KNOTS('',1,(#1276,#1277),.UNSPECIFIED.,.F.,
  .F.,(2,2),(0.,1.),.PIECEWISE_BEZIER_KNOTS.);
#1276 = CARTESIAN_POINT('',(-52.27680060107,-38.62817778404,3.));
#1277 = CARTESIAN_POINT('',(-203.,-150.,23.));
#1278 = PCURVE('',#962,#1279);
#1279 = DEFINITIONAL_REPRESENTATION('',(#1280),#1284);
#1280 = LINE('',#1281,#1282);
#1281 = CARTESIAN_POINT('',(300.,0.));
#1282 = VECTOR('',#1283,1.);
#1283 = DIRECTION('',(0.,1.));
#1284 = ( GEOMETRIC_REPRESENTATION_CONTEXT(2) 
PARAMETRIC_REPRESENTATION_CONTEXT() REPRESENTATION_CONTEXT('2D SPACE',''
  ) );
#1285 = PCURVE('',#875,#1286);
#1286 = DEFINITIONAL_REPRESENTATION('',(#1287),#1291);
#1287 = LINE('',#1288,#1289);
#1288 = CARTESIAN_POINT('',(0.,0.));
#1289 = VECTOR('',#1290,1.);
#1290 = DIRECTION('',(0.,1.));
#1291 = ( GEOMETRIC_REPRESENTATION_CONTEXT(2) 
PARAMETRIC_REPRESENTATION_CONTEXT() REPRESENTATION_CONTEXT('2D SPACE',''
  ) );
#1292 = ORIENTED_EDGE('',*,*,#918,.T.);
#1293 = ADVANCED_FACE('',(#1294),#875,.F.);
#1294 = FACE_BOUND('',#1295,.F.);
#1295 = EDGE_LOOP('',(#1296,#1297,#1320,#1340));
#1296 = ORIENTED_EDGE('',*,*,#1273,.F.);
#1297 = ORIENTED_EDGE('',*,*,#1298,.T.);
#1298 = EDGE_CURVE('',#1251,#1299,#1301,.T.);
#1299 = VERTEX_POINT('',#1300);
#1300 = CARTESIAN_POINT('',(52.276800601073,-38.62817778404,3.));
#1301 = SURFACE_CURVE('',#1302,(#1307,#1313),.PCURVE_S1.);
#1302 = CIRCLE('',#1303,65.);
#1303 = AXIS2_PLACEMENT_3D('',#1304,#1305,#1306);
#1304 = CARTESIAN_POINT('',(0.,0.,3.));
#1305 = DIRECTION('',(0.,0.,1.));
#1306 = DIRECTION('',(1.,0.,0.));
#1307 = PCURVE('',#875,#1308);
#1308 = DEFINITIONAL_REPRESENTATION('',(#1309),#1312);
#1309 = B_SPLINE_CURVE_WITH_KNOTS('',1,(#1310,#1311),.UNSPECIFIED.,.F.,
  .F.,(2,2),(3.777962346037,5.646815614732),.PIECEWISE_BEZIER_KNOTS.);
#1310 = CARTESIAN_POINT('',(0.,0.));
#1311 = CARTESIAN_POINT('',(406.,0.));
#1312 = ( GEOMETRIC_REPRESENTATION_CONTEXT(2) 
PARAMETRIC_REPRESENTATION_CONTEXT() REPRESENTATION_CONTEXT('2D SPACE',''
  ) );
#1313 = PCURVE('',#1160,#1314);
#1314 = DEFINITIONAL_REPRESENTATION('',(#1315),#1319);
#1315 = CIRCLE('',#1316,65.);
#1316 = AXIS2_PLACEMENT_2D('',#1317,#1318);
#1317 = CARTESIAN_POINT('',(0.,0.));
#1318 = DIRECTION('',(1.,0.));
#1319 = ( GEOMETRIC_REPRESENTATION_CONTEXT(2) 
PARAMETRIC_REPRESENTATION_CONTEXT() REPRESENTATION_CONTEXT('2D SPACE',''
  ) );
#1320 = ORIENTED_EDGE('',*,*,#1321,.T.);
#1321 = EDGE_CURVE('',#1299,#757,#1322,.T.);
#1322 = SURFACE_CURVE('',#1323,(#1326,#1333),.PCURVE_S1.);
#1323 = B_SPLINE_CURVE_WITH_KNOTS('',1,(#1324,#1325),.UNSPECIFIED.,.F.,
  .F.,(2,2),(0.,1.),.PIECEWISE_BEZIER_KNOTS.);
#1324 = CARTESIAN_POINT('',(52.276800601073,-38.62817778404,3.));
#1325 = CARTESIAN_POINT('',(203.,-150.,23.));
#1326 = PCURVE('',#875,#1327);
#1327 = DEFINITIONAL_REPRESENTATION('',(#1328),#1332);
#1328 = LINE('',#1329,#1330);
#1329 = CARTESIAN_POINT('',(406.,0.));
#1330 = VECTOR('',#1331,1.);
#1331 = DIRECTION('',(0.,1.));
#1332 = ( GEOMETRIC_REPRESENTATION_CONTEXT(2) 
PARAMETRIC_REPRESENTATION_CONTEXT() REPRESENTATION_CONTEXT('2D SPACE',''
  ) );
#1333 = PCURVE('',#794,#1334);
#1334 = DEFINITIONAL_REPRESENTATION('',(#1335),#1339);
#1335 = LINE('',#1336,#1337);
#1336 = CARTESIAN_POINT('',(0.,0.));
#1337 = VECTOR('',#1338,1.);
#1338 = DIRECTION('',(0.,1.));
#1339 = ( GEOMETRIC_REPRESENTATION_CONTEXT(2) 
PARAMETRIC_REPRESENTATION_CONTEXT() REPRESENTATION_CONTEXT('2D SPACE',''
  ) );
#1340 = ORIENTED_EDGE('',*,*,#829,.T.);
#1341 = ADVANCED_FACE('',(#1342),#794,.F.);
#1342 = FACE_BOUND('',#1343,.F.);
#1343 = EDGE_LOOP('',(#1344,#1345,#1368,#1388));
#1344 = ORIENTED_EDGE('',*,*,#1321,.F.);
#1345 = ORIENTED_EDGE('',*,*,#1346,.T.);
#1346 = EDGE_CURVE('',#1299,#1347,#1349,.T.);
#1347 = VERTEX_POINT('',#1348);
#1348 = CARTESIAN_POINT('',(65.,0.,3.));
#1349 = SURFACE_CURVE('',#1350,(#1355,#1361),.PCURVE_S1.);
#1350 = CIRCLE('',#1351,65.);
#1351 = AXIS2_PLACEMENT_3D('',#1352,#1353,#1354);
#1352 = CARTESIAN_POINT('',(0.,0.,3.));
#1353 = DIRECTION('',(0.,0.,1.));
#1354 = DIRECTION('',(1.,0.,0.));
#1355 = PCURVE('',#794,#1356);
#1356 = DEFINITIONAL_REPRESENTATION('',(#1357),#1360);
#1357 = B_SPLINE_CURVE_WITH_KNOTS('',1,(#1358,#1359),.UNSPECIFIED.,.F.,
  .F.,(2,2),(5.646815614732,6.28318530718),.PIECEWISE_BEZIER_KNOTS.);
#1358 = CARTESIAN_POINT('',(0.,0.));
#1359 = CARTESIAN_POINT('',(150.,0.));
#1360 = ( GEOMETRIC_REPRESENTATION_CONTEXT(2) 
PARAMETRIC_REPRESENTATION_CONTEXT() REPRESENTATION_CONTEXT('2D SPACE',''
  ) );
#1361 = PCURVE('',#1160,#1362);
#1362 = DEFINITIONAL_REPRESENTATION('',(#1363),#1367);
#1363 = CIRCLE('',#1364,65.);
#1364 = AXIS2_PLACEMENT_2D('',#1365,#1366);
#1365 = CARTESIAN_POINT('',(0.,0.));
#1366 = DIRECTION('',(1.,0.));
#1367 = ( GEOMETRIC_REPRESENTATION_CONTEXT(2) 
PARAMETRIC_REPRESENTATION_CONTEXT() REPRESENTATION_CONTEXT('2D SPACE',''
  ) );
#1368 = ORIENTED_EDGE('',*,*,#1369,.T.);
#1369 = EDGE_CURVE('',#1347,#684,#1370,.T.);
#1370 = SURFACE_CURVE('',#1371,(#1374,#1381),.PCURVE_S1.);
#1371 = B_SPLINE_CURVE_WITH_KNOTS('',1,(#1372,#1373),.UNSPECIFIED.,.F.,
  .F.,(2,2),(0.,1.),.PIECEWISE_BEZIER_KNOTS.);
#1372 = CARTESIAN_POINT('',(65.,0.,3.));
#1373 = CARTESIAN_POINT('',(203.,0.,23.));
#1374 = PCURVE('',#794,#1375);
#1375 = DEFINITIONAL_REPRESENTATION('',(#1376),#1380);
#1376 = LINE('',#1377,#1378);
#1377 = CARTESIAN_POINT('',(150.,0.));
#1378 = VECTOR('',#1379,1.);
#1379 = DIRECTION('',(0.,1.));
#1380 = ( GEOMETRIC_REPRESENTATION_CONTEXT(2) 
PARAMETRIC_REPRESENTATION_CONTEXT() REPRESENTATION_CONTEXT('2D SPACE',''
  ) );
#1381 = PCURVE('',#721,#1382);
#1382 = DEFINITIONAL_REPRESENTATION('',(#1383),#1387);
#1383 = LINE('',#1384,#1385);
#1384 = CARTESIAN_POINT('',(150.,0.));
#1385 = VECTOR('',#1386,1.);
#1386 = DIRECTION('',(0.,1.));
#1387 = ( GEOMETRIC_REPRESENTATION_CONTEXT(2) 
PARAMETRIC_REPRESENTATION_CONTEXT() REPRESENTATION_CONTEXT('2D SPACE',''
  ) );
#1388 = ORIENTED_EDGE('',*,*,#756,.T.);
#1389 = ADVANCED_FACE('',(#1390),#721,.F.);
#1390 = FACE_BOUND('',#1391,.F.);
#1391 = EDGE_LOOP('',(#1392,#1393,#1414,#1415));
#1392 = ORIENTED_EDGE('',*,*,#1369,.F.);
#1393 = ORIENTED_EDGE('',*,*,#1394,.T.);
#1394 = EDGE_CURVE('',#1347,#1181,#1395,.T.);
#1395 = SURFACE_CURVE('',#1396,(#1401,#1407),.PCURVE_S1.);
#1396 = CIRCLE('',#1397,65.);
#1397 = AXIS2_PLACEMENT_3D('',#1398,#1399,#1400);
#1398 = CARTESIAN_POINT('',(0.,0.,3.));
#1399 = DIRECTION('',(0.,0.,1.));
#1400 = DIRECTION('',(1.,0.,0.));
#1401 = PCURVE('',#721,#1402);
#1402 = DEFINITIONAL_REPRESENTATION('',(#1403),#1406);
#1403 = B_SPLINE_CURVE_WITH_KNOTS('',1,(#1404,#1405),.UNSPECIFIED.,.F.,
  .F.,(2,2),(0.,0.636369692448),.PIECEWISE_BEZIER_KNOTS.);
#1404 = CARTESIAN_POINT('',(150.,0.));
#1405 = CARTESIAN_POINT('',(300.,0.));
#1406 = ( GEOMETRIC_REPRESENTATION_CONTEXT(2) 
PARAMETRIC_REPRESENTATION_CONTEXT() REPRESENTATION_CONTEXT('2D SPACE',''
  ) );
#1407 = PCURVE('',#1160,#1408);
#1408 = DEFINITIONAL_REPRESENTATION('',(#1409),#1413);
#1409 = CIRCLE('',#1410,65.);
#1410 = AXIS2_PLACEMENT_2D('',#1411,#1412);
#1411 = CARTESIAN_POINT('',(0.,0.));
#1412 = DIRECTION('',(1.,0.));
#1413 = ( GEOMETRIC_REPRESENTATION_CONTEXT(2) 
PARAMETRIC_REPRESENTATION_CONTEXT() REPRESENTATION_CONTEXT('2D SPACE',''
  ) );
#1414 = ORIENTED_EDGE('',*,*,#1180,.T.);
#1415 = ORIENTED_EDGE('',*,*,#683,.T.);
#1416 = ADVANCED_FACE('',(#1417,#1424),#1160,.T.);
#1417 = FACE_BOUND('',#1418,.T.);
#1418 = EDGE_LOOP('',(#1419,#1420,#1421,#1422,#1423));
#1419 = ORIENTED_EDGE('',*,*,#1394,.T.);
#1420 = ORIENTED_EDGE('',*,*,#1202,.T.);
#1421 = ORIENTED_EDGE('',*,*,#1250,.T.);
#1422 = ORIENTED_EDGE('',*,*,#1298,.T.);
#1423 = ORIENTED_EDGE('',*,*,#1346,.T.);
#1424 = FACE_BOUND('',#1425,.T.);
#1425 = EDGE_LOOP('',(#1426));
#1426 = ORIENTED_EDGE('',*,*,#1145,.T.);
#1427 = ( GEOMETRIC_REPRESENTATION_CONTEXT(3) 
GLOBAL_UNCERTAINTY_ASSIGNED_CONTEXT((#1431)) 
GLOBAL_UNIT_ASSIGNED_CONTEXT((#1428,#1429,#1430)) REPRESENTATION_CONTEXT
('Context #1','3D Context with UNIT and UNCERTAINTY') );
#1428 = ( LENGTH_UNIT() NAMED_UNIT(*) SI_UNIT(.MILLI.,.METRE.) );
#1429 = ( NAMED_UNIT(*) PLANE_ANGLE_UNIT() SI_UNIT($,.RADIAN.) );
#1430 = ( NAMED_UNIT(*) SI_UNIT($,.STERADIAN.) SOLID_ANGLE_UNIT() );
#1431 = UNCERTAINTY_MEASURE_WITH_UNIT(LENGTH_MEASURE(1.E-06),#1428,
  'distance_accuracy_value','confusion accuracy');
#1432 = PRODUCT_RELATED_PRODUCT_CATEGORY('part',$,(#7));
ENDSEC;
END-ISO-10303-21;
