ISO-10303-21;
HEADER;
FILE_DESCRIPTION(('Open CASCADE Model'),'2;1');
FILE_NAME('Open CASCADE Shape Model','2026-05-12T00:26:46',('Author'),(
    'Open CASCADE'),'Open CASCADE STEP processor 7.8','Open CASCADE 7.8'
  ,'Unknown');
FILE_SCHEMA(('AUTOMOTIVE_DESIGN { 1 0 10303 214 1 1 1 1 }'));
ENDSEC;
DATA;
#1 = APPLICATION_PROTOCOL_DEFINITION('international standard',
  'automotive_design',2000,#2);
#2 = APPLICATION_CONTEXT(
  'core data for automotive mechanical design processes');
#3 = SHAPE_DEFINITION_REPRESENTATION(#4,#10);
#4 = PRODUCT_DEFINITION_SHAPE('','',#5);
#5 = PRODUCT_DEFINITION('design','',#6,#9);
#6 = PRODUCT_DEFINITION_FORMATION('','',#7);
#7 = PRODUCT('Open CASCADE STEP translator 7.8 2',
  'Open CASCADE STEP translator 7.8 2','',(#8));
#8 = PRODUCT_CONTEXT('',#2,'mechanical');
#9 = PRODUCT_DEFINITION_CONTEXT('part definition',#2,'design');
#10 = ADVANCED_BREP_SHAPE_REPRESENTATION('',(#11,#15),#693);
#11 = AXIS2_PLACEMENT_3D('',#12,#13,#14);
#12 = CARTESIAN_POINT('',(0.,0.,0.));
#13 = DIRECTION('',(0.,0.,1.));
#14 = DIRECTION('',(1.,0.,-0.));
#15 = MANIFOLD_SOLID_BREP('',#16);
#16 = CLOSED_SHELL('',(#17,#162,#420,#475,#602,#627,#653,#686));
#17 = ADVANCED_FACE('',(#18),#33,.T.);
#18 = FACE_BOUND('',#19,.T.);
#19 = EDGE_LOOP('',(#20,#67,#110,#138));
#20 = ORIENTED_EDGE('',*,*,#21,.T.);
#21 = EDGE_CURVE('',#22,#24,#26,.T.);
#22 = VERTEX_POINT('',#23);
#23 = CARTESIAN_POINT('',(65.,0.,0.));
#24 = VERTEX_POINT('',#25);
#25 = CARTESIAN_POINT('',(52.181814429521,38.756396153965,0.));
#26 = SURFACE_CURVE('',#27,(#32,#55),.PCURVE_S1.);
#27 = CIRCLE('',#28,65.);
#28 = AXIS2_PLACEMENT_3D('',#29,#30,#31);
#29 = CARTESIAN_POINT('',(0.,0.,0.));
#30 = DIRECTION('',(0.,0.,1.));
#31 = DIRECTION('',(1.,0.,0.));
#32 = PCURVE('',#33,#50);
#33 = B_SPLINE_SURFACE_WITH_KNOTS('',7,1,(
    (#34,#35)
    ,(#36,#37)
    ,(#38,#39)
    ,(#40,#41)
    ,(#42,#43)
    ,(#44,#45)
    ,(#46,#47)
    ,(#48,#49
    )),.UNSPECIFIED.,.F.,.F.,.F.,(8,8),(2,2),(153.,306.),(0.,1.),
  .PIECEWISE_BEZIER_KNOTS.);
#34 = CARTESIAN_POINT('',(65.,0.,0.));
#35 = CARTESIAN_POINT('',(206.,0.,50.));
#36 = CARTESIAN_POINT('',(65.,5.931942747008,0.));
#37 = CARTESIAN_POINT('',(206.,21.857142857143,50.));
#38 = CARTESIAN_POINT('',(64.368421426267,11.863885470502,0.));
#39 = CARTESIAN_POINT('',(206.,43.714285714286,50.));
#40 = CARTESIAN_POINT('',(63.10526486153,17.71513476441,0.));
#41 = CARTESIAN_POINT('',(206.,65.571428571429,50.));
#42 = CARTESIAN_POINT('',(61.223415405855,23.404996453907,0.));
#43 = CARTESIAN_POINT('',(206.,87.428571428571,50.));
#44 = CARTESIAN_POINT('',(58.748653341641,28.855522624106,0.));
#45 = CARTESIAN_POINT('',(206.,109.28571428571,50.));
#46 = CARTESIAN_POINT('',(55.718748630532,33.99424945195,0.));
#47 = CARTESIAN_POINT('',(206.,131.14285714285,50.));
#48 = CARTESIAN_POINT('',(52.181814429521,38.756396153965,0.));
#49 = CARTESIAN_POINT('',(206.,153.,50.));
#50 = DEFINITIONAL_REPRESENTATION('',(#51),#54);
#51 = B_SPLINE_CURVE_WITH_KNOTS('',1,(#52,#53),.UNSPECIFIED.,.F.,.F.,(2,
    2),(0.,0.638824603524),.PIECEWISE_BEZIER_KNOTS.);
#52 = CARTESIAN_POINT('',(153.,0.));
#53 = CARTESIAN_POINT('',(306.,0.));
#54 = ( GEOMETRIC_REPRESENTATION_CONTEXT(2) 
PARAMETRIC_REPRESENTATION_CONTEXT() REPRESENTATION_CONTEXT('2D SPACE',''
  ) );
#55 = PCURVE('',#56,#61);
#56 = PLANE('',#57);
#57 = AXIS2_PLACEMENT_3D('',#58,#59,#60);
#58 = CARTESIAN_POINT('',(0.,0.,0.));
#59 = DIRECTION('',(0.,0.,1.));
#60 = DIRECTION('',(1.,0.,0.));
#61 = DEFINITIONAL_REPRESENTATION('',(#62),#66);
#62 = CIRCLE('',#63,65.);
#63 = AXIS2_PLACEMENT_2D('',#64,#65);
#64 = CARTESIAN_POINT('',(0.,0.));
#65 = DIRECTION('',(1.,0.));
#66 = ( GEOMETRIC_REPRESENTATION_CONTEXT(2) 
PARAMETRIC_REPRESENTATION_CONTEXT() REPRESENTATION_CONTEXT('2D SPACE',''
  ) );
#67 = ORIENTED_EDGE('',*,*,#68,.T.);
#68 = EDGE_CURVE('',#24,#69,#71,.T.);
#69 = VERTEX_POINT('',#70);
#70 = CARTESIAN_POINT('',(206.,153.,50.));
#71 = SURFACE_CURVE('',#72,(#75,#82),.PCURVE_S1.);
#72 = B_SPLINE_CURVE_WITH_KNOTS('',1,(#73,#74),.UNSPECIFIED.,.F.,.F.,(2,
    2),(0.,1.),.PIECEWISE_BEZIER_KNOTS.);
#73 = CARTESIAN_POINT('',(52.181814429521,38.756396153965,0.));
#74 = CARTESIAN_POINT('',(206.,153.,50.));
#75 = PCURVE('',#33,#76);
#76 = DEFINITIONAL_REPRESENTATION('',(#77),#81);
#77 = LINE('',#78,#79);
#78 = CARTESIAN_POINT('',(306.,0.));
#79 = VECTOR('',#80,1.);
#80 = DIRECTION('',(0.,1.));
#81 = ( GEOMETRIC_REPRESENTATION_CONTEXT(2) 
PARAMETRIC_REPRESENTATION_CONTEXT() REPRESENTATION_CONTEXT('2D SPACE',''
  ) );
#82 = PCURVE('',#83,#104);
#83 = B_SPLINE_SURFACE_WITH_KNOTS('',9,1,(
    (#84,#85)
    ,(#86,#87)
    ,(#88,#89)
    ,(#90,#91)
    ,(#92,#93)
    ,(#94,#95)
    ,(#96,#97)
    ,(#98,#99)
    ,(#100,#101)
    ,(#102,#103
    )),.UNSPECIFIED.,.F.,.F.,.F.,(10,10),(2,2),(0.,412.),(0.,1.),
  .PIECEWISE_BEZIER_KNOTS.);
#84 = CARTESIAN_POINT('',(52.181814429521,38.756396153965,0.));
#85 = CARTESIAN_POINT('',(206.,153.,50.));
#86 = CARTESIAN_POINT('',(44.155177693659,49.563501824472,0.));
#87 = CARTESIAN_POINT('',(160.22222222222,153.,50.));
#88 = CARTESIAN_POINT('',(33.610561814769,58.500459208913,0.));
#89 = CARTESIAN_POINT('',(114.44444444444,153.,50.));
#90 = CARTESIAN_POINT('',(21.045944966519,64.89677535726,0.));
#91 = CARTESIAN_POINT('',(68.666666666667,153.,50.));
#92 = CARTESIAN_POINT('',(7.167600710476,68.236717611226,0.));
#93 = CARTESIAN_POINT('',(22.888888888889,153.,50.));
#94 = CARTESIAN_POINT('',(-7.167600710476,68.236717611221,0.));
#95 = CARTESIAN_POINT('',(-22.88888888888,153.,50.));
#96 = CARTESIAN_POINT('',(-21.04594496651,64.896775357264,0.));
#97 = CARTESIAN_POINT('',(-68.66666666666,153.,50.));
#98 = CARTESIAN_POINT('',(-33.61056181477,58.500459208912,0.));
#99 = CARTESIAN_POINT('',(-114.4444444444,153.,50.));
#100 = CARTESIAN_POINT('',(-44.15517769365,49.563501824472,0.));
#101 = CARTESIAN_POINT('',(-160.2222222222,153.,50.));
#102 = CARTESIAN_POINT('',(-52.18181442952,38.756396153965,0.));
#103 = CARTESIAN_POINT('',(-206.,153.,50.));
#104 = DEFINITIONAL_REPRESENTATION('',(#105),#109);
#105 = LINE('',#106,#107);
#106 = CARTESIAN_POINT('',(0.,0.));
#107 = VECTOR('',#108,1.);
#108 = DIRECTION('',(0.,1.));
#109 = ( GEOMETRIC_REPRESENTATION_CONTEXT(2) 
PARAMETRIC_REPRESENTATION_CONTEXT() REPRESENTATION_CONTEXT('2D SPACE',''
  ) );
#110 = ORIENTED_EDGE('',*,*,#111,.F.);
#111 = EDGE_CURVE('',#112,#69,#114,.T.);
#112 = VERTEX_POINT('',#113);
#113 = CARTESIAN_POINT('',(206.,0.,50.));
#114 = SURFACE_CURVE('',#115,(#119,#126),.PCURVE_S1.);
#115 = LINE('',#116,#117);
#116 = CARTESIAN_POINT('',(206.,-153.,50.));
#117 = VECTOR('',#118,1.);
#118 = DIRECTION('',(0.,1.,0.));
#119 = PCURVE('',#33,#120);
#120 = DEFINITIONAL_REPRESENTATION('',(#121),#125);
#121 = LINE('',#122,#123);
#122 = CARTESIAN_POINT('',(0.,1.));
#123 = VECTOR('',#124,1.);
#124 = DIRECTION('',(1.,0.));
#125 = ( GEOMETRIC_REPRESENTATION_CONTEXT(2) 
PARAMETRIC_REPRESENTATION_CONTEXT() REPRESENTATION_CONTEXT('2D SPACE',''
  ) );
#126 = PCURVE('',#127,#132);
#127 = PLANE('',#128);
#128 = AXIS2_PLACEMENT_3D('',#129,#130,#131);
#129 = CARTESIAN_POINT('',(206.,0.,50.));
#130 = DIRECTION('',(0.,0.,1.));
#131 = DIRECTION('',(-0.93744648951,0.348129400231,0.));
#132 = DEFINITIONAL_REPRESENTATION('',(#133),#137);
#133 = LINE('',#134,#135);
#134 = CARTESIAN_POINT('',(-53.2637982353,143.42931289506));
#135 = VECTOR('',#136,1.);
#136 = DIRECTION('',(0.348129400231,-0.93744648951));
#137 = ( GEOMETRIC_REPRESENTATION_CONTEXT(2) 
PARAMETRIC_REPRESENTATION_CONTEXT() REPRESENTATION_CONTEXT('2D SPACE',''
  ) );
#138 = ORIENTED_EDGE('',*,*,#139,.F.);
#139 = EDGE_CURVE('',#22,#112,#140,.T.);
#140 = SURFACE_CURVE('',#141,(#144,#151),.PCURVE_S1.);
#141 = B_SPLINE_CURVE_WITH_KNOTS('',1,(#142,#143),.UNSPECIFIED.,.F.,.F.,
  (2,2),(0.,1.),.PIECEWISE_BEZIER_KNOTS.);
#142 = CARTESIAN_POINT('',(65.,0.,0.));
#143 = CARTESIAN_POINT('',(206.,0.,50.));
#144 = PCURVE('',#33,#145);
#145 = DEFINITIONAL_REPRESENTATION('',(#146),#150);
#146 = LINE('',#147,#148);
#147 = CARTESIAN_POINT('',(153.,0.));
#148 = VECTOR('',#149,1.);
#149 = DIRECTION('',(0.,1.));
#150 = ( GEOMETRIC_REPRESENTATION_CONTEXT(2) 
PARAMETRIC_REPRESENTATION_CONTEXT() REPRESENTATION_CONTEXT('2D SPACE',''
  ) );
#151 = PCURVE('',#152,#157);
#152 = PLANE('',#153);
#153 = AXIS2_PLACEMENT_3D('',#154,#155,#156);
#154 = CARTESIAN_POINT('',(0.,0.,-500.));
#155 = DIRECTION('',(0.,1.,0.));
#156 = DIRECTION('',(0.,0.,1.));
#157 = DEFINITIONAL_REPRESENTATION('',(#158),#161);
#158 = B_SPLINE_CURVE_WITH_KNOTS('',1,(#159,#160),.UNSPECIFIED.,.F.,.F.,
  (2,2),(0.,1.),.PIECEWISE_BEZIER_KNOTS.);
#159 = CARTESIAN_POINT('',(500.,65.));
#160 = CARTESIAN_POINT('',(550.,206.));
#161 = ( GEOMETRIC_REPRESENTATION_CONTEXT(2) 
PARAMETRIC_REPRESENTATION_CONTEXT() REPRESENTATION_CONTEXT('2D SPACE',''
  ) );
#162 = ADVANCED_FACE('',(#163),#56,.F.);
#163 = FACE_BOUND('',#164,.F.);
#164 = EDGE_LOOP('',(#165,#186,#187,#210,#236,#337));
#165 = ORIENTED_EDGE('',*,*,#166,.F.);
#166 = EDGE_CURVE('',#22,#167,#169,.T.);
#167 = VERTEX_POINT('',#168);
#168 = CARTESIAN_POINT('',(62.280876494024,3.545636559918E-15,
    -6.938893903907E-17));
#169 = SURFACE_CURVE('',#170,(#174,#180),.PCURVE_S1.);
#170 = LINE('',#171,#172);
#171 = CARTESIAN_POINT('',(0.,0.,0.));
#172 = VECTOR('',#173,1.);
#173 = DIRECTION('',(-1.,0.,0.));
#174 = PCURVE('',#56,#175);
#175 = DEFINITIONAL_REPRESENTATION('',(#176),#179);
#176 = B_SPLINE_CURVE_WITH_KNOTS('',1,(#177,#178),.UNSPECIFIED.,.F.,.F.,
  (2,2),(-65.,0.),.PIECEWISE_BEZIER_KNOTS.);
#177 = CARTESIAN_POINT('',(65.,0.));
#178 = CARTESIAN_POINT('',(0.,0.));
#179 = ( GEOMETRIC_REPRESENTATION_CONTEXT(2) 
PARAMETRIC_REPRESENTATION_CONTEXT() REPRESENTATION_CONTEXT('2D SPACE',''
  ) );
#180 = PCURVE('',#152,#181);
#181 = DEFINITIONAL_REPRESENTATION('',(#182),#185);
#182 = B_SPLINE_CURVE_WITH_KNOTS('',1,(#183,#184),.UNSPECIFIED.,.F.,.F.,
  (2,2),(-65.,0.),.PIECEWISE_BEZIER_KNOTS.);
#183 = CARTESIAN_POINT('',(500.,65.));
#184 = CARTESIAN_POINT('',(500.,0.));
#185 = ( GEOMETRIC_REPRESENTATION_CONTEXT(2) 
PARAMETRIC_REPRESENTATION_CONTEXT() REPRESENTATION_CONTEXT('2D SPACE',''
  ) );
#186 = ORIENTED_EDGE('',*,*,#21,.T.);
#187 = ORIENTED_EDGE('',*,*,#188,.T.);
#188 = EDGE_CURVE('',#24,#189,#191,.T.);
#189 = VERTEX_POINT('',#190);
#190 = CARTESIAN_POINT('',(3.980102097229E-15,65.,0.));
#191 = SURFACE_CURVE('',#192,(#197,#204),.PCURVE_S1.);
#192 = CIRCLE('',#193,65.);
#193 = AXIS2_PLACEMENT_3D('',#194,#195,#196);
#194 = CARTESIAN_POINT('',(0.,0.,0.));
#195 = DIRECTION('',(0.,0.,1.));
#196 = DIRECTION('',(1.,0.,0.));
#197 = PCURVE('',#56,#198);
#198 = DEFINITIONAL_REPRESENTATION('',(#199),#203);
#199 = CIRCLE('',#200,65.);
#200 = AXIS2_PLACEMENT_2D('',#201,#202);
#201 = CARTESIAN_POINT('',(0.,0.));
#202 = DIRECTION('',(1.,0.));
#203 = ( GEOMETRIC_REPRESENTATION_CONTEXT(2) 
PARAMETRIC_REPRESENTATION_CONTEXT() REPRESENTATION_CONTEXT('2D SPACE',''
  ) );
#204 = PCURVE('',#83,#205);
#205 = DEFINITIONAL_REPRESENTATION('',(#206),#209);
#206 = B_SPLINE_CURVE_WITH_KNOTS('',1,(#207,#208),.UNSPECIFIED.,.F.,.F.,
  (2,2),(0.638824603524,2.502768050066),.PIECEWISE_BEZIER_KNOTS.);
#207 = CARTESIAN_POINT('',(0.,0.));
#208 = CARTESIAN_POINT('',(412.,0.));
#209 = ( GEOMETRIC_REPRESENTATION_CONTEXT(2) 
PARAMETRIC_REPRESENTATION_CONTEXT() REPRESENTATION_CONTEXT('2D SPACE',''
  ) );
#210 = ORIENTED_EDGE('',*,*,#211,.F.);
#211 = EDGE_CURVE('',#212,#189,#214,.T.);
#212 = VERTEX_POINT('',#213);
#213 = CARTESIAN_POINT('',(-5.726258164217E-15,62.175298778515,0.));
#214 = SURFACE_CURVE('',#215,(#219,#225),.PCURVE_S1.);
#215 = LINE('',#216,#217);
#216 = CARTESIAN_POINT('',(0.,0.,0.));
#217 = VECTOR('',#218,1.);
#218 = DIRECTION('',(0.,1.,0.));
#219 = PCURVE('',#56,#220);
#220 = DEFINITIONAL_REPRESENTATION('',(#221),#224);
#221 = B_SPLINE_CURVE_WITH_KNOTS('',1,(#222,#223),.UNSPECIFIED.,.F.,.F.,
  (2,2),(0.,65.),.PIECEWISE_BEZIER_KNOTS.);
#222 = CARTESIAN_POINT('',(0.,0.));
#223 = CARTESIAN_POINT('',(0.,65.));
#224 = ( GEOMETRIC_REPRESENTATION_CONTEXT(2) 
PARAMETRIC_REPRESENTATION_CONTEXT() REPRESENTATION_CONTEXT('2D SPACE',''
  ) );
#225 = PCURVE('',#226,#231);
#226 = PLANE('',#227);
#227 = AXIS2_PLACEMENT_3D('',#228,#229,#230);
#228 = CARTESIAN_POINT('',(0.,0.,-500.));
#229 = DIRECTION('',(1.,0.,0.));
#230 = DIRECTION('',(0.,0.,1.));
#231 = DEFINITIONAL_REPRESENTATION('',(#232),#235);
#232 = B_SPLINE_CURVE_WITH_KNOTS('',1,(#233,#234),.UNSPECIFIED.,.F.,.F.,
  (2,2),(0.,65.),.PIECEWISE_BEZIER_KNOTS.);
#233 = CARTESIAN_POINT('',(500.,0.));
#234 = CARTESIAN_POINT('',(500.,-65.));
#235 = ( GEOMETRIC_REPRESENTATION_CONTEXT(2) 
PARAMETRIC_REPRESENTATION_CONTEXT() REPRESENTATION_CONTEXT('2D SPACE',''
  ) );
#236 = ORIENTED_EDGE('',*,*,#237,.T.);
#237 = EDGE_CURVE('',#212,#238,#240,.T.);
#238 = VERTEX_POINT('',#239);
#239 = CARTESIAN_POINT('',(50.169076931367,37.07074650101,
    -6.938893903907E-17));
#240 = SURFACE_CURVE('',#241,(#264,#290),.PCURVE_S1.);
#241 = B_SPLINE_CURVE_WITH_KNOTS('',6,(#242,#243,#244,#245,#246,#247,
    #248,#249,#250,#251,#252,#253,#254,#255,#256,#257,#258,#259,#260,
    #261,#262,#263),.UNSPECIFIED.,.F.,.F.,(7,5,5,5,7),(0.,0.2499864552,
    0.499999999999,0.750013544798,1.),.UNSPECIFIED.);
#242 = CARTESIAN_POINT('',(-50.16907693136,37.07074650101,0.));
#243 = CARTESIAN_POINT('',(-47.27174752124,40.946189823563,0.));
#244 = CARTESIAN_POINT('',(-44.01234449152,44.553908043046,0.));
#245 = CARTESIAN_POINT('',(-40.42221668819,47.851562542816,0.));
#246 = CARTESIAN_POINT('',(-36.53923822502,50.801851227342,0.));
#247 = CARTESIAN_POINT('',(-32.40661121922,53.373819507089,0.));
#248 = CARTESIAN_POINT('',(-23.73564877959,57.714018801565,0.));
#249 = CARTESIAN_POINT('',(-19.19719148919,59.482201699943,0.));
#250 = CARTESIAN_POINT('',(-14.50302384153,60.824650015932,0.));
#251 = CARTESIAN_POINT('',(-9.703741122111,61.725087512542,0.));
#252 = CARTESIAN_POINT('',(-4.851848769728,62.175298778515,0.));
#253 = CARTESIAN_POINT('',(4.851848769743,62.175298778515,0.));
#254 = CARTESIAN_POINT('',(9.703741122081,61.725087512545,0.));
#255 = CARTESIAN_POINT('',(14.503023841573,60.824650015924,0.));
#256 = CARTESIAN_POINT('',(19.19719148917,59.48220169995,0.));
#257 = CARTESIAN_POINT('',(23.735648779599,57.714018801561,0.));
#258 = CARTESIAN_POINT('',(32.406611219228,53.373819507087,0.));
#259 = CARTESIAN_POINT('',(36.539238225024,50.801851227346,0.));
#260 = CARTESIAN_POINT('',(40.422216688197,47.851562542809,0.));
#261 = CARTESIAN_POINT('',(44.012344491517,44.553908043051,0.));
#262 = CARTESIAN_POINT('',(47.27174752125,40.94618982356,0.));
#263 = CARTESIAN_POINT('',(50.169076931367,37.07074650101,0.));
#264 = PCURVE('',#56,#265);
#265 = DEFINITIONAL_REPRESENTATION('',(#266),#289);
#266 = B_SPLINE_CURVE_WITH_KNOTS('',6,(#267,#268,#269,#270,#271,#272,
    #273,#274,#275,#276,#277,#278,#279,#280,#281,#282,#283,#284,#285,
    #286,#287,#288),.UNSPECIFIED.,.F.,.F.,(7,5,5,5,7),(0.,0.2499864552,
    0.499999999999,0.750013544798,1.),.UNSPECIFIED.);
#267 = CARTESIAN_POINT('',(-50.16907693136,37.07074650101));
#268 = CARTESIAN_POINT('',(-47.27174752124,40.946189823563));
#269 = CARTESIAN_POINT('',(-44.01234449152,44.553908043046));
#270 = CARTESIAN_POINT('',(-40.42221668819,47.851562542816));
#271 = CARTESIAN_POINT('',(-36.53923822502,50.801851227342));
#272 = CARTESIAN_POINT('',(-32.40661121922,53.373819507089));
#273 = CARTESIAN_POINT('',(-23.73564877959,57.714018801565));
#274 = CARTESIAN_POINT('',(-19.19719148919,59.482201699943));
#275 = CARTESIAN_POINT('',(-14.50302384153,60.824650015932));
#276 = CARTESIAN_POINT('',(-9.703741122111,61.725087512542));
#277 = CARTESIAN_POINT('',(-4.851848769728,62.175298778515));
#278 = CARTESIAN_POINT('',(4.851848769743,62.175298778515));
#279 = CARTESIAN_POINT('',(9.703741122081,61.725087512545));
#280 = CARTESIAN_POINT('',(14.503023841573,60.824650015924));
#281 = CARTESIAN_POINT('',(19.19719148917,59.48220169995));
#282 = CARTESIAN_POINT('',(23.735648779599,57.714018801561));
#283 = CARTESIAN_POINT('',(32.406611219228,53.373819507087));
#284 = CARTESIAN_POINT('',(36.539238225024,50.801851227346));
#285 = CARTESIAN_POINT('',(40.422216688197,47.851562542809));
#286 = CARTESIAN_POINT('',(44.012344491517,44.553908043051));
#287 = CARTESIAN_POINT('',(47.27174752125,40.94618982356));
#288 = CARTESIAN_POINT('',(50.169076931367,37.07074650101));
#289 = ( GEOMETRIC_REPRESENTATION_CONTEXT(2) 
PARAMETRIC_REPRESENTATION_CONTEXT() REPRESENTATION_CONTEXT('2D SPACE',''
  ) );
#290 = PCURVE('',#291,#312);
#291 = B_SPLINE_SURFACE_WITH_KNOTS('',9,1,(
    (#292,#293)
    ,(#294,#295)
    ,(#296,#297)
    ,(#298,#299)
    ,(#300,#301)
    ,(#302,#303)
    ,(#304,#305)
    ,(#306,#307)
    ,(#308,#309)
    ,(#310,#311
    )),.UNSPECIFIED.,.F.,.F.,.F.,(10,10),(2,2),(0.,406.),(0.,1.),
  .PIECEWISE_BEZIER_KNOTS.);
#292 = CARTESIAN_POINT('',(49.864025188715,36.845338809396,-0.1));
#293 = CARTESIAN_POINT('',(203.,150.,50.1));
#294 = CARTESIAN_POINT('',(42.213077203149,47.199621749862,-1.E-01));
#295 = CARTESIAN_POINT('',(157.88888888888,150.,50.1));
#296 = CARTESIAN_POINT('',(32.143299857127,55.766593600257,-0.1));
#297 = CARTESIAN_POINT('',(112.77777777777,150.,50.1));
#298 = CARTESIAN_POINT('',(20.131867266239,61.900466443736,-1.E-01));
#299 = CARTESIAN_POINT('',(67.666666666667,150.,50.1));
#300 = CARTESIAN_POINT('',(6.85710255254,65.104138950959,-0.1));
#301 = CARTESIAN_POINT('',(22.555555555556,150.,50.1));
#302 = CARTESIAN_POINT('',(-6.85710255254,65.104138950971,-0.1));
#303 = CARTESIAN_POINT('',(-22.55555555555,150.,50.1));
#304 = CARTESIAN_POINT('',(-20.13186726623,61.900466443728,-1.E-01));
#305 = CARTESIAN_POINT('',(-67.66666666666,150.,50.1));
#306 = CARTESIAN_POINT('',(-32.14329985712,55.76659360026,-0.1));
#307 = CARTESIAN_POINT('',(-112.7777777777,150.,50.1));
#308 = CARTESIAN_POINT('',(-42.21307720314,47.199621749861,-1.E-01));
#309 = CARTESIAN_POINT('',(-157.8888888888,150.,50.1));
#310 = CARTESIAN_POINT('',(-49.86402518871,36.845338809396,-0.1));
#311 = CARTESIAN_POINT('',(-203.,150.,50.1));
#312 = DEFINITIONAL_REPRESENTATION('',(#313),#336);
#313 = B_SPLINE_CURVE_WITH_KNOTS('',6,(#314,#315,#316,#317,#318,#319,
    #320,#321,#322,#323,#324,#325,#326,#327,#328,#329,#330,#331,#332,
    #333,#334,#335),.UNSPECIFIED.,.F.,.F.,(7,5,5,5,7),(0.,0.2499864552,
    0.499999999999,0.750013544798,1.),.UNSPECIFIED.);
#314 = CARTESIAN_POINT('',(406.,1.99203187251E-03));
#315 = CARTESIAN_POINT('',(389.08192768751,1.99203187251E-03));
#316 = CARTESIAN_POINT('',(372.16437131769,1.99203187251E-03));
#317 = CARTESIAN_POINT('',(355.24760214871,1.99203187251E-03));
#318 = CARTESIAN_POINT('',(338.33137199464,1.99203187251E-03));
#319 = CARTESIAN_POINT('',(321.41542361657,1.99203187251E-03));
#320 = CARTESIAN_POINT('',(287.58274335597,1.99203187251E-03));
#321 = CARTESIAN_POINT('',(270.66570906561,1.99203187251E-03));
#322 = CARTESIAN_POINT('',(253.74913941037,1.99203187251E-03));
#323 = CARTESIAN_POINT('',(236.83276318471,1.99203187251E-03));
#324 = CARTESIAN_POINT('',(219.91630601649,1.99203187251E-03));
#325 = CARTESIAN_POINT('',(186.08369398345,1.99203187251E-03));
#326 = CARTESIAN_POINT('',(169.1672368154,1.99203187251E-03));
#327 = CARTESIAN_POINT('',(152.25086058947,1.99203187251E-03));
#328 = CARTESIAN_POINT('',(135.33429093446,1.99203187251E-03));
#329 = CARTESIAN_POINT('',(118.41725664399,1.99203187251E-03));
#330 = CARTESIAN_POINT('',(84.584576383405,1.99203187251E-03));
#331 = CARTESIAN_POINT('',(67.668628005394,1.99203187251E-03));
#332 = CARTESIAN_POINT('',(50.752397851226,1.99203187251E-03));
#333 = CARTESIAN_POINT('',(33.835628682341,1.99203187251E-03));
#334 = CARTESIAN_POINT('',(16.918072312473,1.99203187251E-03));
#335 = CARTESIAN_POINT('',(0.,1.99203187251E-03));
#336 = ( GEOMETRIC_REPRESENTATION_CONTEXT(2) 
PARAMETRIC_REPRESENTATION_CONTEXT() REPRESENTATION_CONTEXT('2D SPACE',''
  ) );
#337 = ORIENTED_EDGE('',*,*,#338,.T.);
#338 = EDGE_CURVE('',#238,#167,#339,.T.);
#339 = SURFACE_CURVE('',#340,(#359,#381),.PCURVE_S1.);
#340 = B_SPLINE_CURVE_WITH_KNOTS('',5,(#341,#342,#343,#344,#345,#346,
    #347,#348,#349,#350,#351,#352,#353,#354,#355,#356,#357,#358),
  .UNSPECIFIED.,.F.,.F.,(6,4,4,4,6),(0.,0.249989513878,0.499987939047,
    0.749992432959,1.),.UNSPECIFIED.);
#341 = CARTESIAN_POINT('',(50.169076931367,37.07074650101,0.));
#342 = CARTESIAN_POINT('',(51.339129402056,35.472334932297,0.));
#343 = CARTESIAN_POINT('',(52.446187605908,33.82740401786,0.));
#344 = CARTESIAN_POINT('',(53.487786895259,32.139295098383,0.));
#345 = CARTESIAN_POINT('',(54.461729907995,30.411544018449,0.));
#346 = CARTESIAN_POINT('',(56.270526960554,26.884072183392,0.));
#347 = CARTESIAN_POINT('',(57.105376274554,25.084348408061,0.));
#348 = CARTESIAN_POINT('',(57.868755431503,23.252357213725,0.));
#349 = CARTESIAN_POINT('',(58.559054255941,21.391937428486,0.));
#350 = CARTESIAN_POINT('',(59.790912728494,17.622081977428,0.));
#351 = CARTESIAN_POINT('',(60.332468924938,15.712644634939,0.));
#352 = CARTESIAN_POINT('',(60.798347472384,13.782664269764,0.));
#353 = CARTESIAN_POINT('',(61.1875657945,11.836185993229,0.));
#354 = CARTESIAN_POINT('',(61.811372745154,7.918407553789,0.));
#355 = CARTESIAN_POINT('',(62.045959554248,5.947106579364,0.));
#356 = CARTESIAN_POINT('',(62.202570893406,3.967504996851,0.));
#357 = CARTESIAN_POINT('',(62.280876494024,1.983752371318,0.));
#358 = CARTESIAN_POINT('',(62.280876494024,3.538559441036E-15,0.));
#359 = PCURVE('',#56,#360);
#360 = DEFINITIONAL_REPRESENTATION('',(#361),#380);
#361 = B_SPLINE_CURVE_WITH_KNOTS('',5,(#362,#363,#364,#365,#366,#367,
    #368,#369,#370,#371,#372,#373,#374,#375,#376,#377,#378,#379),
  .UNSPECIFIED.,.F.,.F.,(6,4,4,4,6),(0.,0.249989513878,0.499987939047,
    0.749992432959,1.),.UNSPECIFIED.);
#362 = CARTESIAN_POINT('',(50.169076931367,37.07074650101));
#363 = CARTESIAN_POINT('',(51.339129402056,35.472334932297));
#364 = CARTESIAN_POINT('',(52.446187605908,33.82740401786));
#365 = CARTESIAN_POINT('',(53.487786895259,32.139295098383));
#366 = CARTESIAN_POINT('',(54.461729907995,30.411544018449));
#367 = CARTESIAN_POINT('',(56.270526960554,26.884072183392));
#368 = CARTESIAN_POINT('',(57.105376274554,25.084348408061));
#369 = CARTESIAN_POINT('',(57.868755431503,23.252357213725));
#370 = CARTESIAN_POINT('',(58.559054255941,21.391937428486));
#371 = CARTESIAN_POINT('',(59.790912728494,17.622081977428));
#372 = CARTESIAN_POINT('',(60.332468924938,15.712644634939));
#373 = CARTESIAN_POINT('',(60.798347472384,13.782664269764));
#374 = CARTESIAN_POINT('',(61.1875657945,11.836185993229));
#375 = CARTESIAN_POINT('',(61.811372745154,7.918407553789));
#376 = CARTESIAN_POINT('',(62.045959554248,5.947106579364));
#377 = CARTESIAN_POINT('',(62.202570893406,3.967504996851));
#378 = CARTESIAN_POINT('',(62.280876494024,1.983752371318));
#379 = CARTESIAN_POINT('',(62.280876494024,3.538559441036E-15));
#380 = ( GEOMETRIC_REPRESENTATION_CONTEXT(2) 
PARAMETRIC_REPRESENTATION_CONTEXT() REPRESENTATION_CONTEXT('2D SPACE',''
  ) );
#381 = PCURVE('',#382,#399);
#382 = B_SPLINE_SURFACE_WITH_KNOTS('',7,1,(
    (#383,#384)
    ,(#385,#386)
    ,(#387,#388)
    ,(#389,#390)
    ,(#391,#392)
    ,(#393,#394)
    ,(#395,#396)
    ,(#397,#398
    )),.UNSPECIFIED.,.F.,.F.,.F.,(8,8),(2,2),(150.,300.),(0.,1.),
  .PIECEWISE_BEZIER_KNOTS.);
#383 = CARTESIAN_POINT('',(62.,3.552713678801E-15,-0.1));
#384 = CARTESIAN_POINT('',(203.,0.,50.1));
#385 = CARTESIAN_POINT('',(62.,5.636417275965,-0.1));
#386 = CARTESIAN_POINT('',(203.,21.428571428571,50.1));
#387 = CARTESIAN_POINT('',(61.402192406286,11.272834530261,-1.E-01));
#388 = CARTESIAN_POINT('',(203.,42.857142857143,50.1));
#389 = CARTESIAN_POINT('',(60.206577758025,16.833166602144,-0.1));
#390 = CARTESIAN_POINT('',(203.,64.285714285714,50.1));
#391 = CARTESIAN_POINT('',(58.425258653925,22.241327622475,-1.E-01));
#392 = CARTESIAN_POINT('',(203.,85.714285714286,50.1));
#393 = CARTESIAN_POINT('',(56.082449619343,27.423801256197,-1.E-01));
#394 = CARTESIAN_POINT('',(203.,107.14285714285,50.1));
#395 = CARTESIAN_POINT('',(53.213633321039,32.312202470318,-0.1));
#396 = CARTESIAN_POINT('',(203.,128.57142857142,50.1));
#397 = CARTESIAN_POINT('',(49.864025188715,36.845338809396,-0.1));
#398 = CARTESIAN_POINT('',(203.,150.,50.1));
#399 = DEFINITIONAL_REPRESENTATION('',(#400),#419);
#400 = B_SPLINE_CURVE_WITH_KNOTS('',5,(#401,#402,#403,#404,#405,#406,
    #407,#408,#409,#410,#411,#412,#413,#414,#415,#416,#417,#418),
  .UNSPECIFIED.,.F.,.F.,(6,4,4,4,6),(0.,0.249989513878,0.499987939047,
    0.749992432959,1.),.UNSPECIFIED.);
#401 = CARTESIAN_POINT('',(300.,1.99203187251E-03));
#402 = CARTESIAN_POINT('',(292.49983969266,1.99203187251E-03));
#403 = CARTESIAN_POINT('',(284.99976507947,1.99203187251E-03));
#404 = CARTESIAN_POINT('',(277.49977272602,1.99203187251E-03));
#405 = CARTESIAN_POINT('',(269.99985239315,1.99203187251E-03));
#406 = CARTESIAN_POINT('',(254.99988026216,1.99203187251E-03));
#407 = CARTESIAN_POINT('',(247.49982653917,1.99203187251E-03));
#408 = CARTESIAN_POINT('',(239.99983474718,1.99203187251E-03));
#409 = CARTESIAN_POINT('',(232.49989408615,1.99203187251E-03));
#410 = CARTESIAN_POINT('',(217.49992385296,1.99203187251E-03));
#411 = CARTESIAN_POINT('',(209.99989235381,1.99203187251E-03));
#412 = CARTESIAN_POINT('',(202.49990094439,1.99203187251E-03));
#413 = CARTESIAN_POINT('',(194.99993844185,1.99203187251E-03));
#414 = CARTESIAN_POINT('',(179.99996936672,1.99203187251E-03));
#415 = CARTESIAN_POINT('',(172.49996086611,1.99203187251E-03));
#416 = CARTESIAN_POINT('',(164.99996965085,1.99203187251E-03));
#417 = CARTESIAN_POINT('',(157.49998434291,1.99203187251E-03));
#418 = CARTESIAN_POINT('',(150.,1.99203187251E-03));
#419 = ( GEOMETRIC_REPRESENTATION_CONTEXT(2) 
PARAMETRIC_REPRESENTATION_CONTEXT() REPRESENTATION_CONTEXT('2D SPACE',''
  ) );
#420 = ADVANCED_FACE('',(#421),#83,.T.);
#421 = FACE_BOUND('',#422,.T.);
#422 = EDGE_LOOP('',(#423,#424,#425,#454));
#423 = ORIENTED_EDGE('',*,*,#68,.F.);
#424 = ORIENTED_EDGE('',*,*,#188,.T.);
#425 = ORIENTED_EDGE('',*,*,#426,.T.);
#426 = EDGE_CURVE('',#189,#427,#429,.T.);
#427 = VERTEX_POINT('',#428);
#428 = CARTESIAN_POINT('',(0.,153.,50.));
#429 = SURFACE_CURVE('',#430,(#436,#445),.PCURVE_S1.);
#430 = B_SPLINE_CURVE_WITH_KNOTS('',4,(#431,#432,#433,#434,#435),
  .UNSPECIFIED.,.F.,.F.,(5,5),(0.,1.),.PIECEWISE_BEZIER_KNOTS.);
#431 = CARTESIAN_POINT('',(0.,64.999999973122,0.));
#432 = CARTESIAN_POINT('',(0.,86.999999979842,12.5));
#433 = CARTESIAN_POINT('',(0.,108.99999998656,25.));
#434 = CARTESIAN_POINT('',(0.,130.99999999328,37.5));
#435 = CARTESIAN_POINT('',(0.,153.,50.));
#436 = PCURVE('',#83,#437);
#437 = DEFINITIONAL_REPRESENTATION('',(#438),#444);
#438 = B_SPLINE_CURVE_WITH_KNOTS('',4,(#439,#440,#441,#442,#443),
  .UNSPECIFIED.,.F.,.F.,(5,5),(0.,1.),.PIECEWISE_BEZIER_KNOTS.);
#439 = CARTESIAN_POINT('',(206.,0.));
#440 = CARTESIAN_POINT('',(206.,0.25));
#441 = CARTESIAN_POINT('',(206.,0.5));
#442 = CARTESIAN_POINT('',(206.,0.75));
#443 = CARTESIAN_POINT('',(206.,1.));
#444 = ( GEOMETRIC_REPRESENTATION_CONTEXT(2) 
PARAMETRIC_REPRESENTATION_CONTEXT() REPRESENTATION_CONTEXT('2D SPACE',''
  ) );
#445 = PCURVE('',#226,#446);
#446 = DEFINITIONAL_REPRESENTATION('',(#447),#453);
#447 = B_SPLINE_CURVE_WITH_KNOTS('',4,(#448,#449,#450,#451,#452),
  .UNSPECIFIED.,.F.,.F.,(5,5),(0.,1.),.PIECEWISE_BEZIER_KNOTS.);
#448 = CARTESIAN_POINT('',(500.,-64.99999997312));
#449 = CARTESIAN_POINT('',(512.5,-86.99999997984));
#450 = CARTESIAN_POINT('',(525.,-108.9999999865));
#451 = CARTESIAN_POINT('',(537.5,-130.9999999932));
#452 = CARTESIAN_POINT('',(550.,-153.));
#453 = ( GEOMETRIC_REPRESENTATION_CONTEXT(2) 
PARAMETRIC_REPRESENTATION_CONTEXT() REPRESENTATION_CONTEXT('2D SPACE',''
  ) );
#454 = ORIENTED_EDGE('',*,*,#455,.F.);
#455 = EDGE_CURVE('',#69,#427,#456,.T.);
#456 = SURFACE_CURVE('',#457,(#461,#468),.PCURVE_S1.);
#457 = LINE('',#458,#459);
#458 = CARTESIAN_POINT('',(206.,153.,50.));
#459 = VECTOR('',#460,1.);
#460 = DIRECTION('',(-1.,0.,0.));
#461 = PCURVE('',#83,#462);
#462 = DEFINITIONAL_REPRESENTATION('',(#463),#467);
#463 = LINE('',#464,#465);
#464 = CARTESIAN_POINT('',(0.,1.));
#465 = VECTOR('',#466,1.);
#466 = DIRECTION('',(1.,0.));
#467 = ( GEOMETRIC_REPRESENTATION_CONTEXT(2) 
PARAMETRIC_REPRESENTATION_CONTEXT() REPRESENTATION_CONTEXT('2D SPACE',''
  ) );
#468 = PCURVE('',#127,#469);
#469 = DEFINITIONAL_REPRESENTATION('',(#470),#474);
#470 = LINE('',#471,#472);
#471 = CARTESIAN_POINT('',(53.263798235302,-143.429312895));
#472 = VECTOR('',#473,1.);
#473 = DIRECTION('',(0.93744648951,0.348129400231));
#474 = ( GEOMETRIC_REPRESENTATION_CONTEXT(2) 
PARAMETRIC_REPRESENTATION_CONTEXT() REPRESENTATION_CONTEXT('2D SPACE',''
  ) );
#475 = ADVANCED_FACE('',(#476),#127,.T.);
#476 = FACE_BOUND('',#477,.T.);
#477 = EDGE_LOOP('',(#478,#499,#500,#501,#522,#572));
#478 = ORIENTED_EDGE('',*,*,#479,.F.);
#479 = EDGE_CURVE('',#112,#480,#482,.T.);
#480 = VERTEX_POINT('',#481);
#481 = CARTESIAN_POINT('',(202.71912350597,7.077118882073E-18,50.));
#482 = SURFACE_CURVE('',#483,(#487,#493),.PCURVE_S1.);
#483 = LINE('',#484,#485);
#484 = CARTESIAN_POINT('',(103.,0.,50.));
#485 = VECTOR('',#486,1.);
#486 = DIRECTION('',(-1.,0.,0.));
#487 = PCURVE('',#127,#488);
#488 = DEFINITIONAL_REPRESENTATION('',(#489),#492);
#489 = B_SPLINE_CURVE_WITH_KNOTS('',1,(#490,#491),.UNSPECIFIED.,.F.,.F.,
  (2,2),(-159.817961165,103.),.PIECEWISE_BEZIER_KNOTS.);
#490 = CARTESIAN_POINT('',(-53.2637982353,-19.78000274272));
#491 = CARTESIAN_POINT('',(193.1139768391,71.71465644753));
#492 = ( GEOMETRIC_REPRESENTATION_CONTEXT(2) 
PARAMETRIC_REPRESENTATION_CONTEXT() REPRESENTATION_CONTEXT('2D SPACE',''
  ) );
#493 = PCURVE('',#152,#494);
#494 = DEFINITIONAL_REPRESENTATION('',(#495),#498);
#495 = B_SPLINE_CURVE_WITH_KNOTS('',1,(#496,#497),.UNSPECIFIED.,.F.,.F.,
  (2,2),(-159.817961165,103.),.PIECEWISE_BEZIER_KNOTS.);
#496 = CARTESIAN_POINT('',(550.,262.81796116504));
#497 = CARTESIAN_POINT('',(550.,0.));
#498 = ( GEOMETRIC_REPRESENTATION_CONTEXT(2) 
PARAMETRIC_REPRESENTATION_CONTEXT() REPRESENTATION_CONTEXT('2D SPACE',''
  ) );
#499 = ORIENTED_EDGE('',*,*,#111,.T.);
#500 = ORIENTED_EDGE('',*,*,#455,.T.);
#501 = ORIENTED_EDGE('',*,*,#502,.F.);
#502 = EDGE_CURVE('',#503,#427,#505,.T.);
#503 = VERTEX_POINT('',#504);
#504 = CARTESIAN_POINT('',(4.576170158801E-14,149.82470119516,50.));
#505 = SURFACE_CURVE('',#506,(#510,#516),.PCURVE_S1.);
#506 = LINE('',#507,#508);
#507 = CARTESIAN_POINT('',(0.,0.,50.));
#508 = VECTOR('',#509,1.);
#509 = DIRECTION('',(0.,1.,0.));
#510 = PCURVE('',#127,#511);
#511 = DEFINITIONAL_REPRESENTATION('',(#512),#515);
#512 = B_SPLINE_CURVE_WITH_KNOTS('',1,(#513,#514),.UNSPECIFIED.,.F.,.F.,
  (2,2),(0.,229.5),.PIECEWISE_BEZIER_KNOTS.);
#513 = CARTESIAN_POINT('',(193.1139768391,71.71465644753));
#514 = CARTESIAN_POINT('',(273.00967419205,-143.429312895));
#515 = ( GEOMETRIC_REPRESENTATION_CONTEXT(2) 
PARAMETRIC_REPRESENTATION_CONTEXT() REPRESENTATION_CONTEXT('2D SPACE',''
  ) );
#516 = PCURVE('',#226,#517);
#517 = DEFINITIONAL_REPRESENTATION('',(#518),#521);
#518 = B_SPLINE_CURVE_WITH_KNOTS('',1,(#519,#520),.UNSPECIFIED.,.F.,.F.,
  (2,2),(0.,229.5),.PIECEWISE_BEZIER_KNOTS.);
#519 = CARTESIAN_POINT('',(550.,0.));
#520 = CARTESIAN_POINT('',(550.,-229.5));
#521 = ( GEOMETRIC_REPRESENTATION_CONTEXT(2) 
PARAMETRIC_REPRESENTATION_CONTEXT() REPRESENTATION_CONTEXT('2D SPACE',''
  ) );
#522 = ORIENTED_EDGE('',*,*,#523,.T.);
#523 = EDGE_CURVE('',#503,#524,#526,.T.);
#524 = VERTEX_POINT('',#525);
#525 = CARTESIAN_POINT('',(202.69494825734,149.77459230838,50.));
#526 = SURFACE_CURVE('',#527,(#540,#556),.PCURVE_S1.);
#527 = B_SPLINE_CURVE_WITH_KNOTS('',6,(#528,#529,#530,#531,#532,#533,
    #534,#535,#536,#537,#538,#539),.UNSPECIFIED.,.F.,.F.,(7,5,7),(0.,0.5
    ,1.),.UNSPECIFIED.);
#528 = CARTESIAN_POINT('',(-202.6949482573,149.77459230838,50.));
#529 = CARTESIAN_POINT('',(-168.915024323,149.79006302567,50.));
#530 = CARTESIAN_POINT('',(-135.1336517985,149.80339647936,50.));
#531 = CARTESIAN_POINT('',(-101.3510806463,149.81391794983,50.));
#532 = CARTESIAN_POINT('',(-67.56766739063,149.82110686235,50.));
#533 = CARTESIAN_POINT('',(-33.78383370725,149.82470119516,50.));
#534 = CARTESIAN_POINT('',(33.783833707229,149.82470119516,50.));
#535 = CARTESIAN_POINT('',(67.567667390731,149.82110686236,50.));
#536 = CARTESIAN_POINT('',(101.35108064621,149.81391794982,50.));
#537 = CARTESIAN_POINT('',(135.1336517987,149.80339647937,50.));
#538 = CARTESIAN_POINT('',(168.91502432305,149.79006302567,50.));
#539 = CARTESIAN_POINT('',(202.69494825734,149.77459230838,50.));
#540 = PCURVE('',#127,#541);
#541 = DEFINITIONAL_REPRESENTATION('',(#542),#555);
#542 = B_SPLINE_CURVE_WITH_KNOTS('',6,(#543,#544,#545,#546,#547,#548,
    #549,#550,#551,#552,#553,#554),.UNSPECIFIED.,.F.,.F.,(7,5,7),(0.,0.5
    ,1.),.UNSPECIFIED.);
#543 = CARTESIAN_POINT('',(435.27058351452,1.873061436843));
#544 = CARTESIAN_POINT('',(403.60909821796,-9.90122619184));
#545 = CARTESIAN_POINT('',(371.94551090126,-21.67401454712));
#546 = CARTESIAN_POINT('',(340.27982100118,-33.44458409615));
#547 = CARTESIAN_POINT('',(308.61218151273,-45.21232271142));
#548 = CARTESIAN_POINT('',(276.94289651698,-56.97683796379));
#549 = CARTESIAN_POINT('',(213.60182389488,-80.49912949578));
#550 = CARTESIAN_POINT('',(181.93003631316,-92.25690575884));
#551 = CARTESIAN_POINT('',(150.25739148133,-104.0111659324));
#552 = CARTESIAN_POINT('',(118.5843759146,-115.7620088504));
#553 = CARTESIAN_POINT('',(86.911505063578,-127.5097984069));
#554 = CARTESIAN_POINT('',(55.239248143919,-139.2550800964));
#555 = ( GEOMETRIC_REPRESENTATION_CONTEXT(2) 
PARAMETRIC_REPRESENTATION_CONTEXT() REPRESENTATION_CONTEXT('2D SPACE',''
  ) );
#556 = PCURVE('',#291,#557);
#557 = DEFINITIONAL_REPRESENTATION('',(#558),#571);
#558 = B_SPLINE_CURVE_WITH_KNOTS('',6,(#559,#560,#561,#562,#563,#564,
    #565,#566,#567,#568,#569,#570),.UNSPECIFIED.,.F.,.F.,(7,5,7),(0.,0.5
    ,1.),.UNSPECIFIED.);
#559 = CARTESIAN_POINT('',(406.,0.998007968127));
#560 = CARTESIAN_POINT('',(372.16410544986,0.998007968127));
#561 = CARTESIAN_POINT('',(338.3296560787,0.998007968127));
#562 = CARTESIAN_POINT('',(304.49640242264,0.998007968127));
#563 = CARTESIAN_POINT('',(270.66398872778,0.998007968127));
#564 = CARTESIAN_POINT('',(236.83199433391,0.998007968127));
#565 = CARTESIAN_POINT('',(169.1680056661,0.998007968127));
#566 = CARTESIAN_POINT('',(135.33601127212,0.998007968127));
#567 = CARTESIAN_POINT('',(101.50359757749,0.998007968127));
#568 = CARTESIAN_POINT('',(67.67034392118,0.998007968127));
#569 = CARTESIAN_POINT('',(33.83589455018,0.998007968127));
#570 = CARTESIAN_POINT('',(0.,0.998007968127));
#571 = ( GEOMETRIC_REPRESENTATION_CONTEXT(2) 
PARAMETRIC_REPRESENTATION_CONTEXT() REPRESENTATION_CONTEXT('2D SPACE',''
  ) );
#572 = ORIENTED_EDGE('',*,*,#573,.T.);
#573 = EDGE_CURVE('',#524,#480,#574,.T.);
#574 = SURFACE_CURVE('',#575,(#582,#592),.PCURVE_S1.);
#575 = B_SPLINE_CURVE_WITH_KNOTS('',5,(#576,#577,#578,#579,#580,#581),
  .UNSPECIFIED.,.F.,.F.,(6,6),(0.,1.),.PIECEWISE_BEZIER_KNOTS.);
#576 = CARTESIAN_POINT('',(202.69494825734,149.77459230838,50.));
#577 = CARTESIAN_POINT('',(202.704290111,119.82069450143,50.));
#578 = CARTESIAN_POINT('',(202.71162056096,89.866052119442,50.));
#579 = CARTESIAN_POINT('',(202.71662304612,59.910878690705,50.));
#580 = CARTESIAN_POINT('',(202.71912350597,29.955439325867,50.));
#581 = CARTESIAN_POINT('',(202.71912350597,-6.217248937901E-15,50.));
#582 = PCURVE('',#127,#583);
#583 = DEFINITIONAL_REPRESENTATION('',(#584),#591);
#584 = B_SPLINE_CURVE_WITH_KNOTS('',5,(#585,#586,#587,#588,#589,#590),
  .UNSPECIFIED.,.F.,.F.,(6,6),(0.,1.),.PIECEWISE_BEZIER_KNOTS.);
#585 = CARTESIAN_POINT('',(55.239248143919,-139.2550800964));
#586 = CARTESIAN_POINT('',(44.802658177894,-111.178155924));
#587 = CARTESIAN_POINT('',(34.367694586742,-83.09983352367));
#588 = CARTESIAN_POINT('',(23.934728465041,-55.02020286238));
#589 = CARTESIAN_POINT('',(13.504015278001,-26.93945187167));
#590 = CARTESIAN_POINT('',(3.075646151839,1.142169566096));
#591 = ( GEOMETRIC_REPRESENTATION_CONTEXT(2) 
PARAMETRIC_REPRESENTATION_CONTEXT() REPRESENTATION_CONTEXT('2D SPACE',''
  ) );
#592 = PCURVE('',#382,#593);
#593 = DEFINITIONAL_REPRESENTATION('',(#594),#601);
#594 = B_SPLINE_CURVE_WITH_KNOTS('',5,(#595,#596,#597,#598,#599,#600),
  .UNSPECIFIED.,.F.,.F.,(6,6),(0.,1.),.PIECEWISE_BEZIER_KNOTS.);
#595 = CARTESIAN_POINT('',(300.,0.998007968127));
#596 = CARTESIAN_POINT('',(269.99898185064,0.998007968127));
#597 = CARTESIAN_POINT('',(239.99870647132,0.998007968127));
#598 = CARTESIAN_POINT('',(209.99896082472,0.998007968127));
#599 = CARTESIAN_POINT('',(179.99948042727,0.998007968127));
#600 = CARTESIAN_POINT('',(150.,0.998007968127));
#601 = ( GEOMETRIC_REPRESENTATION_CONTEXT(2) 
PARAMETRIC_REPRESENTATION_CONTEXT() REPRESENTATION_CONTEXT('2D SPACE',''
  ) );
#602 = ADVANCED_FACE('',(#603),#152,.F.);
#603 = FACE_BOUND('',#604,.F.);
#604 = EDGE_LOOP('',(#605,#606,#607,#626));
#605 = ORIENTED_EDGE('',*,*,#139,.F.);
#606 = ORIENTED_EDGE('',*,*,#166,.T.);
#607 = ORIENTED_EDGE('',*,*,#608,.T.);
#608 = EDGE_CURVE('',#167,#480,#609,.T.);
#609 = SURFACE_CURVE('',#610,(#613,#619),.PCURVE_S1.);
#610 = B_SPLINE_CURVE_WITH_KNOTS('',1,(#611,#612),.UNSPECIFIED.,.F.,.F.,
  (2,2),(0.,1.),.PIECEWISE_BEZIER_KNOTS.);
#611 = CARTESIAN_POINT('',(62.,3.552713678801E-15,-0.1));
#612 = CARTESIAN_POINT('',(203.,0.,50.1));
#613 = PCURVE('',#152,#614);
#614 = DEFINITIONAL_REPRESENTATION('',(#615),#618);
#615 = B_SPLINE_CURVE_WITH_KNOTS('',1,(#616,#617),.UNSPECIFIED.,.F.,.F.,
  (2,2),(0.,1.),.PIECEWISE_BEZIER_KNOTS.);
#616 = CARTESIAN_POINT('',(499.9,62.));
#617 = CARTESIAN_POINT('',(550.1,203.));
#618 = ( GEOMETRIC_REPRESENTATION_CONTEXT(2) 
PARAMETRIC_REPRESENTATION_CONTEXT() REPRESENTATION_CONTEXT('2D SPACE',''
  ) );
#619 = PCURVE('',#382,#620);
#620 = DEFINITIONAL_REPRESENTATION('',(#621),#625);
#621 = LINE('',#622,#623);
#622 = CARTESIAN_POINT('',(150.,0.));
#623 = VECTOR('',#624,1.);
#624 = DIRECTION('',(0.,1.));
#625 = ( GEOMETRIC_REPRESENTATION_CONTEXT(2) 
PARAMETRIC_REPRESENTATION_CONTEXT() REPRESENTATION_CONTEXT('2D SPACE',''
  ) );
#626 = ORIENTED_EDGE('',*,*,#479,.F.);
#627 = ADVANCED_FACE('',(#628),#382,.F.);
#628 = FACE_BOUND('',#629,.F.);
#629 = EDGE_LOOP('',(#630,#631,#632,#652));
#630 = ORIENTED_EDGE('',*,*,#608,.F.);
#631 = ORIENTED_EDGE('',*,*,#338,.F.);
#632 = ORIENTED_EDGE('',*,*,#633,.T.);
#633 = EDGE_CURVE('',#238,#524,#634,.T.);
#634 = SURFACE_CURVE('',#635,(#638,#645),.PCURVE_S1.);
#635 = B_SPLINE_CURVE_WITH_KNOTS('',1,(#636,#637),.UNSPECIFIED.,.F.,.F.,
  (2,2),(0.,1.),.PIECEWISE_BEZIER_KNOTS.);
#636 = CARTESIAN_POINT('',(49.864025188715,36.845338809396,-0.1));
#637 = CARTESIAN_POINT('',(203.,150.,50.1));
#638 = PCURVE('',#382,#639);
#639 = DEFINITIONAL_REPRESENTATION('',(#640),#644);
#640 = LINE('',#641,#642);
#641 = CARTESIAN_POINT('',(300.,0.));
#642 = VECTOR('',#643,1.);
#643 = DIRECTION('',(0.,1.));
#644 = ( GEOMETRIC_REPRESENTATION_CONTEXT(2) 
PARAMETRIC_REPRESENTATION_CONTEXT() REPRESENTATION_CONTEXT('2D SPACE',''
  ) );
#645 = PCURVE('',#291,#646);
#646 = DEFINITIONAL_REPRESENTATION('',(#647),#651);
#647 = LINE('',#648,#649);
#648 = CARTESIAN_POINT('',(0.,0.));
#649 = VECTOR('',#650,1.);
#650 = DIRECTION('',(0.,1.));
#651 = ( GEOMETRIC_REPRESENTATION_CONTEXT(2) 
PARAMETRIC_REPRESENTATION_CONTEXT() REPRESENTATION_CONTEXT('2D SPACE',''
  ) );
#652 = ORIENTED_EDGE('',*,*,#573,.T.);
#653 = ADVANCED_FACE('',(#654),#291,.F.);
#654 = FACE_BOUND('',#655,.F.);
#655 = EDGE_LOOP('',(#656,#657,#658,#685));
#656 = ORIENTED_EDGE('',*,*,#633,.F.);
#657 = ORIENTED_EDGE('',*,*,#237,.F.);
#658 = ORIENTED_EDGE('',*,*,#659,.T.);
#659 = EDGE_CURVE('',#212,#503,#660,.T.);
#660 = SURFACE_CURVE('',#661,(#667,#676),.PCURVE_S1.);
#661 = B_SPLINE_CURVE_WITH_KNOTS('',4,(#662,#663,#664,#665,#666),
  .UNSPECIFIED.,.F.,.F.,(5,5),(0.,1.),.PIECEWISE_BEZIER_KNOTS.);
#662 = CARTESIAN_POINT('',(0.,62.175245978515,-3.012000001945E-05));
#663 = CARTESIAN_POINT('',(0.,84.087622982678,12.49998494));
#664 = CARTESIAN_POINT('',(0.,105.99999998684,25.));
#665 = CARTESIAN_POINT('',(0.,127.912376991,37.50001506));
#666 = CARTESIAN_POINT('',(0.,149.82475399516,50.00003012));
#667 = PCURVE('',#291,#668);
#668 = DEFINITIONAL_REPRESENTATION('',(#669),#675);
#669 = B_SPLINE_CURVE_WITH_KNOTS('',4,(#670,#671,#672,#673,#674),
  .UNSPECIFIED.,.F.,.F.,(5,5),(0.,1.),.PIECEWISE_BEZIER_KNOTS.);
#670 = CARTESIAN_POINT('',(203.,1.99143187251E-03));
#671 = CARTESIAN_POINT('',(203.,0.250995715936));
#672 = CARTESIAN_POINT('',(203.,0.5));
#673 = CARTESIAN_POINT('',(203.,0.749004284064));
#674 = CARTESIAN_POINT('',(203.,0.998008568127));
#675 = ( GEOMETRIC_REPRESENTATION_CONTEXT(2) 
PARAMETRIC_REPRESENTATION_CONTEXT() REPRESENTATION_CONTEXT('2D SPACE',''
  ) );
#676 = PCURVE('',#226,#677);
#677 = DEFINITIONAL_REPRESENTATION('',(#678),#684);
#678 = B_SPLINE_CURVE_WITH_KNOTS('',4,(#679,#680,#681,#682,#683),
  .UNSPECIFIED.,.F.,.F.,(5,5),(0.,1.),.PIECEWISE_BEZIER_KNOTS.);
#679 = CARTESIAN_POINT('',(499.99996988,-62.17524597851));
#680 = CARTESIAN_POINT('',(512.49998494,-84.08762298267));
#681 = CARTESIAN_POINT('',(525.,-105.9999999868));
#682 = CARTESIAN_POINT('',(537.50001506,-127.912376991));
#683 = CARTESIAN_POINT('',(550.00003012,-149.8247539951));
#684 = ( GEOMETRIC_REPRESENTATION_CONTEXT(2) 
PARAMETRIC_REPRESENTATION_CONTEXT() REPRESENTATION_CONTEXT('2D SPACE',''
  ) );
#685 = ORIENTED_EDGE('',*,*,#523,.T.);
#686 = ADVANCED_FACE('',(#687),#226,.F.);
#687 = FACE_BOUND('',#688,.F.);
#688 = EDGE_LOOP('',(#689,#690,#691,#692));
#689 = ORIENTED_EDGE('',*,*,#659,.F.);
#690 = ORIENTED_EDGE('',*,*,#211,.T.);
#691 = ORIENTED_EDGE('',*,*,#426,.T.);
#692 = ORIENTED_EDGE('',*,*,#502,.F.);
#693 = ( GEOMETRIC_REPRESENTATION_CONTEXT(3) 
GLOBAL_UNCERTAINTY_ASSIGNED_CONTEXT((#697)) GLOBAL_UNIT_ASSIGNED_CONTEXT
((#694,#695,#696)) REPRESENTATION_CONTEXT('Context #1',
  '3D Context with UNIT and UNCERTAINTY') );
#694 = ( LENGTH_UNIT() NAMED_UNIT(*) SI_UNIT(.MILLI.,.METRE.) );
#695 = ( NAMED_UNIT(*) PLANE_ANGLE_UNIT() SI_UNIT($,.RADIAN.) );
#696 = ( NAMED_UNIT(*) SI_UNIT($,.STERADIAN.) SOLID_ANGLE_UNIT() );
#697 = UNCERTAINTY_MEASURE_WITH_UNIT(LENGTH_MEASURE(2.E-06),#694,
  'distance_accuracy_value','confusion accuracy');
#698 = PRODUCT_RELATED_PRODUCT_CATEGORY('part',$,(#7));
ENDSEC;
END-ISO-10303-21;
