ISO-10303-21;
HEADER;
FILE_DESCRIPTION(('Open CASCADE Model'),'2;1');
FILE_NAME('Open CASCADE Shape Model','2026-05-11T23:09:46',('Author'),(
    'Open CASCADE'),'Open CASCADE STEP processor 7.8','Open CASCADE 7.8'
  ,'Unknown');
FILE_SCHEMA(('AUTOMOTIVE_DESIGN { 1 0 10303 214 1 1 1 1 }'));
ENDSEC;
DATA;
#1 = APPLICATION_PROTOCOL_DEFINITION('international standard',
  'automotive_design',2000,#2);
#2 = APPLICATION_CONTEXT(
  'core data for automotive mechanical design processes');
#3 = SHAPE_DEFINITION_REPRESENTATION(#4,#10);
#4 = PRODUCT_DEFINITION_SHAPE('','',#5);
#5 = PRODUCT_DEFINITION('design','',#6,#9);
#6 = PRODUCT_DEFINITION_FORMATION('','',#7);
#7 = PRODUCT('Open CASCADE STEP translator 7.8 4',
  'Open CASCADE STEP translator 7.8 4','',(#8));
#8 = PRODUCT_CONTEXT('',#2,'mechanical');
#9 = PRODUCT_DEFINITION_CONTEXT('part definition',#2,'design');
#10 = ADVANCED_BREP_SHAPE_REPRESENTATION('',(#11,#15),#862);
#11 = AXIS2_PLACEMENT_3D('',#12,#13,#14);
#12 = CARTESIAN_POINT('',(0.,0.,0.));
#13 = DIRECTION('',(0.,0.,1.));
#14 = DIRECTION('',(1.,0.,-0.));
#15 = MANIFOLD_SOLID_BREP('',#16);
#16 = CLOSED_SHELL('',(#17,#135,#269,#390,#620,#647,#672,#747,#779,#827,
    #855));
#17 = ADVANCED_FACE('',(#18),#32,.F.);
#18 = FACE_BOUND('',#19,.F.);
#19 = EDGE_LOOP('',(#20,#55,#83,#111));
#20 = ORIENTED_EDGE('',*,*,#21,.F.);
#21 = EDGE_CURVE('',#22,#24,#26,.T.);
#22 = VERTEX_POINT('',#23);
#23 = CARTESIAN_POINT('',(-198.,-153.,0.));
#24 = VERTEX_POINT('',#25);
#25 = CARTESIAN_POINT('',(0.,-153.,0.));
#26 = SURFACE_CURVE('',#27,(#31,#43),.PCURVE_S1.);
#27 = LINE('',#28,#29);
#28 = CARTESIAN_POINT('',(-206.,-153.,0.));
#29 = VECTOR('',#30,1.);
#30 = DIRECTION('',(1.,0.,0.));
#31 = PCURVE('',#32,#37);
#32 = PLANE('',#33);
#33 = AXIS2_PLACEMENT_3D('',#34,#35,#36);
#34 = CARTESIAN_POINT('',(-206.,-153.,0.));
#35 = DIRECTION('',(0.,1.,0.));
#36 = DIRECTION('',(1.,0.,0.));
#37 = DEFINITIONAL_REPRESENTATION('',(#38),#42);
#38 = LINE('',#39,#40);
#39 = CARTESIAN_POINT('',(0.,0.));
#40 = VECTOR('',#41,1.);
#41 = DIRECTION('',(1.,0.));
#42 = ( GEOMETRIC_REPRESENTATION_CONTEXT(2) 
PARAMETRIC_REPRESENTATION_CONTEXT() REPRESENTATION_CONTEXT('2D SPACE',''
  ) );
#43 = PCURVE('',#44,#49);
#44 = PLANE('',#45);
#45 = AXIS2_PLACEMENT_3D('',#46,#47,#48);
#46 = CARTESIAN_POINT('',(0.,0.,0.));
#47 = DIRECTION('',(0.,0.,1.));
#48 = DIRECTION('',(1.,0.,-0.));
#49 = DEFINITIONAL_REPRESENTATION('',(#50),#54);
#50 = LINE('',#51,#52);
#51 = CARTESIAN_POINT('',(-206.,-153.));
#52 = VECTOR('',#53,1.);
#53 = DIRECTION('',(1.,0.));
#54 = ( GEOMETRIC_REPRESENTATION_CONTEXT(2) 
PARAMETRIC_REPRESENTATION_CONTEXT() REPRESENTATION_CONTEXT('2D SPACE',''
  ) );
#55 = ORIENTED_EDGE('',*,*,#56,.T.);
#56 = EDGE_CURVE('',#22,#57,#59,.T.);
#57 = VERTEX_POINT('',#58);
#58 = CARTESIAN_POINT('',(-198.,-153.,22.));
#59 = SURFACE_CURVE('',#60,(#64,#71),.PCURVE_S1.);
#60 = LINE('',#61,#62);
#61 = CARTESIAN_POINT('',(-198.,-153.,0.));
#62 = VECTOR('',#63,1.);
#63 = DIRECTION('',(0.,0.,1.));
#64 = PCURVE('',#32,#65);
#65 = DEFINITIONAL_REPRESENTATION('',(#66),#70);
#66 = LINE('',#67,#68);
#67 = CARTESIAN_POINT('',(8.,0.));
#68 = VECTOR('',#69,1.);
#69 = DIRECTION('',(0.,-1.));
#70 = ( GEOMETRIC_REPRESENTATION_CONTEXT(2) 
PARAMETRIC_REPRESENTATION_CONTEXT() REPRESENTATION_CONTEXT('2D SPACE',''
  ) );
#71 = PCURVE('',#72,#77);
#72 = CYLINDRICAL_SURFACE('',#73,8.);
#73 = AXIS2_PLACEMENT_3D('',#74,#75,#76);
#74 = CARTESIAN_POINT('',(-198.,-145.,0.));
#75 = DIRECTION('',(0.,0.,1.));
#76 = DIRECTION('',(0.,-1.,0.));
#77 = DEFINITIONAL_REPRESENTATION('',(#78),#82);
#78 = LINE('',#79,#80);
#79 = CARTESIAN_POINT('',(-0.,0.));
#80 = VECTOR('',#81,1.);
#81 = DIRECTION('',(-0.,1.));
#82 = ( GEOMETRIC_REPRESENTATION_CONTEXT(2) 
PARAMETRIC_REPRESENTATION_CONTEXT() REPRESENTATION_CONTEXT('2D SPACE',''
  ) );
#83 = ORIENTED_EDGE('',*,*,#84,.T.);
#84 = EDGE_CURVE('',#57,#85,#87,.T.);
#85 = VERTEX_POINT('',#86);
#86 = CARTESIAN_POINT('',(0.,-153.,22.));
#87 = SURFACE_CURVE('',#88,(#92,#99),.PCURVE_S1.);
#88 = LINE('',#89,#90);
#89 = CARTESIAN_POINT('',(-206.,-153.,22.));
#90 = VECTOR('',#91,1.);
#91 = DIRECTION('',(1.,0.,0.));
#92 = PCURVE('',#32,#93);
#93 = DEFINITIONAL_REPRESENTATION('',(#94),#98);
#94 = LINE('',#95,#96);
#95 = CARTESIAN_POINT('',(0.,-22.));
#96 = VECTOR('',#97,1.);
#97 = DIRECTION('',(1.,0.));
#98 = ( GEOMETRIC_REPRESENTATION_CONTEXT(2) 
PARAMETRIC_REPRESENTATION_CONTEXT() REPRESENTATION_CONTEXT('2D SPACE',''
  ) );
#99 = PCURVE('',#100,#105);
#100 = PLANE('',#101);
#101 = AXIS2_PLACEMENT_3D('',#102,#103,#104);
#102 = CARTESIAN_POINT('',(0.,0.,22.));
#103 = DIRECTION('',(0.,0.,1.));
#104 = DIRECTION('',(1.,0.,-0.));
#105 = DEFINITIONAL_REPRESENTATION('',(#106),#110);
#106 = LINE('',#107,#108);
#107 = CARTESIAN_POINT('',(-206.,-153.));
#108 = VECTOR('',#109,1.);
#109 = DIRECTION('',(1.,0.));
#110 = ( GEOMETRIC_REPRESENTATION_CONTEXT(2) 
PARAMETRIC_REPRESENTATION_CONTEXT() REPRESENTATION_CONTEXT('2D SPACE',''
  ) );
#111 = ORIENTED_EDGE('',*,*,#112,.T.);
#112 = EDGE_CURVE('',#85,#24,#113,.T.);
#113 = SURFACE_CURVE('',#114,(#118,#124),.PCURVE_S1.);
#114 = LINE('',#115,#116);
#115 = CARTESIAN_POINT('',(0.,-153.,-250.));
#116 = VECTOR('',#117,1.);
#117 = DIRECTION('',(0.,0.,-1.));
#118 = PCURVE('',#32,#119);
#119 = DEFINITIONAL_REPRESENTATION('',(#120),#123);
#120 = B_SPLINE_CURVE_WITH_KNOTS('',1,(#121,#122),.UNSPECIFIED.,.F.,.F.,
  (2,2),(-272.,-250.),.PIECEWISE_BEZIER_KNOTS.);
#121 = CARTESIAN_POINT('',(206.,-22.));
#122 = CARTESIAN_POINT('',(206.,0.));
#123 = ( GEOMETRIC_REPRESENTATION_CONTEXT(2) 
PARAMETRIC_REPRESENTATION_CONTEXT() REPRESENTATION_CONTEXT('2D SPACE',''
  ) );
#124 = PCURVE('',#125,#130);
#125 = PLANE('',#126);
#126 = AXIS2_PLACEMENT_3D('',#127,#128,#129);
#127 = CARTESIAN_POINT('',(0.,-1.E+03,-500.));
#128 = DIRECTION('',(1.,0.,0.));
#129 = DIRECTION('',(0.,0.,1.));
#130 = DEFINITIONAL_REPRESENTATION('',(#131),#134);
#131 = B_SPLINE_CURVE_WITH_KNOTS('',1,(#132,#133),.UNSPECIFIED.,.F.,.F.,
  (2,2),(-272.,-250.),.PIECEWISE_BEZIER_KNOTS.);
#132 = CARTESIAN_POINT('',(522.,-847.));
#133 = CARTESIAN_POINT('',(500.,-847.));
#134 = ( GEOMETRIC_REPRESENTATION_CONTEXT(2) 
PARAMETRIC_REPRESENTATION_CONTEXT() REPRESENTATION_CONTEXT('2D SPACE',''
  ) );
#135 = ADVANCED_FACE('',(#136),#44,.F.);
#136 = FACE_BOUND('',#137,.F.);
#137 = EDGE_LOOP('',(#138,#166,#167,#188,#217,#243));
#138 = ORIENTED_EDGE('',*,*,#139,.F.);
#139 = EDGE_CURVE('',#22,#140,#142,.T.);
#140 = VERTEX_POINT('',#141);
#141 = CARTESIAN_POINT('',(-206.,-145.,0.));
#142 = SURFACE_CURVE('',#143,(#148,#159),.PCURVE_S1.);
#143 = CIRCLE('',#144,8.);
#144 = AXIS2_PLACEMENT_3D('',#145,#146,#147);
#145 = CARTESIAN_POINT('',(-198.,-145.,0.));
#146 = DIRECTION('',(-0.,-0.,-1.));
#147 = DIRECTION('',(0.,-1.,0.));
#148 = PCURVE('',#44,#149);
#149 = DEFINITIONAL_REPRESENTATION('',(#150),#158);
#150 = ( BOUNDED_CURVE() B_SPLINE_CURVE(2,(#151,#152,#153,#154,#155,#156
,#157),.UNSPECIFIED.,.T.,.F.) B_SPLINE_CURVE_WITH_KNOTS((1,2,2,2,2,1),(
    -2.094395102393,0.,2.094395102393,4.188790204786,6.28318530718,
8.377580409573),.UNSPECIFIED.) CURVE() GEOMETRIC_REPRESENTATION_ITEM() 
RATIONAL_B_SPLINE_CURVE((1.,0.5,1.,0.5,1.,0.5,1.)) REPRESENTATION_ITEM(
  '') );
#151 = CARTESIAN_POINT('',(-198.,-153.));
#152 = CARTESIAN_POINT('',(-211.8564064605,-153.));
#153 = CARTESIAN_POINT('',(-204.9282032302,-141.));
#154 = CARTESIAN_POINT('',(-198.,-129.));
#155 = CARTESIAN_POINT('',(-191.0717967697,-141.));
#156 = CARTESIAN_POINT('',(-184.1435935394,-153.));
#157 = CARTESIAN_POINT('',(-198.,-153.));
#158 = ( GEOMETRIC_REPRESENTATION_CONTEXT(2) 
PARAMETRIC_REPRESENTATION_CONTEXT() REPRESENTATION_CONTEXT('2D SPACE',''
  ) );
#159 = PCURVE('',#72,#160);
#160 = DEFINITIONAL_REPRESENTATION('',(#161),#165);
#161 = LINE('',#162,#163);
#162 = CARTESIAN_POINT('',(-0.,0.));
#163 = VECTOR('',#164,1.);
#164 = DIRECTION('',(-1.,0.));
#165 = ( GEOMETRIC_REPRESENTATION_CONTEXT(2) 
PARAMETRIC_REPRESENTATION_CONTEXT() REPRESENTATION_CONTEXT('2D SPACE',''
  ) );
#166 = ORIENTED_EDGE('',*,*,#21,.T.);
#167 = ORIENTED_EDGE('',*,*,#168,.T.);
#168 = EDGE_CURVE('',#24,#169,#171,.T.);
#169 = VERTEX_POINT('',#170);
#170 = CARTESIAN_POINT('',(-8.450062914117E-15,-46.,0.));
#171 = SURFACE_CURVE('',#172,(#176,#182),.PCURVE_S1.);
#172 = LINE('',#173,#174);
#173 = CARTESIAN_POINT('',(0.,-500.,0.));
#174 = VECTOR('',#175,1.);
#175 = DIRECTION('',(0.,1.,0.));
#176 = PCURVE('',#44,#177);
#177 = DEFINITIONAL_REPRESENTATION('',(#178),#181);
#178 = B_SPLINE_CURVE_WITH_KNOTS('',1,(#179,#180),.UNSPECIFIED.,.F.,.F.,
  (2,2),(347.,500.),.PIECEWISE_BEZIER_KNOTS.);
#179 = CARTESIAN_POINT('',(0.,-153.));
#180 = CARTESIAN_POINT('',(0.,0.));
#181 = ( GEOMETRIC_REPRESENTATION_CONTEXT(2) 
PARAMETRIC_REPRESENTATION_CONTEXT() REPRESENTATION_CONTEXT('2D SPACE',''
  ) );
#182 = PCURVE('',#125,#183);
#183 = DEFINITIONAL_REPRESENTATION('',(#184),#187);
#184 = B_SPLINE_CURVE_WITH_KNOTS('',1,(#185,#186),.UNSPECIFIED.,.F.,.F.,
  (2,2),(347.,500.),.PIECEWISE_BEZIER_KNOTS.);
#185 = CARTESIAN_POINT('',(500.,-847.));
#186 = CARTESIAN_POINT('',(500.,-1.E+03));
#187 = ( GEOMETRIC_REPRESENTATION_CONTEXT(2) 
PARAMETRIC_REPRESENTATION_CONTEXT() REPRESENTATION_CONTEXT('2D SPACE',''
  ) );
#188 = ORIENTED_EDGE('',*,*,#189,.F.);
#189 = EDGE_CURVE('',#190,#169,#192,.T.);
#190 = VERTEX_POINT('',#191);
#191 = CARTESIAN_POINT('',(-46.,5.633375276078E-15,0.));
#192 = SURFACE_CURVE('',#193,(#198,#205),.PCURVE_S1.);
#193 = CIRCLE('',#194,46.);
#194 = AXIS2_PLACEMENT_3D('',#195,#196,#197);
#195 = CARTESIAN_POINT('',(0.,0.,0.));
#196 = DIRECTION('',(0.,0.,1.));
#197 = DIRECTION('',(1.,0.,0.));
#198 = PCURVE('',#44,#199);
#199 = DEFINITIONAL_REPRESENTATION('',(#200),#204);
#200 = CIRCLE('',#201,46.);
#201 = AXIS2_PLACEMENT_2D('',#202,#203);
#202 = CARTESIAN_POINT('',(0.,0.));
#203 = DIRECTION('',(1.,0.));
#204 = ( GEOMETRIC_REPRESENTATION_CONTEXT(2) 
PARAMETRIC_REPRESENTATION_CONTEXT() REPRESENTATION_CONTEXT('2D SPACE',''
  ) );
#205 = PCURVE('',#206,#211);
#206 = CYLINDRICAL_SURFACE('',#207,46.);
#207 = AXIS2_PLACEMENT_3D('',#208,#209,#210);
#208 = CARTESIAN_POINT('',(0.,0.,0.));
#209 = DIRECTION('',(-0.,-0.,-1.));
#210 = DIRECTION('',(1.,0.,0.));
#211 = DEFINITIONAL_REPRESENTATION('',(#212),#216);
#212 = LINE('',#213,#214);
#213 = CARTESIAN_POINT('',(-0.,0.));
#214 = VECTOR('',#215,1.);
#215 = DIRECTION('',(-1.,0.));
#216 = ( GEOMETRIC_REPRESENTATION_CONTEXT(2) 
PARAMETRIC_REPRESENTATION_CONTEXT() REPRESENTATION_CONTEXT('2D SPACE',''
  ) );
#217 = ORIENTED_EDGE('',*,*,#218,.T.);
#218 = EDGE_CURVE('',#190,#219,#221,.T.);
#219 = VERTEX_POINT('',#220);
#220 = CARTESIAN_POINT('',(-206.,0.,0.));
#221 = SURFACE_CURVE('',#222,(#226,#232),.PCURVE_S1.);
#222 = LINE('',#223,#224);
#223 = CARTESIAN_POINT('',(-500.,0.,0.));
#224 = VECTOR('',#225,1.);
#225 = DIRECTION('',(-1.,0.,0.));
#226 = PCURVE('',#44,#227);
#227 = DEFINITIONAL_REPRESENTATION('',(#228),#231);
#228 = B_SPLINE_CURVE_WITH_KNOTS('',1,(#229,#230),.UNSPECIFIED.,.F.,.F.,
  (2,2),(-500.,-294.),.PIECEWISE_BEZIER_KNOTS.);
#229 = CARTESIAN_POINT('',(0.,0.));
#230 = CARTESIAN_POINT('',(-206.,0.));
#231 = ( GEOMETRIC_REPRESENTATION_CONTEXT(2) 
PARAMETRIC_REPRESENTATION_CONTEXT() REPRESENTATION_CONTEXT('2D SPACE',''
  ) );
#232 = PCURVE('',#233,#238);
#233 = PLANE('',#234);
#234 = AXIS2_PLACEMENT_3D('',#235,#236,#237);
#235 = CARTESIAN_POINT('',(-1.E+03,0.,-500.));
#236 = DIRECTION('',(0.,1.,0.));
#237 = DIRECTION('',(0.,0.,1.));
#238 = DEFINITIONAL_REPRESENTATION('',(#239),#242);
#239 = B_SPLINE_CURVE_WITH_KNOTS('',1,(#240,#241),.UNSPECIFIED.,.F.,.F.,
  (2,2),(-500.,-294.),.PIECEWISE_BEZIER_KNOTS.);
#240 = CARTESIAN_POINT('',(500.,1.E+03));
#241 = CARTESIAN_POINT('',(500.,794.));
#242 = ( GEOMETRIC_REPRESENTATION_CONTEXT(2) 
PARAMETRIC_REPRESENTATION_CONTEXT() REPRESENTATION_CONTEXT('2D SPACE',''
  ) );
#243 = ORIENTED_EDGE('',*,*,#244,.T.);
#244 = EDGE_CURVE('',#219,#140,#245,.T.);
#245 = SURFACE_CURVE('',#246,(#250,#257),.PCURVE_S1.);
#246 = LINE('',#247,#248);
#247 = CARTESIAN_POINT('',(-206.,153.,0.));
#248 = VECTOR('',#249,1.);
#249 = DIRECTION('',(0.,-1.,0.));
#250 = PCURVE('',#44,#251);
#251 = DEFINITIONAL_REPRESENTATION('',(#252),#256);
#252 = LINE('',#253,#254);
#253 = CARTESIAN_POINT('',(-206.,153.));
#254 = VECTOR('',#255,1.);
#255 = DIRECTION('',(0.,-1.));
#256 = ( GEOMETRIC_REPRESENTATION_CONTEXT(2) 
PARAMETRIC_REPRESENTATION_CONTEXT() REPRESENTATION_CONTEXT('2D SPACE',''
  ) );
#257 = PCURVE('',#258,#263);
#258 = PLANE('',#259);
#259 = AXIS2_PLACEMENT_3D('',#260,#261,#262);
#260 = CARTESIAN_POINT('',(-206.,153.,0.));
#261 = DIRECTION('',(1.,0.,-0.));
#262 = DIRECTION('',(0.,-1.,0.));
#263 = DEFINITIONAL_REPRESENTATION('',(#264),#268);
#264 = LINE('',#265,#266);
#265 = CARTESIAN_POINT('',(0.,0.));
#266 = VECTOR('',#267,1.);
#267 = DIRECTION('',(1.,0.));
#268 = ( GEOMETRIC_REPRESENTATION_CONTEXT(2) 
PARAMETRIC_REPRESENTATION_CONTEXT() REPRESENTATION_CONTEXT('2D SPACE',''
  ) );
#269 = ADVANCED_FACE('',(#270),#125,.T.);
#270 = FACE_BOUND('',#271,.T.);
#271 = EDGE_LOOP('',(#272,#293,#294,#295,#316,#342));
#272 = ORIENTED_EDGE('',*,*,#273,.F.);
#273 = EDGE_CURVE('',#85,#274,#276,.T.);
#274 = VERTEX_POINT('',#275);
#275 = CARTESIAN_POINT('',(1.020079378217E-14,-145.7499999986,22.));
#276 = SURFACE_CURVE('',#277,(#281,#287),.PCURVE_S1.);
#277 = LINE('',#278,#279);
#278 = CARTESIAN_POINT('',(0.,-500.,22.));
#279 = VECTOR('',#280,1.);
#280 = DIRECTION('',(0.,1.,0.));
#281 = PCURVE('',#125,#282);
#282 = DEFINITIONAL_REPRESENTATION('',(#283),#286);
#283 = B_SPLINE_CURVE_WITH_KNOTS('',1,(#284,#285),.UNSPECIFIED.,.F.,.F.,
  (2,2),(347.,500.),.PIECEWISE_BEZIER_KNOTS.);
#284 = CARTESIAN_POINT('',(522.,-847.));
#285 = CARTESIAN_POINT('',(522.,-1.E+03));
#286 = ( GEOMETRIC_REPRESENTATION_CONTEXT(2) 
PARAMETRIC_REPRESENTATION_CONTEXT() REPRESENTATION_CONTEXT('2D SPACE',''
  ) );
#287 = PCURVE('',#100,#288);
#288 = DEFINITIONAL_REPRESENTATION('',(#289),#292);
#289 = B_SPLINE_CURVE_WITH_KNOTS('',1,(#290,#291),.UNSPECIFIED.,.F.,.F.,
  (2,2),(347.,500.),.PIECEWISE_BEZIER_KNOTS.);
#290 = CARTESIAN_POINT('',(0.,-153.));
#291 = CARTESIAN_POINT('',(0.,0.));
#292 = ( GEOMETRIC_REPRESENTATION_CONTEXT(2) 
PARAMETRIC_REPRESENTATION_CONTEXT() REPRESENTATION_CONTEXT('2D SPACE',''
  ) );
#293 = ORIENTED_EDGE('',*,*,#112,.T.);
#294 = ORIENTED_EDGE('',*,*,#168,.T.);
#295 = ORIENTED_EDGE('',*,*,#296,.F.);
#296 = EDGE_CURVE('',#297,#169,#299,.T.);
#297 = VERTEX_POINT('',#298);
#298 = CARTESIAN_POINT('',(2.816687638039E-15,-46.,3.));
#299 = SURFACE_CURVE('',#300,(#304,#310),.PCURVE_S1.);
#300 = LINE('',#301,#302);
#301 = CARTESIAN_POINT('',(0.,-46.,0.));
#302 = VECTOR('',#303,1.);
#303 = DIRECTION('',(-0.,-0.,-1.));
#304 = PCURVE('',#125,#305);
#305 = DEFINITIONAL_REPRESENTATION('',(#306),#309);
#306 = B_SPLINE_CURVE_WITH_KNOTS('',1,(#307,#308),.UNSPECIFIED.,.F.,.F.,
  (2,2),(-3.0000006,6.E-07),.PIECEWISE_BEZIER_KNOTS.);
#307 = CARTESIAN_POINT('',(503.0000006,-954.));
#308 = CARTESIAN_POINT('',(499.9999994,-954.));
#309 = ( GEOMETRIC_REPRESENTATION_CONTEXT(2) 
PARAMETRIC_REPRESENTATION_CONTEXT() REPRESENTATION_CONTEXT('2D SPACE',''
  ) );
#310 = PCURVE('',#206,#311);
#311 = DEFINITIONAL_REPRESENTATION('',(#312),#315);
#312 = B_SPLINE_CURVE_WITH_KNOTS('',1,(#313,#314),.UNSPECIFIED.,.F.,.F.,
  (2,2),(-3.0000006,6.E-07),.PIECEWISE_BEZIER_KNOTS.);
#313 = CARTESIAN_POINT('',(-4.712388980385,-3.0000006));
#314 = CARTESIAN_POINT('',(-4.712388980385,6.E-07));
#315 = ( GEOMETRIC_REPRESENTATION_CONTEXT(2) 
PARAMETRIC_REPRESENTATION_CONTEXT() REPRESENTATION_CONTEXT('2D SPACE',''
  ) );
#316 = ORIENTED_EDGE('',*,*,#317,.F.);
#317 = EDGE_CURVE('',#318,#297,#320,.T.);
#318 = VERTEX_POINT('',#319);
#319 = CARTESIAN_POINT('',(-1.194030629169E-14,-65.,3.));
#320 = SURFACE_CURVE('',#321,(#325,#331),.PCURVE_S1.);
#321 = LINE('',#322,#323);
#322 = CARTESIAN_POINT('',(0.,-500.,3.));
#323 = VECTOR('',#324,1.);
#324 = DIRECTION('',(0.,1.,0.));
#325 = PCURVE('',#125,#326);
#326 = DEFINITIONAL_REPRESENTATION('',(#327),#330);
#327 = B_SPLINE_CURVE_WITH_KNOTS('',1,(#328,#329),.UNSPECIFIED.,.F.,.F.,
  (2,2),(435.,500.),.PIECEWISE_BEZIER_KNOTS.);
#328 = CARTESIAN_POINT('',(503.,-935.));
#329 = CARTESIAN_POINT('',(503.,-1.E+03));
#330 = ( GEOMETRIC_REPRESENTATION_CONTEXT(2) 
PARAMETRIC_REPRESENTATION_CONTEXT() REPRESENTATION_CONTEXT('2D SPACE',''
  ) );
#331 = PCURVE('',#332,#337);
#332 = PLANE('',#333);
#333 = AXIS2_PLACEMENT_3D('',#334,#335,#336);
#334 = CARTESIAN_POINT('',(0.,0.,3.));
#335 = DIRECTION('',(0.,0.,1.));
#336 = DIRECTION('',(1.,0.,0.));
#337 = DEFINITIONAL_REPRESENTATION('',(#338),#341);
#338 = B_SPLINE_CURVE_WITH_KNOTS('',1,(#339,#340),.UNSPECIFIED.,.F.,.F.,
  (2,2),(435.,500.),.PIECEWISE_BEZIER_KNOTS.);
#339 = CARTESIAN_POINT('',(0.,-65.));
#340 = CARTESIAN_POINT('',(0.,0.));
#341 = ( GEOMETRIC_REPRESENTATION_CONTEXT(2) 
PARAMETRIC_REPRESENTATION_CONTEXT() REPRESENTATION_CONTEXT('2D SPACE',''
  ) );
#342 = ORIENTED_EDGE('',*,*,#343,.T.);
#343 = EDGE_CURVE('',#318,#274,#344,.T.);
#344 = SURFACE_CURVE('',#345,(#351,#360),.PCURVE_S1.);
#345 = B_SPLINE_CURVE_WITH_KNOTS('',4,(#346,#347,#348,#349,#350),
  .UNSPECIFIED.,.F.,.F.,(5,5),(0.,1.),.PIECEWISE_BEZIER_KNOTS.);
#346 = CARTESIAN_POINT('',(0.,-64.9999999724,3.));
#347 = CARTESIAN_POINT('',(0.,-85.18751272896,7.750003));
#348 = CARTESIAN_POINT('',(0.,-105.3750254855,12.500006));
#349 = CARTESIAN_POINT('',(0.,-125.562538242,17.250009));
#350 = CARTESIAN_POINT('',(0.,-145.7500509986,22.000012));
#351 = PCURVE('',#125,#352);
#352 = DEFINITIONAL_REPRESENTATION('',(#353),#359);
#353 = B_SPLINE_CURVE_WITH_KNOTS('',4,(#354,#355,#356,#357,#358),
  .UNSPECIFIED.,.F.,.F.,(5,5),(0.,1.),.PIECEWISE_BEZIER_KNOTS.);
#354 = CARTESIAN_POINT('',(503.,-935.0000000275));
#355 = CARTESIAN_POINT('',(507.750003,-914.812487271));
#356 = CARTESIAN_POINT('',(512.500006,-894.6249745144));
#357 = CARTESIAN_POINT('',(517.250009,-874.4374617579));
#358 = CARTESIAN_POINT('',(522.000012,-854.2499490013));
#359 = ( GEOMETRIC_REPRESENTATION_CONTEXT(2) 
PARAMETRIC_REPRESENTATION_CONTEXT() REPRESENTATION_CONTEXT('2D SPACE',''
  ) );
#360 = PCURVE('',#361,#382);
#361 = B_SPLINE_SURFACE_WITH_KNOTS('',9,1,(
    (#362,#363)
    ,(#364,#365)
    ,(#366,#367)
    ,(#368,#369)
    ,(#370,#371)
    ,(#372,#373)
    ,(#374,#375)
    ,(#376,#377)
    ,(#378,#379)
    ,(#380,#381
    )),.UNSPECIFIED.,.F.,.F.,.F.,(10,10),(2,2),(0.,406.),(0.,1.),
  .PIECEWISE_BEZIER_KNOTS.);
#362 = CARTESIAN_POINT('',(-52.27680060107,-38.62817778404,3.));
#363 = CARTESIAN_POINT('',(-203.,-150.,23.));
#364 = CARTESIAN_POINT('',(-44.25564545491,-49.48347441517,3.));
#365 = CARTESIAN_POINT('',(-157.8888888888,-150.,23.));
#366 = CARTESIAN_POINT('',(-33.69862081795,-58.46497716156,3.));
#367 = CARTESIAN_POINT('',(-112.7777777777,-150.,23.));
#368 = CARTESIAN_POINT('',(-21.10598987589,-64.8956503039,2.999999999999
    ));
#369 = CARTESIAN_POINT('',(-67.66666666666,-150.,23.));
#370 = CARTESIAN_POINT('',(-7.188897837341,-68.2543392228,3.000000000001
    ));
#371 = CARTESIAN_POINT('',(-22.55555555555,-150.,23.));
#372 = CARTESIAN_POINT('',(7.18889783734,-68.25433922277,2.999999999999)
  );
#373 = CARTESIAN_POINT('',(22.555555555556,-150.,23.));
#374 = CARTESIAN_POINT('',(21.105989875896,-64.89565030392,3.));
#375 = CARTESIAN_POINT('',(67.666666666667,-150.,23.));
#376 = CARTESIAN_POINT('',(33.698620817955,-58.46497716155,3.));
#377 = CARTESIAN_POINT('',(112.77777777777,-150.,23.));
#378 = CARTESIAN_POINT('',(44.255645454914,-49.48347441517,3.));
#379 = CARTESIAN_POINT('',(157.88888888888,-150.,23.));
#380 = CARTESIAN_POINT('',(52.276800601073,-38.62817778404,3.));
#381 = CARTESIAN_POINT('',(203.,-150.,23.));
#382 = DEFINITIONAL_REPRESENTATION('',(#383),#389);
#383 = B_SPLINE_CURVE_WITH_KNOTS('',4,(#384,#385,#386,#387,#388),
  .UNSPECIFIED.,.F.,.F.,(5,5),(0.,1.),.PIECEWISE_BEZIER_KNOTS.);
#384 = CARTESIAN_POINT('',(203.,0.));
#385 = CARTESIAN_POINT('',(203.,0.23750015));
#386 = CARTESIAN_POINT('',(203.,0.4750003));
#387 = CARTESIAN_POINT('',(203.,0.71250045));
#388 = CARTESIAN_POINT('',(203.,0.9500006));
#389 = ( GEOMETRIC_REPRESENTATION_CONTEXT(2) 
PARAMETRIC_REPRESENTATION_CONTEXT() REPRESENTATION_CONTEXT('2D SPACE',''
  ) );
#390 = ADVANCED_FACE('',(#391),#100,.T.);
#391 = FACE_BOUND('',#392,.T.);
#392 = EDGE_LOOP('',(#393,#421,#422,#423,#491,#578,#599));
#393 = ORIENTED_EDGE('',*,*,#394,.F.);
#394 = EDGE_CURVE('',#57,#395,#397,.T.);
#395 = VERTEX_POINT('',#396);
#396 = CARTESIAN_POINT('',(-206.,-145.,22.));
#397 = SURFACE_CURVE('',#398,(#403,#414),.PCURVE_S1.);
#398 = CIRCLE('',#399,8.);
#399 = AXIS2_PLACEMENT_3D('',#400,#401,#402);
#400 = CARTESIAN_POINT('',(-198.,-145.,22.));
#401 = DIRECTION('',(-0.,-0.,-1.));
#402 = DIRECTION('',(0.,-1.,0.));
#403 = PCURVE('',#100,#404);
#404 = DEFINITIONAL_REPRESENTATION('',(#405),#413);
#405 = ( BOUNDED_CURVE() B_SPLINE_CURVE(2,(#406,#407,#408,#409,#410,#411
,#412),.UNSPECIFIED.,.T.,.F.) B_SPLINE_CURVE_WITH_KNOTS((1,2,2,2,2,1),(
    -2.094395102393,0.,2.094395102393,4.188790204786,6.28318530718,
8.377580409573),.UNSPECIFIED.) CURVE() GEOMETRIC_REPRESENTATION_ITEM() 
RATIONAL_B_SPLINE_CURVE((1.,0.5,1.,0.5,1.,0.5,1.)) REPRESENTATION_ITEM(
  '') );
#406 = CARTESIAN_POINT('',(-198.,-153.));
#407 = CARTESIAN_POINT('',(-211.8564064605,-153.));
#408 = CARTESIAN_POINT('',(-204.9282032302,-141.));
#409 = CARTESIAN_POINT('',(-198.,-129.));
#410 = CARTESIAN_POINT('',(-191.0717967697,-141.));
#411 = CARTESIAN_POINT('',(-184.1435935394,-153.));
#412 = CARTESIAN_POINT('',(-198.,-153.));
#413 = ( GEOMETRIC_REPRESENTATION_CONTEXT(2) 
PARAMETRIC_REPRESENTATION_CONTEXT() REPRESENTATION_CONTEXT('2D SPACE',''
  ) );
#414 = PCURVE('',#72,#415);
#415 = DEFINITIONAL_REPRESENTATION('',(#416),#420);
#416 = LINE('',#417,#418);
#417 = CARTESIAN_POINT('',(-0.,22.));
#418 = VECTOR('',#419,1.);
#419 = DIRECTION('',(-1.,0.));
#420 = ( GEOMETRIC_REPRESENTATION_CONTEXT(2) 
PARAMETRIC_REPRESENTATION_CONTEXT() REPRESENTATION_CONTEXT('2D SPACE',''
  ) );
#421 = ORIENTED_EDGE('',*,*,#84,.T.);
#422 = ORIENTED_EDGE('',*,*,#273,.T.);
#423 = ORIENTED_EDGE('',*,*,#424,.T.);
#424 = EDGE_CURVE('',#274,#425,#427,.T.);
#425 = VERTEX_POINT('',#426);
#426 = CARTESIAN_POINT('',(-195.46384003,-144.4314088892,22.));
#427 = SURFACE_CURVE('',#428,(#447,#469),.PCURVE_S1.);
#428 = B_SPLINE_CURVE_WITH_KNOTS('',5,(#429,#430,#431,#432,#433,#434,
    #435,#436,#437,#438,#439,#440,#441,#442,#443,#444,#445,#446),
  .UNSPECIFIED.,.F.,.F.,(6,4,4,4,6),(0.,0.249809501928,0.5,
    0.750190498072,1.),.UNSPECIFIED.);
#429 = CARTESIAN_POINT('',(195.46384003005,-144.4314088892,22.));
#430 = CARTESIAN_POINT('',(175.97487707774,-144.6759477673,22.));
#431 = CARTESIAN_POINT('',(156.47088741732,-144.8991860611,22.));
#432 = CARTESIAN_POINT('',(136.95363079536,-145.0967387895,22.));
#433 = CARTESIAN_POINT('',(117.42540329632,-145.2650426234,22.));
#434 = CARTESIAN_POINT('',(78.322400595863,-145.5385404677,22.));
#435 = CARTESIAN_POINT('',(58.747598573763,-145.6436379068,22.));
#436 = CARTESIAN_POINT('',(39.166999720856,-145.7145478049,22.));
#437 = CARTESIAN_POINT('',(19.58349945514,-145.7499999986,22.));
#438 = CARTESIAN_POINT('',(-19.58349945514,-145.7499999986,22.));
#439 = CARTESIAN_POINT('',(-39.16699972085,-145.7145478049,22.));
#440 = CARTESIAN_POINT('',(-58.74759857377,-145.6436379068,22.));
#441 = CARTESIAN_POINT('',(-78.32240059586,-145.5385404677,22.));
#442 = CARTESIAN_POINT('',(-117.4254032963,-145.2650426234,22.));
#443 = CARTESIAN_POINT('',(-136.9536307953,-145.0967387895,22.));
#444 = CARTESIAN_POINT('',(-156.4708874173,-144.8991860611,22.));
#445 = CARTESIAN_POINT('',(-175.9748770777,-144.6759477673,22.));
#446 = CARTESIAN_POINT('',(-195.46384003,-144.4314088892,22.));
#447 = PCURVE('',#100,#448);
#448 = DEFINITIONAL_REPRESENTATION('',(#449),#468);
#449 = B_SPLINE_CURVE_WITH_KNOTS('',5,(#450,#451,#452,#453,#454,#455,
    #456,#457,#458,#459,#460,#461,#462,#463,#464,#465,#466,#467),
  .UNSPECIFIED.,.F.,.F.,(6,4,4,4,6),(0.,0.249809501928,0.5,
    0.750190498072,1.),.UNSPECIFIED.);
#450 = CARTESIAN_POINT('',(195.46384003005,-144.4314088892));
#451 = CARTESIAN_POINT('',(175.97487707774,-144.6759477673));
#452 = CARTESIAN_POINT('',(156.47088741732,-144.8991860611));
#453 = CARTESIAN_POINT('',(136.95363079536,-145.0967387895));
#454 = CARTESIAN_POINT('',(117.42540329632,-145.2650426234));
#455 = CARTESIAN_POINT('',(78.322400595863,-145.5385404677));
#456 = CARTESIAN_POINT('',(58.747598573763,-145.6436379068));
#457 = CARTESIAN_POINT('',(39.166999720856,-145.7145478049));
#458 = CARTESIAN_POINT('',(19.58349945514,-145.7499999986));
#459 = CARTESIAN_POINT('',(-19.58349945514,-145.7499999986));
#460 = CARTESIAN_POINT('',(-39.16699972085,-145.7145478049));
#461 = CARTESIAN_POINT('',(-58.74759857377,-145.6436379068));
#462 = CARTESIAN_POINT('',(-78.32240059586,-145.5385404677));
#463 = CARTESIAN_POINT('',(-117.4254032963,-145.2650426234));
#464 = CARTESIAN_POINT('',(-136.9536307953,-145.0967387895));
#465 = CARTESIAN_POINT('',(-156.4708874173,-144.8991860611));
#466 = CARTESIAN_POINT('',(-175.9748770777,-144.6759477673));
#467 = CARTESIAN_POINT('',(-195.46384003,-144.4314088892));
#468 = ( GEOMETRIC_REPRESENTATION_CONTEXT(2) 
PARAMETRIC_REPRESENTATION_CONTEXT() REPRESENTATION_CONTEXT('2D SPACE',''
  ) );
#469 = PCURVE('',#361,#470);
#470 = DEFINITIONAL_REPRESENTATION('',(#471),#490);
#471 = B_SPLINE_CURVE_WITH_KNOTS('',5,(#472,#473,#474,#475,#476,#477,
    #478,#479,#480,#481,#482,#483,#484,#485,#486,#487,#488,#489),
  .UNSPECIFIED.,.F.,.F.,(6,4,4,4,6),(0.,0.249809501928,0.5,
    0.750190498072,1.),.UNSPECIFIED.);
#472 = CARTESIAN_POINT('',(406.,0.95));
#473 = CARTESIAN_POINT('',(385.67550610531,0.95));
#474 = CARTESIAN_POINT('',(365.36516420937,0.95));
#475 = CARTESIAN_POINT('',(345.06729365938,0.95));
#476 = CARTESIAN_POINT('',(324.77971868935,0.95));
#477 = CARTESIAN_POINT('',(284.18935176409,0.95));
#478 = CARTESIAN_POINT('',(263.88658278614,0.95));
#479 = CARTESIAN_POINT('',(243.58924543556,0.95));
#480 = CARTESIAN_POINT('',(223.29462236694,0.95));
#481 = CARTESIAN_POINT('',(182.70537763304,0.95));
#482 = CARTESIAN_POINT('',(162.41075456443,0.95));
#483 = CARTESIAN_POINT('',(142.11341721384,0.95));
#484 = CARTESIAN_POINT('',(121.8106482359,0.95));
#485 = CARTESIAN_POINT('',(81.220281310638,0.95));
#486 = CARTESIAN_POINT('',(60.93270634061,0.95));
#487 = CARTESIAN_POINT('',(40.634835790617,0.95));
#488 = CARTESIAN_POINT('',(20.32449389468,0.95));
#489 = CARTESIAN_POINT('',(0.,0.95));
#490 = ( GEOMETRIC_REPRESENTATION_CONTEXT(2) 
PARAMETRIC_REPRESENTATION_CONTEXT() REPRESENTATION_CONTEXT('2D SPACE',''
  ) );
#491 = ORIENTED_EDGE('',*,*,#492,.T.);
#492 = EDGE_CURVE('',#425,#493,#495,.T.);
#493 = VERTEX_POINT('',#494);
#494 = CARTESIAN_POINT('',(-196.0999999999,2.685914952069E-14,22.));
#495 = SURFACE_CURVE('',#496,(#515,#537),.PCURVE_S1.);
#496 = B_SPLINE_CURVE_WITH_KNOTS('',5,(#497,#498,#499,#500,#501,#502,
    #503,#504,#505,#506,#507,#508,#509,#510,#511,#512,#513,#514),
  .UNSPECIFIED.,.F.,.F.,(6,4,4,4,6),(0.,0.249916135029,0.5,
    0.750083864971,1.),.UNSPECIFIED.);
#497 = CARTESIAN_POINT('',(-195.46384003,-144.4314088892,22.));
#498 = CARTESIAN_POINT('',(-195.5868161719,-130.0071977243,22.));
#499 = CARTESIAN_POINT('',(-195.6965068689,-115.5778441719,22.));
#500 = CARTESIAN_POINT('',(-195.7918957436,-101.1440914811,22.));
#501 = CARTESIAN_POINT('',(-195.8721922079,-86.7067663411,22.));
#502 = CARTESIAN_POINT('',(-196.0015826618,-57.81702203892,22.));
#503 = CARTESIAN_POINT('',(-196.0506556776,-43.36459905762,22.));
#504 = CARTESIAN_POINT('',(-196.0835520796,-28.91034369866,22.));
#505 = CARTESIAN_POINT('',(-196.0999999999,-14.45517179508,22.));
#506 = CARTESIAN_POINT('',(-196.0999999999,14.455171795089,22.));
#507 = CARTESIAN_POINT('',(-196.0835520796,28.910343698681,22.));
#508 = CARTESIAN_POINT('',(-196.0506556776,43.364599057627,22.));
#509 = CARTESIAN_POINT('',(-196.0015826618,57.817022038933,22.));
#510 = CARTESIAN_POINT('',(-195.8721922079,86.70676634111,22.));
#511 = CARTESIAN_POINT('',(-195.7918957436,101.14409148117,22.));
#512 = CARTESIAN_POINT('',(-195.6965068689,115.57784417197,22.));
#513 = CARTESIAN_POINT('',(-195.5868161719,130.00719772431,22.));
#514 = CARTESIAN_POINT('',(-195.46384003,144.4314088892,22.));
#515 = PCURVE('',#100,#516);
#516 = DEFINITIONAL_REPRESENTATION('',(#517),#536);
#517 = B_SPLINE_CURVE_WITH_KNOTS('',5,(#518,#519,#520,#521,#522,#523,
    #524,#525,#526,#527,#528,#529,#530,#531,#532,#533,#534,#535),
  .UNSPECIFIED.,.F.,.F.,(6,4,4,4,6),(0.,0.249916135029,0.5,
    0.750083864971,1.),.UNSPECIFIED.);
#518 = CARTESIAN_POINT('',(-195.46384003,-144.4314088892));
#519 = CARTESIAN_POINT('',(-195.5868161719,-130.0071977243));
#520 = CARTESIAN_POINT('',(-195.6965068689,-115.5778441719));
#521 = CARTESIAN_POINT('',(-195.7918957436,-101.1440914811));
#522 = CARTESIAN_POINT('',(-195.8721922079,-86.7067663411));
#523 = CARTESIAN_POINT('',(-196.0015826618,-57.81702203892));
#524 = CARTESIAN_POINT('',(-196.0506556776,-43.36459905762));
#525 = CARTESIAN_POINT('',(-196.0835520796,-28.91034369866));
#526 = CARTESIAN_POINT('',(-196.0999999999,-14.45517179508));
#527 = CARTESIAN_POINT('',(-196.0999999999,14.455171795089));
#528 = CARTESIAN_POINT('',(-196.0835520796,28.910343698681));
#529 = CARTESIAN_POINT('',(-196.0506556776,43.364599057627));
#530 = CARTESIAN_POINT('',(-196.0015826618,57.817022038933));
#531 = CARTESIAN_POINT('',(-195.8721922079,86.70676634111));
#532 = CARTESIAN_POINT('',(-195.7918957436,101.14409148117));
#533 = CARTESIAN_POINT('',(-195.6965068689,115.57784417197));
#534 = CARTESIAN_POINT('',(-195.5868161719,130.00719772431));
#535 = CARTESIAN_POINT('',(-195.46384003,144.4314088892));
#536 = ( GEOMETRIC_REPRESENTATION_CONTEXT(2) 
PARAMETRIC_REPRESENTATION_CONTEXT() REPRESENTATION_CONTEXT('2D SPACE',''
  ) );
#537 = PCURVE('',#538,#557);
#538 = B_SPLINE_SURFACE_WITH_KNOTS('',8,1,(
    (#539,#540)
    ,(#541,#542)
    ,(#543,#544)
    ,(#545,#546)
    ,(#547,#548)
    ,(#549,#550)
    ,(#551,#552)
    ,(#553,#554)
    ,(#555,#556
    )),.UNSPECIFIED.,.F.,.F.,.F.,(9,9),(2,2),(0.,300.),(0.,1.),
  .PIECEWISE_BEZIER_KNOTS.);
#539 = CARTESIAN_POINT('',(-52.27680060107,38.628177784044,3.));
#540 = CARTESIAN_POINT('',(-203.,150.,23.));
#541 = CARTESIAN_POINT('',(-58.42225100513,30.311334903881,3.));
#542 = CARTESIAN_POINT('',(-203.,112.5,23.));
#543 = CARTESIAN_POINT('',(-63.05553380576,20.877125957504,3.));
#544 = CARTESIAN_POINT('',(-203.,75.,23.));
#545 = CARTESIAN_POINT('',(-65.93962949368,10.64632333405,3.));
#546 = CARTESIAN_POINT('',(-203.,37.5,23.));
#547 = CARTESIAN_POINT('',(-66.91917123067,-2.48689957516E-13,3.));
#548 = CARTESIAN_POINT('',(-203.,-8.881784197001E-16,23.));
#549 = CARTESIAN_POINT('',(-65.93962949368,-10.64632333405,3.));
#550 = CARTESIAN_POINT('',(-203.,-37.5,23.));
#551 = CARTESIAN_POINT('',(-63.05553380576,-20.8771259575,3.));
#552 = CARTESIAN_POINT('',(-203.,-75.,23.));
#553 = CARTESIAN_POINT('',(-58.42225100513,-30.31133490388,3.));
#554 = CARTESIAN_POINT('',(-203.,-112.5,23.));
#555 = CARTESIAN_POINT('',(-52.27680060107,-38.62817778404,3.));
#556 = CARTESIAN_POINT('',(-203.,-150.,23.));
#557 = DEFINITIONAL_REPRESENTATION('',(#558),#577);
#558 = B_SPLINE_CURVE_WITH_KNOTS('',5,(#559,#560,#561,#562,#563,#564,
    #565,#566,#567,#568,#569,#570,#571,#572,#573,#574,#575,#576),
  .UNSPECIFIED.,.F.,.F.,(6,4,4,4,6),(0.,0.249916135029,0.5,
    0.750083864971,1.),.UNSPECIFIED.);
#559 = CARTESIAN_POINT('',(300.,0.95));
#560 = CARTESIAN_POINT('',(284.99180689169,0.95));
#561 = CARTESIAN_POINT('',(269.98844706396,0.95));
#562 = CARTESIAN_POINT('',(254.98921838971,0.95));
#563 = CARTESIAN_POINT('',(239.99334198816,0.95));
#564 = CARTESIAN_POINT('',(209.99659530665,0.95));
#565 = CARTESIAN_POINT('',(194.9957282518,0.95));
#566 = CARTESIAN_POINT('',(179.99657952897,0.95));
#567 = CARTESIAN_POINT('',(164.99828971303,0.95));
#568 = CARTESIAN_POINT('',(135.00171028695,0.95));
#569 = CARTESIAN_POINT('',(120.003420471,0.95));
#570 = CARTESIAN_POINT('',(105.00427174819,0.95));
#571 = CARTESIAN_POINT('',(90.003404693335,0.95));
#572 = CARTESIAN_POINT('',(60.006658011822,0.95));
#573 = CARTESIAN_POINT('',(45.010781610283,0.95));
#574 = CARTESIAN_POINT('',(30.011552936026,0.95));
#575 = CARTESIAN_POINT('',(15.008193108307,0.95));
#576 = CARTESIAN_POINT('',(0.,0.95));
#577 = ( GEOMETRIC_REPRESENTATION_CONTEXT(2) 
PARAMETRIC_REPRESENTATION_CONTEXT() REPRESENTATION_CONTEXT('2D SPACE',''
  ) );
#578 = ORIENTED_EDGE('',*,*,#579,.T.);
#579 = EDGE_CURVE('',#493,#580,#582,.T.);
#580 = VERTEX_POINT('',#581);
#581 = CARTESIAN_POINT('',(-206.,0.,22.));
#582 = SURFACE_CURVE('',#583,(#587,#593),.PCURVE_S1.);
#583 = LINE('',#584,#585);
#584 = CARTESIAN_POINT('',(-500.,0.,22.));
#585 = VECTOR('',#586,1.);
#586 = DIRECTION('',(-1.,0.,0.));
#587 = PCURVE('',#100,#588);
#588 = DEFINITIONAL_REPRESENTATION('',(#589),#592);
#589 = B_SPLINE_CURVE_WITH_KNOTS('',1,(#590,#591),.UNSPECIFIED.,.F.,.F.,
  (2,2),(-500.,-294.),.PIECEWISE_BEZIER_KNOTS.);
#590 = CARTESIAN_POINT('',(0.,0.));
#591 = CARTESIAN_POINT('',(-206.,0.));
#592 = ( GEOMETRIC_REPRESENTATION_CONTEXT(2) 
PARAMETRIC_REPRESENTATION_CONTEXT() REPRESENTATION_CONTEXT('2D SPACE',''
  ) );
#593 = PCURVE('',#233,#594);
#594 = DEFINITIONAL_REPRESENTATION('',(#595),#598);
#595 = B_SPLINE_CURVE_WITH_KNOTS('',1,(#596,#597),.UNSPECIFIED.,.F.,.F.,
  (2,2),(-500.,-294.),.PIECEWISE_BEZIER_KNOTS.);
#596 = CARTESIAN_POINT('',(522.,1.E+03));
#597 = CARTESIAN_POINT('',(522.,794.));
#598 = ( GEOMETRIC_REPRESENTATION_CONTEXT(2) 
PARAMETRIC_REPRESENTATION_CONTEXT() REPRESENTATION_CONTEXT('2D SPACE',''
  ) );
#599 = ORIENTED_EDGE('',*,*,#600,.T.);
#600 = EDGE_CURVE('',#580,#395,#601,.T.);
#601 = SURFACE_CURVE('',#602,(#606,#613),.PCURVE_S1.);
#602 = LINE('',#603,#604);
#603 = CARTESIAN_POINT('',(-206.,153.,22.));
#604 = VECTOR('',#605,1.);
#605 = DIRECTION('',(0.,-1.,0.));
#606 = PCURVE('',#100,#607);
#607 = DEFINITIONAL_REPRESENTATION('',(#608),#612);
#608 = LINE('',#609,#610);
#609 = CARTESIAN_POINT('',(-206.,153.));
#610 = VECTOR('',#611,1.);
#611 = DIRECTION('',(0.,-1.));
#612 = ( GEOMETRIC_REPRESENTATION_CONTEXT(2) 
PARAMETRIC_REPRESENTATION_CONTEXT() REPRESENTATION_CONTEXT('2D SPACE',''
  ) );
#613 = PCURVE('',#258,#614);
#614 = DEFINITIONAL_REPRESENTATION('',(#615),#619);
#615 = LINE('',#616,#617);
#616 = CARTESIAN_POINT('',(0.,-22.));
#617 = VECTOR('',#618,1.);
#618 = DIRECTION('',(1.,0.));
#619 = ( GEOMETRIC_REPRESENTATION_CONTEXT(2) 
PARAMETRIC_REPRESENTATION_CONTEXT() REPRESENTATION_CONTEXT('2D SPACE',''
  ) );
#620 = ADVANCED_FACE('',(#621),#72,.T.);
#621 = FACE_BOUND('',#622,.F.);
#622 = EDGE_LOOP('',(#623,#624,#645,#646));
#623 = ORIENTED_EDGE('',*,*,#139,.T.);
#624 = ORIENTED_EDGE('',*,*,#625,.T.);
#625 = EDGE_CURVE('',#140,#395,#626,.T.);
#626 = SURFACE_CURVE('',#627,(#631,#638),.PCURVE_S1.);
#627 = LINE('',#628,#629);
#628 = CARTESIAN_POINT('',(-206.,-145.,0.));
#629 = VECTOR('',#630,1.);
#630 = DIRECTION('',(0.,0.,1.));
#631 = PCURVE('',#72,#632);
#632 = DEFINITIONAL_REPRESENTATION('',(#633),#637);
#633 = LINE('',#634,#635);
#634 = CARTESIAN_POINT('',(-1.570796326795,0.));
#635 = VECTOR('',#636,1.);
#636 = DIRECTION('',(-0.,1.));
#637 = ( GEOMETRIC_REPRESENTATION_CONTEXT(2) 
PARAMETRIC_REPRESENTATION_CONTEXT() REPRESENTATION_CONTEXT('2D SPACE',''
  ) );
#638 = PCURVE('',#258,#639);
#639 = DEFINITIONAL_REPRESENTATION('',(#640),#644);
#640 = LINE('',#641,#642);
#641 = CARTESIAN_POINT('',(298.,0.));
#642 = VECTOR('',#643,1.);
#643 = DIRECTION('',(0.,-1.));
#644 = ( GEOMETRIC_REPRESENTATION_CONTEXT(2) 
PARAMETRIC_REPRESENTATION_CONTEXT() REPRESENTATION_CONTEXT('2D SPACE',''
  ) );
#645 = ORIENTED_EDGE('',*,*,#394,.F.);
#646 = ORIENTED_EDGE('',*,*,#56,.F.);
#647 = ADVANCED_FACE('',(#648),#258,.F.);
#648 = FACE_BOUND('',#649,.F.);
#649 = EDGE_LOOP('',(#650,#651,#670,#671));
#650 = ORIENTED_EDGE('',*,*,#244,.F.);
#651 = ORIENTED_EDGE('',*,*,#652,.T.);
#652 = EDGE_CURVE('',#219,#580,#653,.T.);
#653 = SURFACE_CURVE('',#654,(#658,#664),.PCURVE_S1.);
#654 = LINE('',#655,#656);
#655 = CARTESIAN_POINT('',(-206.,0.,-250.));
#656 = VECTOR('',#657,1.);
#657 = DIRECTION('',(0.,-0.,1.));
#658 = PCURVE('',#258,#659);
#659 = DEFINITIONAL_REPRESENTATION('',(#660),#663);
#660 = B_SPLINE_CURVE_WITH_KNOTS('',1,(#661,#662),.UNSPECIFIED.,.F.,.F.,
  (2,2),(250.,272.),.PIECEWISE_BEZIER_KNOTS.);
#661 = CARTESIAN_POINT('',(153.,0.));
#662 = CARTESIAN_POINT('',(153.,-22.));
#663 = ( GEOMETRIC_REPRESENTATION_CONTEXT(2) 
PARAMETRIC_REPRESENTATION_CONTEXT() REPRESENTATION_CONTEXT('2D SPACE',''
  ) );
#664 = PCURVE('',#233,#665);
#665 = DEFINITIONAL_REPRESENTATION('',(#666),#669);
#666 = B_SPLINE_CURVE_WITH_KNOTS('',1,(#667,#668),.UNSPECIFIED.,.F.,.F.,
  (2,2),(250.,272.),.PIECEWISE_BEZIER_KNOTS.);
#667 = CARTESIAN_POINT('',(500.,794.));
#668 = CARTESIAN_POINT('',(522.,794.));
#669 = ( GEOMETRIC_REPRESENTATION_CONTEXT(2) 
PARAMETRIC_REPRESENTATION_CONTEXT() REPRESENTATION_CONTEXT('2D SPACE',''
  ) );
#670 = ORIENTED_EDGE('',*,*,#600,.T.);
#671 = ORIENTED_EDGE('',*,*,#625,.F.);
#672 = ADVANCED_FACE('',(#673),#233,.T.);
#673 = FACE_BOUND('',#674,.T.);
#674 = EDGE_LOOP('',(#675,#696,#697,#698,#699,#728));
#675 = ORIENTED_EDGE('',*,*,#676,.T.);
#676 = EDGE_CURVE('',#677,#190,#679,.T.);
#677 = VERTEX_POINT('',#678);
#678 = CARTESIAN_POINT('',(-46.,-5.633375276078E-15,3.));
#679 = SURFACE_CURVE('',#680,(#684,#690),.PCURVE_S1.);
#680 = LINE('',#681,#682);
#681 = CARTESIAN_POINT('',(-46.,0.,0.));
#682 = VECTOR('',#683,1.);
#683 = DIRECTION('',(-0.,-0.,-1.));
#684 = PCURVE('',#233,#685);
#685 = DEFINITIONAL_REPRESENTATION('',(#686),#689);
#686 = B_SPLINE_CURVE_WITH_KNOTS('',1,(#687,#688),.UNSPECIFIED.,.F.,.F.,
  (2,2),(-3.0000006,6.E-07),.PIECEWISE_BEZIER_KNOTS.);
#687 = CARTESIAN_POINT('',(503.0000006,954.));
#688 = CARTESIAN_POINT('',(499.9999994,954.));
#689 = ( GEOMETRIC_REPRESENTATION_CONTEXT(2) 
PARAMETRIC_REPRESENTATION_CONTEXT() REPRESENTATION_CONTEXT('2D SPACE',''
  ) );
#690 = PCURVE('',#206,#691);
#691 = DEFINITIONAL_REPRESENTATION('',(#692),#695);
#692 = B_SPLINE_CURVE_WITH_KNOTS('',1,(#693,#694),.UNSPECIFIED.,.F.,.F.,
  (2,2),(-3.0000006,6.E-07),.PIECEWISE_BEZIER_KNOTS.);
#693 = CARTESIAN_POINT('',(-3.14159265359,-3.0000006));
#694 = CARTESIAN_POINT('',(-3.14159265359,6.E-07));
#695 = ( GEOMETRIC_REPRESENTATION_CONTEXT(2) 
PARAMETRIC_REPRESENTATION_CONTEXT() REPRESENTATION_CONTEXT('2D SPACE',''
  ) );
#696 = ORIENTED_EDGE('',*,*,#218,.T.);
#697 = ORIENTED_EDGE('',*,*,#652,.T.);
#698 = ORIENTED_EDGE('',*,*,#579,.F.);
#699 = ORIENTED_EDGE('',*,*,#700,.F.);
#700 = EDGE_CURVE('',#701,#493,#703,.T.);
#701 = VERTEX_POINT('',#702);
#702 = CARTESIAN_POINT('',(-65.,7.960204194458E-15,3.));
#703 = SURFACE_CURVE('',#704,(#710,#719),.PCURVE_S1.);
#704 = B_SPLINE_CURVE_WITH_KNOTS('',4,(#705,#706,#707,#708,#709),
  .UNSPECIFIED.,.F.,.F.,(5,5),(0.,1.),.PIECEWISE_BEZIER_KNOTS.);
#705 = CARTESIAN_POINT('',(-64.9999999994,0.,3.));
#706 = CARTESIAN_POINT('',(-97.77502069954,0.,7.750003));
#707 = CARTESIAN_POINT('',(-130.5500413996,0.,12.500006));
#708 = CARTESIAN_POINT('',(-163.3250620998,0.,17.250009));
#709 = CARTESIAN_POINT('',(-196.1000827999,0.,22.000012));
#710 = PCURVE('',#233,#711);
#711 = DEFINITIONAL_REPRESENTATION('',(#712),#718);
#712 = B_SPLINE_CURVE_WITH_KNOTS('',4,(#713,#714,#715,#716,#717),
  .UNSPECIFIED.,.F.,.F.,(5,5),(0.,1.),.PIECEWISE_BEZIER_KNOTS.);
#713 = CARTESIAN_POINT('',(503.,935.00000000059));
#714 = CARTESIAN_POINT('',(507.750003,902.22497930045));
#715 = CARTESIAN_POINT('',(512.500006,869.44995860031));
#716 = CARTESIAN_POINT('',(517.250009,836.67493790017));
#717 = CARTESIAN_POINT('',(522.000012,803.89991720003));
#718 = ( GEOMETRIC_REPRESENTATION_CONTEXT(2) 
PARAMETRIC_REPRESENTATION_CONTEXT() REPRESENTATION_CONTEXT('2D SPACE',''
  ) );
#719 = PCURVE('',#538,#720);
#720 = DEFINITIONAL_REPRESENTATION('',(#721),#727);
#721 = B_SPLINE_CURVE_WITH_KNOTS('',4,(#722,#723,#724,#725,#726),
  .UNSPECIFIED.,.F.,.F.,(5,5),(0.,1.),.PIECEWISE_BEZIER_KNOTS.);
#722 = CARTESIAN_POINT('',(150.,0.));
#723 = CARTESIAN_POINT('',(150.,0.23750015));
#724 = CARTESIAN_POINT('',(150.,0.4750003));
#725 = CARTESIAN_POINT('',(150.,0.71250045));
#726 = CARTESIAN_POINT('',(150.,0.9500006));
#727 = ( GEOMETRIC_REPRESENTATION_CONTEXT(2) 
PARAMETRIC_REPRESENTATION_CONTEXT() REPRESENTATION_CONTEXT('2D SPACE',''
  ) );
#728 = ORIENTED_EDGE('',*,*,#729,.F.);
#729 = EDGE_CURVE('',#677,#701,#730,.T.);
#730 = SURFACE_CURVE('',#731,(#735,#741),.PCURVE_S1.);
#731 = LINE('',#732,#733);
#732 = CARTESIAN_POINT('',(-500.,0.,3.));
#733 = VECTOR('',#734,1.);
#734 = DIRECTION('',(-1.,0.,0.));
#735 = PCURVE('',#233,#736);
#736 = DEFINITIONAL_REPRESENTATION('',(#737),#740);
#737 = B_SPLINE_CURVE_WITH_KNOTS('',1,(#738,#739),.UNSPECIFIED.,.F.,.F.,
  (2,2),(-500.,-435.),.PIECEWISE_BEZIER_KNOTS.);
#738 = CARTESIAN_POINT('',(503.,1.E+03));
#739 = CARTESIAN_POINT('',(503.,935.));
#740 = ( GEOMETRIC_REPRESENTATION_CONTEXT(2) 
PARAMETRIC_REPRESENTATION_CONTEXT() REPRESENTATION_CONTEXT('2D SPACE',''
  ) );
#741 = PCURVE('',#332,#742);
#742 = DEFINITIONAL_REPRESENTATION('',(#743),#746);
#743 = B_SPLINE_CURVE_WITH_KNOTS('',1,(#744,#745),.UNSPECIFIED.,.F.,.F.,
  (2,2),(-500.,-435.),.PIECEWISE_BEZIER_KNOTS.);
#744 = CARTESIAN_POINT('',(0.,0.));
#745 = CARTESIAN_POINT('',(-65.,0.));
#746 = ( GEOMETRIC_REPRESENTATION_CONTEXT(2) 
PARAMETRIC_REPRESENTATION_CONTEXT() REPRESENTATION_CONTEXT('2D SPACE',''
  ) );
#747 = ADVANCED_FACE('',(#748),#206,.F.);
#748 = FACE_BOUND('',#749,.T.);
#749 = EDGE_LOOP('',(#750,#751,#752,#778));
#750 = ORIENTED_EDGE('',*,*,#189,.F.);
#751 = ORIENTED_EDGE('',*,*,#676,.F.);
#752 = ORIENTED_EDGE('',*,*,#753,.F.);
#753 = EDGE_CURVE('',#297,#677,#754,.T.);
#754 = SURFACE_CURVE('',#755,(#760,#767),.PCURVE_S1.);
#755 = CIRCLE('',#756,46.);
#756 = AXIS2_PLACEMENT_3D('',#757,#758,#759);
#757 = CARTESIAN_POINT('',(0.,0.,3.));
#758 = DIRECTION('',(0.,0.,-1.));
#759 = DIRECTION('',(1.,0.,0.));
#760 = PCURVE('',#206,#761);
#761 = DEFINITIONAL_REPRESENTATION('',(#762),#766);
#762 = LINE('',#763,#764);
#763 = CARTESIAN_POINT('',(-6.28318530718,-3.));
#764 = VECTOR('',#765,1.);
#765 = DIRECTION('',(1.,-0.));
#766 = ( GEOMETRIC_REPRESENTATION_CONTEXT(2) 
PARAMETRIC_REPRESENTATION_CONTEXT() REPRESENTATION_CONTEXT('2D SPACE',''
  ) );
#767 = PCURVE('',#332,#768);
#768 = DEFINITIONAL_REPRESENTATION('',(#769),#777);
#769 = ( BOUNDED_CURVE() B_SPLINE_CURVE(2,(#770,#771,#772,#773,#774,#775
,#776),.UNSPECIFIED.,.T.,.F.) B_SPLINE_CURVE_WITH_KNOTS((1,2,2,2,2,1),(
    -2.094395102393,0.,2.094395102393,4.188790204786,6.28318530718,
8.377580409573),.UNSPECIFIED.) CURVE() GEOMETRIC_REPRESENTATION_ITEM() 
RATIONAL_B_SPLINE_CURVE((1.,0.5,1.,0.5,1.,0.5,1.)) REPRESENTATION_ITEM(
  '') );
#770 = CARTESIAN_POINT('',(46.,0.));
#771 = CARTESIAN_POINT('',(46.,-79.67433714816));
#772 = CARTESIAN_POINT('',(-23.,-39.83716857408));
#773 = CARTESIAN_POINT('',(-92.,-1.126675055216E-14));
#774 = CARTESIAN_POINT('',(-23.,39.837168574084));
#775 = CARTESIAN_POINT('',(46.,79.674337148168));
#776 = CARTESIAN_POINT('',(46.,0.));
#777 = ( GEOMETRIC_REPRESENTATION_CONTEXT(2) 
PARAMETRIC_REPRESENTATION_CONTEXT() REPRESENTATION_CONTEXT('2D SPACE',''
  ) );
#778 = ORIENTED_EDGE('',*,*,#296,.T.);
#779 = ADVANCED_FACE('',(#780),#361,.F.);
#780 = FACE_BOUND('',#781,.F.);
#781 = EDGE_LOOP('',(#782,#804,#825,#826));
#782 = ORIENTED_EDGE('',*,*,#783,.F.);
#783 = EDGE_CURVE('',#784,#425,#786,.T.);
#784 = VERTEX_POINT('',#785);
#785 = CARTESIAN_POINT('',(-52.27680060107,-38.62817778404,3.));
#786 = SURFACE_CURVE('',#787,(#790,#797),.PCURVE_S1.);
#787 = B_SPLINE_CURVE_WITH_KNOTS('',1,(#788,#789),.UNSPECIFIED.,.F.,.F.,
  (2,2),(0.,1.),.PIECEWISE_BEZIER_KNOTS.);
#788 = CARTESIAN_POINT('',(-52.27680060107,-38.62817778404,3.));
#789 = CARTESIAN_POINT('',(-203.,-150.,23.));
#790 = PCURVE('',#361,#791);
#791 = DEFINITIONAL_REPRESENTATION('',(#792),#796);
#792 = LINE('',#793,#794);
#793 = CARTESIAN_POINT('',(0.,0.));
#794 = VECTOR('',#795,1.);
#795 = DIRECTION('',(0.,1.));
#796 = ( GEOMETRIC_REPRESENTATION_CONTEXT(2) 
PARAMETRIC_REPRESENTATION_CONTEXT() REPRESENTATION_CONTEXT('2D SPACE',''
  ) );
#797 = PCURVE('',#538,#798);
#798 = DEFINITIONAL_REPRESENTATION('',(#799),#803);
#799 = LINE('',#800,#801);
#800 = CARTESIAN_POINT('',(300.,0.));
#801 = VECTOR('',#802,1.);
#802 = DIRECTION('',(0.,1.));
#803 = ( GEOMETRIC_REPRESENTATION_CONTEXT(2) 
PARAMETRIC_REPRESENTATION_CONTEXT() REPRESENTATION_CONTEXT('2D SPACE',''
  ) );
#804 = ORIENTED_EDGE('',*,*,#805,.T.);
#805 = EDGE_CURVE('',#784,#318,#806,.T.);
#806 = SURFACE_CURVE('',#807,(#812,#818),.PCURVE_S1.);
#807 = CIRCLE('',#808,65.);
#808 = AXIS2_PLACEMENT_3D('',#809,#810,#811);
#809 = CARTESIAN_POINT('',(0.,0.,3.));
#810 = DIRECTION('',(0.,0.,1.));
#811 = DIRECTION('',(1.,0.,0.));
#812 = PCURVE('',#361,#813);
#813 = DEFINITIONAL_REPRESENTATION('',(#814),#817);
#814 = B_SPLINE_CURVE_WITH_KNOTS('',1,(#815,#816),.UNSPECIFIED.,.F.,.F.,
  (2,2),(3.777962346037,5.646815614732),.PIECEWISE_BEZIER_KNOTS.);
#815 = CARTESIAN_POINT('',(0.,0.));
#816 = CARTESIAN_POINT('',(406.,0.));
#817 = ( GEOMETRIC_REPRESENTATION_CONTEXT(2) 
PARAMETRIC_REPRESENTATION_CONTEXT() REPRESENTATION_CONTEXT('2D SPACE',''
  ) );
#818 = PCURVE('',#332,#819);
#819 = DEFINITIONAL_REPRESENTATION('',(#820),#824);
#820 = CIRCLE('',#821,65.);
#821 = AXIS2_PLACEMENT_2D('',#822,#823);
#822 = CARTESIAN_POINT('',(0.,0.));
#823 = DIRECTION('',(1.,0.));
#824 = ( GEOMETRIC_REPRESENTATION_CONTEXT(2) 
PARAMETRIC_REPRESENTATION_CONTEXT() REPRESENTATION_CONTEXT('2D SPACE',''
  ) );
#825 = ORIENTED_EDGE('',*,*,#343,.T.);
#826 = ORIENTED_EDGE('',*,*,#424,.T.);
#827 = ADVANCED_FACE('',(#828),#332,.T.);
#828 = FACE_BOUND('',#829,.T.);
#829 = EDGE_LOOP('',(#830,#831,#832,#833,#834));
#830 = ORIENTED_EDGE('',*,*,#805,.T.);
#831 = ORIENTED_EDGE('',*,*,#317,.T.);
#832 = ORIENTED_EDGE('',*,*,#753,.T.);
#833 = ORIENTED_EDGE('',*,*,#729,.T.);
#834 = ORIENTED_EDGE('',*,*,#835,.T.);
#835 = EDGE_CURVE('',#701,#784,#836,.T.);
#836 = SURFACE_CURVE('',#837,(#842,#849),.PCURVE_S1.);
#837 = CIRCLE('',#838,65.);
#838 = AXIS2_PLACEMENT_3D('',#839,#840,#841);
#839 = CARTESIAN_POINT('',(0.,0.,3.));
#840 = DIRECTION('',(0.,0.,1.));
#841 = DIRECTION('',(1.,0.,0.));
#842 = PCURVE('',#332,#843);
#843 = DEFINITIONAL_REPRESENTATION('',(#844),#848);
#844 = CIRCLE('',#845,65.);
#845 = AXIS2_PLACEMENT_2D('',#846,#847);
#846 = CARTESIAN_POINT('',(0.,0.));
#847 = DIRECTION('',(1.,0.));
#848 = ( GEOMETRIC_REPRESENTATION_CONTEXT(2) 
PARAMETRIC_REPRESENTATION_CONTEXT() REPRESENTATION_CONTEXT('2D SPACE',''
  ) );
#849 = PCURVE('',#538,#850);
#850 = DEFINITIONAL_REPRESENTATION('',(#851),#854);
#851 = B_SPLINE_CURVE_WITH_KNOTS('',1,(#852,#853),.UNSPECIFIED.,.F.,.F.,
  (2,2),(2.505222961142,3.777962346037),.PIECEWISE_BEZIER_KNOTS.);
#852 = CARTESIAN_POINT('',(0.,0.));
#853 = CARTESIAN_POINT('',(300.,0.));
#854 = ( GEOMETRIC_REPRESENTATION_CONTEXT(2) 
PARAMETRIC_REPRESENTATION_CONTEXT() REPRESENTATION_CONTEXT('2D SPACE',''
  ) );
#855 = ADVANCED_FACE('',(#856),#538,.F.);
#856 = FACE_BOUND('',#857,.F.);
#857 = EDGE_LOOP('',(#858,#859,#860,#861));
#858 = ORIENTED_EDGE('',*,*,#700,.F.);
#859 = ORIENTED_EDGE('',*,*,#835,.T.);
#860 = ORIENTED_EDGE('',*,*,#783,.T.);
#861 = ORIENTED_EDGE('',*,*,#492,.T.);
#862 = ( GEOMETRIC_REPRESENTATION_CONTEXT(3) 
GLOBAL_UNCERTAINTY_ASSIGNED_CONTEXT((#866)) GLOBAL_UNIT_ASSIGNED_CONTEXT
((#863,#864,#865)) REPRESENTATION_CONTEXT('Context #1',
  '3D Context with UNIT and UNCERTAINTY') );
#863 = ( LENGTH_UNIT() NAMED_UNIT(*) SI_UNIT(.MILLI.,.METRE.) );
#864 = ( NAMED_UNIT(*) PLANE_ANGLE_UNIT() SI_UNIT($,.RADIAN.) );
#865 = ( NAMED_UNIT(*) SI_UNIT($,.STERADIAN.) SOLID_ANGLE_UNIT() );
#866 = UNCERTAINTY_MEASURE_WITH_UNIT(LENGTH_MEASURE(1.E-06),#863,
  'distance_accuracy_value','confusion accuracy');
#867 = PRODUCT_RELATED_PRODUCT_CATEGORY('part',$,(#7));
ENDSEC;
END-ISO-10303-21;
