ISO-10303-21;
HEADER;
FILE_DESCRIPTION(('Open CASCADE Model'),'2;1');
FILE_NAME('Open CASCADE Shape Model','2026-05-12T00:26:47',('Author'),(
    'Open CASCADE'),'Open CASCADE STEP processor 7.8','Open CASCADE 7.8'
  ,'Unknown');
FILE_SCHEMA(('AUTOMOTIVE_DESIGN { 1 0 10303 214 1 1 1 1 }'));
ENDSEC;
DATA;
#1 = APPLICATION_PROTOCOL_DEFINITION('international standard',
  'automotive_design',2000,#2);
#2 = APPLICATION_CONTEXT(
  'core data for automotive mechanical design processes');
#3 = SHAPE_DEFINITION_REPRESENTATION(#4,#10);
#4 = PRODUCT_DEFINITION_SHAPE('','',#5);
#5 = PRODUCT_DEFINITION('design','',#6,#9);
#6 = PRODUCT_DEFINITION_FORMATION('','',#7);
#7 = PRODUCT('Open CASCADE STEP translator 7.8 5',
  'Open CASCADE STEP translator 7.8 5','',(#8));
#8 = PRODUCT_CONTEXT('',#2,'mechanical');
#9 = PRODUCT_DEFINITION_CONTEXT('part definition',#2,'design');
#10 = ADVANCED_BREP_SHAPE_REPRESENTATION('',(#11,#15),#693);
#11 = AXIS2_PLACEMENT_3D('',#12,#13,#14);
#12 = CARTESIAN_POINT('',(0.,0.,0.));
#13 = DIRECTION('',(0.,0.,1.));
#14 = DIRECTION('',(1.,0.,-0.));
#15 = MANIFOLD_SOLID_BREP('',#16);
#16 = CLOSED_SHELL('',(#17,#162,#420,#465,#594,#627,#660,#686));
#17 = ADVANCED_FACE('',(#18),#33,.T.);
#18 = FACE_BOUND('',#19,.T.);
#19 = EDGE_LOOP('',(#20,#67,#93,#121));
#20 = ORIENTED_EDGE('',*,*,#21,.T.);
#21 = EDGE_CURVE('',#22,#24,#26,.T.);
#22 = VERTEX_POINT('',#23);
#23 = CARTESIAN_POINT('',(52.181814429521,-38.75639615396,0.));
#24 = VERTEX_POINT('',#25);
#25 = CARTESIAN_POINT('',(65.,0.,0.));
#26 = SURFACE_CURVE('',#27,(#32,#55),.PCURVE_S1.);
#27 = CIRCLE('',#28,65.);
#28 = AXIS2_PLACEMENT_3D('',#29,#30,#31);
#29 = CARTESIAN_POINT('',(0.,0.,0.));
#30 = DIRECTION('',(0.,0.,1.));
#31 = DIRECTION('',(1.,0.,0.));
#32 = PCURVE('',#33,#50);
#33 = B_SPLINE_SURFACE_WITH_KNOTS('',7,1,(
    (#34,#35)
    ,(#36,#37)
    ,(#38,#39)
    ,(#40,#41)
    ,(#42,#43)
    ,(#44,#45)
    ,(#46,#47)
    ,(#48,#49)),.UNSPECIFIED.,.F.,.F.,.F.,(8,8),(2,2),(0.,153.),(0.,1.),
  .PIECEWISE_BEZIER_KNOTS.);
#34 = CARTESIAN_POINT('',(52.181814429521,-38.75639615396,0.));
#35 = CARTESIAN_POINT('',(206.,-153.,50.));
#36 = CARTESIAN_POINT('',(55.718748630532,-33.99424945195,0.));
#37 = CARTESIAN_POINT('',(206.,-131.1428571428,50.));
#38 = CARTESIAN_POINT('',(58.748653341641,-28.8555226241,0.));
#39 = CARTESIAN_POINT('',(206.,-109.2857142857,50.));
#40 = CARTESIAN_POINT('',(61.223415405855,-23.4049964539,0.));
#41 = CARTESIAN_POINT('',(206.,-87.42857142857,50.));
#42 = CARTESIAN_POINT('',(63.10526486153,-17.71513476441,0.));
#43 = CARTESIAN_POINT('',(206.,-65.57142857142,50.));
#44 = CARTESIAN_POINT('',(64.368421426267,-11.8638854705,0.));
#45 = CARTESIAN_POINT('',(206.,-43.71428571428,50.));
#46 = CARTESIAN_POINT('',(65.,-5.931942747008,0.));
#47 = CARTESIAN_POINT('',(206.,-21.85714285714,50.));
#48 = CARTESIAN_POINT('',(65.,-1.42108547152E-14,0.));
#49 = CARTESIAN_POINT('',(206.,0.,50.));
#50 = DEFINITIONAL_REPRESENTATION('',(#51),#54);
#51 = B_SPLINE_CURVE_WITH_KNOTS('',1,(#52,#53),.UNSPECIFIED.,.F.,.F.,(2,
    2),(5.644360703656,6.28318530718),.PIECEWISE_BEZIER_KNOTS.);
#52 = CARTESIAN_POINT('',(0.,0.));
#53 = CARTESIAN_POINT('',(153.,0.));
#54 = ( GEOMETRIC_REPRESENTATION_CONTEXT(2) 
PARAMETRIC_REPRESENTATION_CONTEXT() REPRESENTATION_CONTEXT('2D SPACE',''
  ) );
#55 = PCURVE('',#56,#61);
#56 = PLANE('',#57);
#57 = AXIS2_PLACEMENT_3D('',#58,#59,#60);
#58 = CARTESIAN_POINT('',(0.,0.,0.));
#59 = DIRECTION('',(0.,0.,1.));
#60 = DIRECTION('',(1.,0.,0.));
#61 = DEFINITIONAL_REPRESENTATION('',(#62),#66);
#62 = CIRCLE('',#63,65.);
#63 = AXIS2_PLACEMENT_2D('',#64,#65);
#64 = CARTESIAN_POINT('',(0.,0.));
#65 = DIRECTION('',(1.,0.));
#66 = ( GEOMETRIC_REPRESENTATION_CONTEXT(2) 
PARAMETRIC_REPRESENTATION_CONTEXT() REPRESENTATION_CONTEXT('2D SPACE',''
  ) );
#67 = ORIENTED_EDGE('',*,*,#68,.T.);
#68 = EDGE_CURVE('',#24,#69,#71,.T.);
#69 = VERTEX_POINT('',#70);
#70 = CARTESIAN_POINT('',(206.,0.,50.));
#71 = SURFACE_CURVE('',#72,(#75,#82),.PCURVE_S1.);
#72 = B_SPLINE_CURVE_WITH_KNOTS('',1,(#73,#74),.UNSPECIFIED.,.F.,.F.,(2,
    2),(0.,1.),.PIECEWISE_BEZIER_KNOTS.);
#73 = CARTESIAN_POINT('',(65.,0.,0.));
#74 = CARTESIAN_POINT('',(206.,0.,50.));
#75 = PCURVE('',#33,#76);
#76 = DEFINITIONAL_REPRESENTATION('',(#77),#81);
#77 = LINE('',#78,#79);
#78 = CARTESIAN_POINT('',(153.,0.));
#79 = VECTOR('',#80,1.);
#80 = DIRECTION('',(0.,1.));
#81 = ( GEOMETRIC_REPRESENTATION_CONTEXT(2) 
PARAMETRIC_REPRESENTATION_CONTEXT() REPRESENTATION_CONTEXT('2D SPACE',''
  ) );
#82 = PCURVE('',#83,#88);
#83 = PLANE('',#84);
#84 = AXIS2_PLACEMENT_3D('',#85,#86,#87);
#85 = CARTESIAN_POINT('',(0.,0.,-500.));
#86 = DIRECTION('',(0.,1.,0.));
#87 = DIRECTION('',(0.,0.,1.));
#88 = DEFINITIONAL_REPRESENTATION('',(#89),#92);
#89 = B_SPLINE_CURVE_WITH_KNOTS('',1,(#90,#91),.UNSPECIFIED.,.F.,.F.,(2,
    2),(0.,1.),.PIECEWISE_BEZIER_KNOTS.);
#90 = CARTESIAN_POINT('',(500.,65.));
#91 = CARTESIAN_POINT('',(550.,206.));
#92 = ( GEOMETRIC_REPRESENTATION_CONTEXT(2) 
PARAMETRIC_REPRESENTATION_CONTEXT() REPRESENTATION_CONTEXT('2D SPACE',''
  ) );
#93 = ORIENTED_EDGE('',*,*,#94,.F.);
#94 = EDGE_CURVE('',#95,#69,#97,.T.);
#95 = VERTEX_POINT('',#96);
#96 = CARTESIAN_POINT('',(206.,-153.,50.));
#97 = SURFACE_CURVE('',#98,(#102,#109),.PCURVE_S1.);
#98 = LINE('',#99,#100);
#99 = CARTESIAN_POINT('',(206.,-153.,50.));
#100 = VECTOR('',#101,1.);
#101 = DIRECTION('',(0.,1.,0.));
#102 = PCURVE('',#33,#103);
#103 = DEFINITIONAL_REPRESENTATION('',(#104),#108);
#104 = LINE('',#105,#106);
#105 = CARTESIAN_POINT('',(0.,1.));
#106 = VECTOR('',#107,1.);
#107 = DIRECTION('',(1.,0.));
#108 = ( GEOMETRIC_REPRESENTATION_CONTEXT(2) 
PARAMETRIC_REPRESENTATION_CONTEXT() REPRESENTATION_CONTEXT('2D SPACE',''
  ) );
#109 = PCURVE('',#110,#115);
#110 = PLANE('',#111);
#111 = AXIS2_PLACEMENT_3D('',#112,#113,#114);
#112 = CARTESIAN_POINT('',(206.,0.,50.));
#113 = DIRECTION('',(0.,0.,1.));
#114 = DIRECTION('',(-0.93744648951,0.348129400231,0.));
#115 = DEFINITIONAL_REPRESENTATION('',(#116),#120);
#116 = LINE('',#117,#118);
#117 = CARTESIAN_POINT('',(-53.2637982353,143.42931289506));
#118 = VECTOR('',#119,1.);
#119 = DIRECTION('',(0.348129400231,-0.93744648951));
#120 = ( GEOMETRIC_REPRESENTATION_CONTEXT(2) 
PARAMETRIC_REPRESENTATION_CONTEXT() REPRESENTATION_CONTEXT('2D SPACE',''
  ) );
#121 = ORIENTED_EDGE('',*,*,#122,.F.);
#122 = EDGE_CURVE('',#22,#95,#123,.T.);
#123 = SURFACE_CURVE('',#124,(#127,#134),.PCURVE_S1.);
#124 = B_SPLINE_CURVE_WITH_KNOTS('',1,(#125,#126),.UNSPECIFIED.,.F.,.F.,
  (2,2),(0.,1.),.PIECEWISE_BEZIER_KNOTS.);
#125 = CARTESIAN_POINT('',(52.181814429521,-38.75639615396,0.));
#126 = CARTESIAN_POINT('',(206.,-153.,50.));
#127 = PCURVE('',#33,#128);
#128 = DEFINITIONAL_REPRESENTATION('',(#129),#133);
#129 = LINE('',#130,#131);
#130 = CARTESIAN_POINT('',(0.,0.));
#131 = VECTOR('',#132,1.);
#132 = DIRECTION('',(0.,1.));
#133 = ( GEOMETRIC_REPRESENTATION_CONTEXT(2) 
PARAMETRIC_REPRESENTATION_CONTEXT() REPRESENTATION_CONTEXT('2D SPACE',''
  ) );
#134 = PCURVE('',#135,#156);
#135 = B_SPLINE_SURFACE_WITH_KNOTS('',9,1,(
    (#136,#137)
    ,(#138,#139)
    ,(#140,#141)
    ,(#142,#143)
    ,(#144,#145)
    ,(#146,#147)
    ,(#148,#149)
    ,(#150,#151)
    ,(#152,#153)
    ,(#154,#155
    )),.UNSPECIFIED.,.F.,.F.,.F.,(10,10),(2,2),(0.,412.),(0.,1.),
  .PIECEWISE_BEZIER_KNOTS.);
#136 = CARTESIAN_POINT('',(-52.18181442952,-38.75639615396,0.));
#137 = CARTESIAN_POINT('',(-206.,-153.,50.));
#138 = CARTESIAN_POINT('',(-44.15517769365,-49.56350182447,0.));
#139 = CARTESIAN_POINT('',(-160.2222222222,-153.,50.));
#140 = CARTESIAN_POINT('',(-33.61056181477,-58.50045920891,0.));
#141 = CARTESIAN_POINT('',(-114.4444444444,-153.,50.));
#142 = CARTESIAN_POINT('',(-21.04594496651,-64.89677535725,0.));
#143 = CARTESIAN_POINT('',(-68.66666666666,-153.,50.));
#144 = CARTESIAN_POINT('',(-7.167600710475,-68.23671761123,0.));
#145 = CARTESIAN_POINT('',(-22.88888888888,-153.,50.));
#146 = CARTESIAN_POINT('',(7.167600710474,-68.23671761121,0.));
#147 = CARTESIAN_POINT('',(22.888888888889,-153.,50.));
#148 = CARTESIAN_POINT('',(21.04594496652,-64.89677535726,0.));
#149 = CARTESIAN_POINT('',(68.666666666667,-153.,50.));
#150 = CARTESIAN_POINT('',(33.610561814769,-58.50045920891,0.));
#151 = CARTESIAN_POINT('',(114.44444444444,-153.,50.));
#152 = CARTESIAN_POINT('',(44.155177693659,-49.56350182447,0.));
#153 = CARTESIAN_POINT('',(160.22222222222,-153.,50.));
#154 = CARTESIAN_POINT('',(52.181814429521,-38.75639615396,0.));
#155 = CARTESIAN_POINT('',(206.,-153.,50.));
#156 = DEFINITIONAL_REPRESENTATION('',(#157),#161);
#157 = LINE('',#158,#159);
#158 = CARTESIAN_POINT('',(412.,0.));
#159 = VECTOR('',#160,1.);
#160 = DIRECTION('',(0.,1.));
#161 = ( GEOMETRIC_REPRESENTATION_CONTEXT(2) 
PARAMETRIC_REPRESENTATION_CONTEXT() REPRESENTATION_CONTEXT('2D SPACE',''
  ) );
#162 = ADVANCED_FACE('',(#163),#56,.F.);
#163 = FACE_BOUND('',#164,.F.);
#164 = EDGE_LOOP('',(#165,#166,#187,#272,#373,#399));
#165 = ORIENTED_EDGE('',*,*,#21,.T.);
#166 = ORIENTED_EDGE('',*,*,#167,.T.);
#167 = EDGE_CURVE('',#24,#168,#170,.T.);
#168 = VERTEX_POINT('',#169);
#169 = CARTESIAN_POINT('',(62.280876494024,3.545636559918E-15,
    -6.938893903907E-17));
#170 = SURFACE_CURVE('',#171,(#175,#181),.PCURVE_S1.);
#171 = LINE('',#172,#173);
#172 = CARTESIAN_POINT('',(0.,0.,0.));
#173 = VECTOR('',#174,1.);
#174 = DIRECTION('',(-1.,0.,0.));
#175 = PCURVE('',#56,#176);
#176 = DEFINITIONAL_REPRESENTATION('',(#177),#180);
#177 = B_SPLINE_CURVE_WITH_KNOTS('',1,(#178,#179),.UNSPECIFIED.,.F.,.F.,
  (2,2),(-65.,0.),.PIECEWISE_BEZIER_KNOTS.);
#178 = CARTESIAN_POINT('',(65.,0.));
#179 = CARTESIAN_POINT('',(0.,0.));
#180 = ( GEOMETRIC_REPRESENTATION_CONTEXT(2) 
PARAMETRIC_REPRESENTATION_CONTEXT() REPRESENTATION_CONTEXT('2D SPACE',''
  ) );
#181 = PCURVE('',#83,#182);
#182 = DEFINITIONAL_REPRESENTATION('',(#183),#186);
#183 = B_SPLINE_CURVE_WITH_KNOTS('',1,(#184,#185),.UNSPECIFIED.,.F.,.F.,
  (2,2),(-65.,0.),.PIECEWISE_BEZIER_KNOTS.);
#184 = CARTESIAN_POINT('',(500.,65.));
#185 = CARTESIAN_POINT('',(500.,0.));
#186 = ( GEOMETRIC_REPRESENTATION_CONTEXT(2) 
PARAMETRIC_REPRESENTATION_CONTEXT() REPRESENTATION_CONTEXT('2D SPACE',''
  ) );
#187 = ORIENTED_EDGE('',*,*,#188,.T.);
#188 = EDGE_CURVE('',#168,#189,#191,.T.);
#189 = VERTEX_POINT('',#190);
#190 = CARTESIAN_POINT('',(50.169076931367,-37.07074650101,
    -4.163336342344E-17));
#191 = SURFACE_CURVE('',#192,(#211,#233),.PCURVE_S1.);
#192 = B_SPLINE_CURVE_WITH_KNOTS('',5,(#193,#194,#195,#196,#197,#198,
    #199,#200,#201,#202,#203,#204,#205,#206,#207,#208,#209,#210),
  .UNSPECIFIED.,.F.,.F.,(6,4,4,4,6),(0.,0.250007567041,0.500012060954,
    0.750010486123,1.),.UNSPECIFIED.);
#193 = CARTESIAN_POINT('',(62.280876494024,-3.552713678801E-14,0.));
#194 = CARTESIAN_POINT('',(62.280876494024,-1.983752371318,0.));
#195 = CARTESIAN_POINT('',(62.202570893406,-3.967504996852,0.));
#196 = CARTESIAN_POINT('',(62.045959554248,-5.947106579362,0.));
#197 = CARTESIAN_POINT('',(61.811372745154,-7.918407553789,0.));
#198 = CARTESIAN_POINT('',(61.1875657945,-11.83618599323,0.));
#199 = CARTESIAN_POINT('',(60.798347472385,-13.78266426976,0.));
#200 = CARTESIAN_POINT('',(60.332468924938,-15.71264463494,0.));
#201 = CARTESIAN_POINT('',(59.790912728494,-17.62208197742,0.));
#202 = CARTESIAN_POINT('',(58.559054255942,-21.39193742848,0.));
#203 = CARTESIAN_POINT('',(57.868755431503,-23.25235721372,0.));
#204 = CARTESIAN_POINT('',(57.105376274554,-25.08434840806,0.));
#205 = CARTESIAN_POINT('',(56.270526960554,-26.88407218339,0.));
#206 = CARTESIAN_POINT('',(54.461729907996,-30.41154401844,0.));
#207 = CARTESIAN_POINT('',(53.487786895257,-32.13929509838,0.));
#208 = CARTESIAN_POINT('',(52.44618760591,-33.82740401785,0.));
#209 = CARTESIAN_POINT('',(51.339129402056,-35.47233493229,0.));
#210 = CARTESIAN_POINT('',(50.169076931367,-37.07074650101,0.));
#211 = PCURVE('',#56,#212);
#212 = DEFINITIONAL_REPRESENTATION('',(#213),#232);
#213 = B_SPLINE_CURVE_WITH_KNOTS('',5,(#214,#215,#216,#217,#218,#219,
    #220,#221,#222,#223,#224,#225,#226,#227,#228,#229,#230,#231),
  .UNSPECIFIED.,.F.,.F.,(6,4,4,4,6),(0.,0.250007567041,0.500012060954,
    0.750010486123,1.),.UNSPECIFIED.);
#214 = CARTESIAN_POINT('',(62.280876494024,-3.552713678801E-14));
#215 = CARTESIAN_POINT('',(62.280876494024,-1.983752371318));
#216 = CARTESIAN_POINT('',(62.202570893406,-3.967504996852));
#217 = CARTESIAN_POINT('',(62.045959554248,-5.947106579362));
#218 = CARTESIAN_POINT('',(61.811372745154,-7.918407553789));
#219 = CARTESIAN_POINT('',(61.1875657945,-11.83618599323));
#220 = CARTESIAN_POINT('',(60.798347472385,-13.78266426976));
#221 = CARTESIAN_POINT('',(60.332468924938,-15.71264463494));
#222 = CARTESIAN_POINT('',(59.790912728494,-17.62208197742));
#223 = CARTESIAN_POINT('',(58.559054255942,-21.39193742848));
#224 = CARTESIAN_POINT('',(57.868755431503,-23.25235721372));
#225 = CARTESIAN_POINT('',(57.105376274554,-25.08434840806));
#226 = CARTESIAN_POINT('',(56.270526960554,-26.88407218339));
#227 = CARTESIAN_POINT('',(54.461729907996,-30.41154401844));
#228 = CARTESIAN_POINT('',(53.487786895257,-32.13929509838));
#229 = CARTESIAN_POINT('',(52.44618760591,-33.82740401785));
#230 = CARTESIAN_POINT('',(51.339129402056,-35.47233493229));
#231 = CARTESIAN_POINT('',(50.169076931367,-37.07074650101));
#232 = ( GEOMETRIC_REPRESENTATION_CONTEXT(2) 
PARAMETRIC_REPRESENTATION_CONTEXT() REPRESENTATION_CONTEXT('2D SPACE',''
  ) );
#233 = PCURVE('',#234,#251);
#234 = B_SPLINE_SURFACE_WITH_KNOTS('',7,1,(
    (#235,#236)
    ,(#237,#238)
    ,(#239,#240)
    ,(#241,#242)
    ,(#243,#244)
    ,(#245,#246)
    ,(#247,#248)
    ,(#249,#250
    )),.UNSPECIFIED.,.F.,.F.,.F.,(8,8),(2,2),(0.,150.),(0.,1.),
  .PIECEWISE_BEZIER_KNOTS.);
#235 = CARTESIAN_POINT('',(49.864025188715,-36.84533880939,-0.1));
#236 = CARTESIAN_POINT('',(203.,-150.,50.1));
#237 = CARTESIAN_POINT('',(53.213633321039,-32.31220247031,-1.E-01));
#238 = CARTESIAN_POINT('',(203.,-128.5714285714,50.1));
#239 = CARTESIAN_POINT('',(56.082449619341,-27.42380125619,-0.1));
#240 = CARTESIAN_POINT('',(203.,-107.1428571428,50.1));
#241 = CARTESIAN_POINT('',(58.425258653927,-22.24132762247,-1.E-01));
#242 = CARTESIAN_POINT('',(203.,-85.71428571428,50.1));
#243 = CARTESIAN_POINT('',(60.206577758023,-16.83316660214,-0.1));
#244 = CARTESIAN_POINT('',(203.,-64.28571428571,50.1));
#245 = CARTESIAN_POINT('',(61.402192406288,-11.27283453026,-1.E-01));
#246 = CARTESIAN_POINT('',(203.,-42.85714285714,50.1));
#247 = CARTESIAN_POINT('',(62.,-5.636417275965,-0.1));
#248 = CARTESIAN_POINT('',(203.,-21.42857142857,50.1));
#249 = CARTESIAN_POINT('',(62.,-1.7763568394E-14,-0.1));
#250 = CARTESIAN_POINT('',(203.,0.,50.1));
#251 = DEFINITIONAL_REPRESENTATION('',(#252),#271);
#252 = B_SPLINE_CURVE_WITH_KNOTS('',5,(#253,#254,#255,#256,#257,#258,
    #259,#260,#261,#262,#263,#264,#265,#266,#267,#268,#269,#270),
  .UNSPECIFIED.,.F.,.F.,(6,4,4,4,6),(0.,0.250007567041,0.500012060954,
    0.750010486123,1.),.UNSPECIFIED.);
#253 = CARTESIAN_POINT('',(150.,1.99203187251E-03));
#254 = CARTESIAN_POINT('',(142.50001565708,1.99203187251E-03));
#255 = CARTESIAN_POINT('',(135.00003034914,1.99203187251E-03));
#256 = CARTESIAN_POINT('',(127.50003913389,1.99203187251E-03));
#257 = CARTESIAN_POINT('',(120.00003063327,1.99203187251E-03));
#258 = CARTESIAN_POINT('',(105.00006155814,1.99203187251E-03));
#259 = CARTESIAN_POINT('',(97.500099055624,1.99203187251E-03));
#260 = CARTESIAN_POINT('',(90.000107646183,1.99203187251E-03));
#261 = CARTESIAN_POINT('',(82.500076147041,1.99203187251E-03));
#262 = CARTESIAN_POINT('',(67.500105913844,1.99203187251E-03));
#263 = CARTESIAN_POINT('',(60.000165252814,1.99203187251E-03));
#264 = CARTESIAN_POINT('',(52.500173460827,1.99203187251E-03));
#265 = CARTESIAN_POINT('',(45.000119737842,1.99203187251E-03));
#266 = CARTESIAN_POINT('',(30.000147606852,1.99203187251E-03));
#267 = CARTESIAN_POINT('',(22.500227273958,1.99203187251E-03));
#268 = CARTESIAN_POINT('',(15.000234920545,1.99203187251E-03));
#269 = CARTESIAN_POINT('',(7.500160307334,1.99203187251E-03));
#270 = CARTESIAN_POINT('',(0.,1.99203187251E-03));
#271 = ( GEOMETRIC_REPRESENTATION_CONTEXT(2) 
PARAMETRIC_REPRESENTATION_CONTEXT() REPRESENTATION_CONTEXT('2D SPACE',''
  ) );
#272 = ORIENTED_EDGE('',*,*,#273,.T.);
#273 = EDGE_CURVE('',#189,#274,#276,.T.);
#274 = VERTEX_POINT('',#275);
#275 = CARTESIAN_POINT('',(-5.533701939212E-15,-62.17529877851,0.));
#276 = SURFACE_CURVE('',#277,(#300,#326),.PCURVE_S1.);
#277 = B_SPLINE_CURVE_WITH_KNOTS('',6,(#278,#279,#280,#281,#282,#283,
    #284,#285,#286,#287,#288,#289,#290,#291,#292,#293,#294,#295,#296,
    #297,#298,#299),.UNSPECIFIED.,.F.,.F.,(7,5,5,5,7),(0.,0.249986455201
    ,0.500000000001,0.750013544799,1.),.UNSPECIFIED.);
#278 = CARTESIAN_POINT('',(50.169076931367,-37.07074650101,0.));
#279 = CARTESIAN_POINT('',(47.271747521246,-40.94618982356,0.));
#280 = CARTESIAN_POINT('',(44.012344491528,-44.55390804303,0.));
#281 = CARTESIAN_POINT('',(40.42221668818,-47.85156254282,0.));
#282 = CARTESIAN_POINT('',(36.539238225035,-50.80185122733,0.));
#283 = CARTESIAN_POINT('',(32.406611219222,-53.37381950709,0.));
#284 = CARTESIAN_POINT('',(23.735648779603,-57.71401880155,0.));
#285 = CARTESIAN_POINT('',(19.197191489149,-59.48220169995,0.));
#286 = CARTESIAN_POINT('',(14.503023841597,-60.82465001591,0.));
#287 = CARTESIAN_POINT('',(9.703741122062,-61.72508751254,0.));
#288 = CARTESIAN_POINT('',(4.851848769746,-62.17529877851,0.));
#289 = CARTESIAN_POINT('',(-4.851848769739,-62.17529877851,0.));
#290 = CARTESIAN_POINT('',(-9.703741122093,-61.72508751254,0.));
#291 = CARTESIAN_POINT('',(-14.50302384155,-60.82465001592,0.));
#292 = CARTESIAN_POINT('',(-19.19719148918,-59.48220169994,0.));
#293 = CARTESIAN_POINT('',(-23.73564877959,-57.71401880156,0.));
#294 = CARTESIAN_POINT('',(-32.40661121922,-53.37381950708,0.));
#295 = CARTESIAN_POINT('',(-36.53923822501,-50.80185122734,0.));
#296 = CARTESIAN_POINT('',(-40.4222166882,-47.8515625428,0.));
#297 = CARTESIAN_POINT('',(-44.01234449151,-44.55390804305,0.));
#298 = CARTESIAN_POINT('',(-47.27174752125,-40.94618982355,0.));
#299 = CARTESIAN_POINT('',(-50.16907693136,-37.07074650101,0.));
#300 = PCURVE('',#56,#301);
#301 = DEFINITIONAL_REPRESENTATION('',(#302),#325);
#302 = B_SPLINE_CURVE_WITH_KNOTS('',6,(#303,#304,#305,#306,#307,#308,
    #309,#310,#311,#312,#313,#314,#315,#316,#317,#318,#319,#320,#321,
    #322,#323,#324),.UNSPECIFIED.,.F.,.F.,(7,5,5,5,7),(0.,0.249986455201
    ,0.500000000001,0.750013544799,1.),.UNSPECIFIED.);
#303 = CARTESIAN_POINT('',(50.169076931367,-37.07074650101));
#304 = CARTESIAN_POINT('',(47.271747521246,-40.94618982356));
#305 = CARTESIAN_POINT('',(44.012344491528,-44.55390804303));
#306 = CARTESIAN_POINT('',(40.42221668818,-47.85156254282));
#307 = CARTESIAN_POINT('',(36.539238225035,-50.80185122733));
#308 = CARTESIAN_POINT('',(32.406611219222,-53.37381950709));
#309 = CARTESIAN_POINT('',(23.735648779603,-57.71401880155));
#310 = CARTESIAN_POINT('',(19.197191489149,-59.48220169995));
#311 = CARTESIAN_POINT('',(14.503023841597,-60.82465001591));
#312 = CARTESIAN_POINT('',(9.703741122062,-61.72508751254));
#313 = CARTESIAN_POINT('',(4.851848769746,-62.17529877851));
#314 = CARTESIAN_POINT('',(-4.851848769739,-62.17529877851));
#315 = CARTESIAN_POINT('',(-9.703741122093,-61.72508751254));
#316 = CARTESIAN_POINT('',(-14.50302384155,-60.82465001592));
#317 = CARTESIAN_POINT('',(-19.19719148918,-59.48220169994));
#318 = CARTESIAN_POINT('',(-23.73564877959,-57.71401880156));
#319 = CARTESIAN_POINT('',(-32.40661121922,-53.37381950708));
#320 = CARTESIAN_POINT('',(-36.53923822501,-50.80185122734));
#321 = CARTESIAN_POINT('',(-40.4222166882,-47.8515625428));
#322 = CARTESIAN_POINT('',(-44.01234449151,-44.55390804305));
#323 = CARTESIAN_POINT('',(-47.27174752125,-40.94618982355));
#324 = CARTESIAN_POINT('',(-50.16907693136,-37.07074650101));
#325 = ( GEOMETRIC_REPRESENTATION_CONTEXT(2) 
PARAMETRIC_REPRESENTATION_CONTEXT() REPRESENTATION_CONTEXT('2D SPACE',''
  ) );
#326 = PCURVE('',#327,#348);
#327 = B_SPLINE_SURFACE_WITH_KNOTS('',9,1,(
    (#328,#329)
    ,(#330,#331)
    ,(#332,#333)
    ,(#334,#335)
    ,(#336,#337)
    ,(#338,#339)
    ,(#340,#341)
    ,(#342,#343)
    ,(#344,#345)
    ,(#346,#347
    )),.UNSPECIFIED.,.F.,.F.,.F.,(10,10),(2,2),(0.,406.),(0.,1.),
  .PIECEWISE_BEZIER_KNOTS.);
#328 = CARTESIAN_POINT('',(-49.86402518871,-36.84533880939,-1.E-01));
#329 = CARTESIAN_POINT('',(-203.,-150.,50.1));
#330 = CARTESIAN_POINT('',(-42.21307720314,-47.19962174986,-1.E-01));
#331 = CARTESIAN_POINT('',(-157.8888888888,-150.,50.1));
#332 = CARTESIAN_POINT('',(-32.14329985712,-55.76659360026,-0.1));
#333 = CARTESIAN_POINT('',(-112.7777777777,-150.,50.1));
#334 = CARTESIAN_POINT('',(-20.13186726624,-61.90046644372,
    -9.999999999997E-02));
#335 = CARTESIAN_POINT('',(-67.66666666666,-150.,50.1));
#336 = CARTESIAN_POINT('',(-6.857102552539,-65.10413895098,-0.1));
#337 = CARTESIAN_POINT('',(-22.55555555555,-150.,50.1));
#338 = CARTESIAN_POINT('',(6.857102552538,-65.10413895094,
    -9.999999999997E-02));
#339 = CARTESIAN_POINT('',(22.555555555556,-150.,50.1));
#340 = CARTESIAN_POINT('',(20.13186726624,-61.90046644374,-0.1));
#341 = CARTESIAN_POINT('',(67.666666666667,-150.,50.1));
#342 = CARTESIAN_POINT('',(32.143299857126,-55.76659360025,
    -9.999999999999E-02));
#343 = CARTESIAN_POINT('',(112.77777777777,-150.,50.1));
#344 = CARTESIAN_POINT('',(42.213077203149,-47.19962174986,-0.1));
#345 = CARTESIAN_POINT('',(157.88888888888,-150.,50.1));
#346 = CARTESIAN_POINT('',(49.864025188715,-36.84533880939,-1.E-01));
#347 = CARTESIAN_POINT('',(203.,-150.,50.1));
#348 = DEFINITIONAL_REPRESENTATION('',(#349),#372);
#349 = B_SPLINE_CURVE_WITH_KNOTS('',6,(#350,#351,#352,#353,#354,#355,
    #356,#357,#358,#359,#360,#361,#362,#363,#364,#365,#366,#367,#368,
    #369,#370,#371),.UNSPECIFIED.,.F.,.F.,(7,5,5,5,7),(0.,0.249986455201
    ,0.500000000001,0.750013544799,1.),.UNSPECIFIED.);
#350 = CARTESIAN_POINT('',(406.,1.99203187251E-03));
#351 = CARTESIAN_POINT('',(389.0819276875,1.99203187251E-03));
#352 = CARTESIAN_POINT('',(372.16437131772,1.99203187251E-03));
#353 = CARTESIAN_POINT('',(355.24760214867,1.99203187251E-03));
#354 = CARTESIAN_POINT('',(338.33137199466,1.99203187251E-03));
#355 = CARTESIAN_POINT('',(321.41542361657,1.99203187251E-03));
#356 = CARTESIAN_POINT('',(287.58274335602,1.99203187251E-03));
#357 = CARTESIAN_POINT('',(270.66570906545,1.99203187251E-03));
#358 = CARTESIAN_POINT('',(253.74913941061,1.99203187251E-03));
#359 = CARTESIAN_POINT('',(236.83276318453,1.99203187251E-03));
#360 = CARTESIAN_POINT('',(219.91630601655,1.99203187251E-03));
#361 = CARTESIAN_POINT('',(186.08369398347,1.99203187251E-03));
#362 = CARTESIAN_POINT('',(169.16723681535,1.99203187251E-03));
#363 = CARTESIAN_POINT('',(152.25086058954,1.99203187251E-03));
#364 = CARTESIAN_POINT('',(135.33429093442,1.99203187251E-03));
#365 = CARTESIAN_POINT('',(118.417256644,1.99203187251E-03));
#366 = CARTESIAN_POINT('',(84.5845763834,1.99203187251E-03));
#367 = CARTESIAN_POINT('',(67.668628005409,1.99203187251E-03));
#368 = CARTESIAN_POINT('',(50.752397851205,1.99203187251E-03));
#369 = CARTESIAN_POINT('',(33.835628682355,1.99203187251E-03));
#370 = CARTESIAN_POINT('',(16.918072312469,1.99203187251E-03));
#371 = CARTESIAN_POINT('',(0.,1.99203187251E-03));
#372 = ( GEOMETRIC_REPRESENTATION_CONTEXT(2) 
PARAMETRIC_REPRESENTATION_CONTEXT() REPRESENTATION_CONTEXT('2D SPACE',''
  ) );
#373 = ORIENTED_EDGE('',*,*,#374,.F.);
#374 = EDGE_CURVE('',#375,#274,#377,.T.);
#375 = VERTEX_POINT('',#376);
#376 = CARTESIAN_POINT('',(-1.194030629169E-14,-65.,0.));
#377 = SURFACE_CURVE('',#378,(#382,#388),.PCURVE_S1.);
#378 = LINE('',#379,#380);
#379 = CARTESIAN_POINT('',(0.,-500.,0.));
#380 = VECTOR('',#381,1.);
#381 = DIRECTION('',(0.,1.,0.));
#382 = PCURVE('',#56,#383);
#383 = DEFINITIONAL_REPRESENTATION('',(#384),#387);
#384 = B_SPLINE_CURVE_WITH_KNOTS('',1,(#385,#386),.UNSPECIFIED.,.F.,.F.,
  (2,2),(435.,500.),.PIECEWISE_BEZIER_KNOTS.);
#385 = CARTESIAN_POINT('',(0.,-65.));
#386 = CARTESIAN_POINT('',(0.,0.));
#387 = ( GEOMETRIC_REPRESENTATION_CONTEXT(2) 
PARAMETRIC_REPRESENTATION_CONTEXT() REPRESENTATION_CONTEXT('2D SPACE',''
  ) );
#388 = PCURVE('',#389,#394);
#389 = PLANE('',#390);
#390 = AXIS2_PLACEMENT_3D('',#391,#392,#393);
#391 = CARTESIAN_POINT('',(0.,-1.E+03,-500.));
#392 = DIRECTION('',(1.,0.,0.));
#393 = DIRECTION('',(0.,0.,1.));
#394 = DEFINITIONAL_REPRESENTATION('',(#395),#398);
#395 = B_SPLINE_CURVE_WITH_KNOTS('',1,(#396,#397),.UNSPECIFIED.,.F.,.F.,
  (2,2),(435.,500.),.PIECEWISE_BEZIER_KNOTS.);
#396 = CARTESIAN_POINT('',(500.,-935.));
#397 = CARTESIAN_POINT('',(500.,-1.E+03));
#398 = ( GEOMETRIC_REPRESENTATION_CONTEXT(2) 
PARAMETRIC_REPRESENTATION_CONTEXT() REPRESENTATION_CONTEXT('2D SPACE',''
  ) );
#399 = ORIENTED_EDGE('',*,*,#400,.T.);
#400 = EDGE_CURVE('',#375,#22,#401,.T.);
#401 = SURFACE_CURVE('',#402,(#407,#414),.PCURVE_S1.);
#402 = CIRCLE('',#403,65.);
#403 = AXIS2_PLACEMENT_3D('',#404,#405,#406);
#404 = CARTESIAN_POINT('',(0.,0.,0.));
#405 = DIRECTION('',(0.,0.,1.));
#406 = DIRECTION('',(1.,0.,0.));
#407 = PCURVE('',#56,#408);
#408 = DEFINITIONAL_REPRESENTATION('',(#409),#413);
#409 = CIRCLE('',#410,65.);
#410 = AXIS2_PLACEMENT_2D('',#411,#412);
#411 = CARTESIAN_POINT('',(0.,0.));
#412 = DIRECTION('',(1.,0.));
#413 = ( GEOMETRIC_REPRESENTATION_CONTEXT(2) 
PARAMETRIC_REPRESENTATION_CONTEXT() REPRESENTATION_CONTEXT('2D SPACE',''
  ) );
#414 = PCURVE('',#135,#415);
#415 = DEFINITIONAL_REPRESENTATION('',(#416),#419);
#416 = B_SPLINE_CURVE_WITH_KNOTS('',1,(#417,#418),.UNSPECIFIED.,.F.,.F.,
  (2,2),(3.780417257114,5.644360703656),.PIECEWISE_BEZIER_KNOTS.);
#417 = CARTESIAN_POINT('',(0.,0.));
#418 = CARTESIAN_POINT('',(412.,0.));
#419 = ( GEOMETRIC_REPRESENTATION_CONTEXT(2) 
PARAMETRIC_REPRESENTATION_CONTEXT() REPRESENTATION_CONTEXT('2D SPACE',''
  ) );
#420 = ADVANCED_FACE('',(#421),#83,.T.);
#421 = FACE_BOUND('',#422,.T.);
#422 = EDGE_LOOP('',(#423,#424,#425,#446));
#423 = ORIENTED_EDGE('',*,*,#68,.F.);
#424 = ORIENTED_EDGE('',*,*,#167,.T.);
#425 = ORIENTED_EDGE('',*,*,#426,.T.);
#426 = EDGE_CURVE('',#168,#427,#429,.T.);
#427 = VERTEX_POINT('',#428);
#428 = CARTESIAN_POINT('',(202.71912350597,7.077118882073E-18,50.));
#429 = SURFACE_CURVE('',#430,(#433,#439),.PCURVE_S1.);
#430 = B_SPLINE_CURVE_WITH_KNOTS('',1,(#431,#432),.UNSPECIFIED.,.F.,.F.,
  (2,2),(0.,1.),.PIECEWISE_BEZIER_KNOTS.);
#431 = CARTESIAN_POINT('',(62.,3.552713678801E-15,-0.1));
#432 = CARTESIAN_POINT('',(203.,0.,50.1));
#433 = PCURVE('',#83,#434);
#434 = DEFINITIONAL_REPRESENTATION('',(#435),#438);
#435 = B_SPLINE_CURVE_WITH_KNOTS('',1,(#436,#437),.UNSPECIFIED.,.F.,.F.,
  (2,2),(0.,1.),.PIECEWISE_BEZIER_KNOTS.);
#436 = CARTESIAN_POINT('',(499.9,62.));
#437 = CARTESIAN_POINT('',(550.1,203.));
#438 = ( GEOMETRIC_REPRESENTATION_CONTEXT(2) 
PARAMETRIC_REPRESENTATION_CONTEXT() REPRESENTATION_CONTEXT('2D SPACE',''
  ) );
#439 = PCURVE('',#234,#440);
#440 = DEFINITIONAL_REPRESENTATION('',(#441),#445);
#441 = LINE('',#442,#443);
#442 = CARTESIAN_POINT('',(150.,0.));
#443 = VECTOR('',#444,1.);
#444 = DIRECTION('',(0.,1.));
#445 = ( GEOMETRIC_REPRESENTATION_CONTEXT(2) 
PARAMETRIC_REPRESENTATION_CONTEXT() REPRESENTATION_CONTEXT('2D SPACE',''
  ) );
#446 = ORIENTED_EDGE('',*,*,#447,.F.);
#447 = EDGE_CURVE('',#69,#427,#448,.T.);
#448 = SURFACE_CURVE('',#449,(#453,#459),.PCURVE_S1.);
#449 = LINE('',#450,#451);
#450 = CARTESIAN_POINT('',(103.,0.,50.));
#451 = VECTOR('',#452,1.);
#452 = DIRECTION('',(-1.,0.,0.));
#453 = PCURVE('',#83,#454);
#454 = DEFINITIONAL_REPRESENTATION('',(#455),#458);
#455 = B_SPLINE_CURVE_WITH_KNOTS('',1,(#456,#457),.UNSPECIFIED.,.F.,.F.,
  (2,2),(-159.817961165,103.),.PIECEWISE_BEZIER_KNOTS.);
#456 = CARTESIAN_POINT('',(550.,262.81796116504));
#457 = CARTESIAN_POINT('',(550.,0.));
#458 = ( GEOMETRIC_REPRESENTATION_CONTEXT(2) 
PARAMETRIC_REPRESENTATION_CONTEXT() REPRESENTATION_CONTEXT('2D SPACE',''
  ) );
#459 = PCURVE('',#110,#460);
#460 = DEFINITIONAL_REPRESENTATION('',(#461),#464);
#461 = B_SPLINE_CURVE_WITH_KNOTS('',1,(#462,#463),.UNSPECIFIED.,.F.,.F.,
  (2,2),(-159.817961165,103.),.PIECEWISE_BEZIER_KNOTS.);
#462 = CARTESIAN_POINT('',(-53.2637982353,-19.78000274272));
#463 = CARTESIAN_POINT('',(193.1139768391,71.71465644753));
#464 = ( GEOMETRIC_REPRESENTATION_CONTEXT(2) 
PARAMETRIC_REPRESENTATION_CONTEXT() REPRESENTATION_CONTEXT('2D SPACE',''
  ) );
#465 = ADVANCED_FACE('',(#466),#110,.T.);
#466 = FACE_BOUND('',#467,.T.);
#467 = EDGE_LOOP('',(#468,#469,#470,#502,#552,#573));
#468 = ORIENTED_EDGE('',*,*,#94,.T.);
#469 = ORIENTED_EDGE('',*,*,#447,.T.);
#470 = ORIENTED_EDGE('',*,*,#471,.T.);
#471 = EDGE_CURVE('',#427,#472,#474,.T.);
#472 = VERTEX_POINT('',#473);
#473 = CARTESIAN_POINT('',(202.69494825734,-149.7745923083,50.));
#474 = SURFACE_CURVE('',#475,(#482,#492),.PCURVE_S1.);
#475 = B_SPLINE_CURVE_WITH_KNOTS('',5,(#476,#477,#478,#479,#480,#481),
  .UNSPECIFIED.,.F.,.F.,(6,6),(0.,1.),.PIECEWISE_BEZIER_KNOTS.);
#476 = CARTESIAN_POINT('',(202.71912350597,2.22044604925E-16,50.));
#477 = CARTESIAN_POINT('',(202.71912350597,-29.95543932586,50.));
#478 = CARTESIAN_POINT('',(202.71662304615,-59.91087869071,50.));
#479 = CARTESIAN_POINT('',(202.71162056099,-89.86605211944,50.));
#480 = CARTESIAN_POINT('',(202.704290111,-119.8206945014,50.));
#481 = CARTESIAN_POINT('',(202.69494825734,-149.7745923083,50.));
#482 = PCURVE('',#110,#483);
#483 = DEFINITIONAL_REPRESENTATION('',(#484),#491);
#484 = B_SPLINE_CURVE_WITH_KNOTS('',5,(#485,#486,#487,#488,#489,#490),
  .UNSPECIFIED.,.F.,.F.,(6,6),(0.,1.),.PIECEWISE_BEZIER_KNOTS.);
#485 = CARTESIAN_POINT('',(3.075646151839,1.142169566096));
#486 = CARTESIAN_POINT('',(-7.352722974323,29.223791003865));
#487 = CARTESIAN_POINT('',(-17.77874806676,57.306282961752));
#488 = CARTESIAN_POINT('',(-28.20233506417,85.389396647347));
#489 = CARTESIAN_POINT('',(-38.62355484613,113.47282293803));
#490 = CARTESIAN_POINT('',(-49.04262983632,141.55625145821));
#491 = ( GEOMETRIC_REPRESENTATION_CONTEXT(2) 
PARAMETRIC_REPRESENTATION_CONTEXT() REPRESENTATION_CONTEXT('2D SPACE',''
  ) );
#492 = PCURVE('',#234,#493);
#493 = DEFINITIONAL_REPRESENTATION('',(#494),#501);
#494 = B_SPLINE_CURVE_WITH_KNOTS('',5,(#495,#496,#497,#498,#499,#500),
  .UNSPECIFIED.,.F.,.F.,(6,6),(0.,1.),.PIECEWISE_BEZIER_KNOTS.);
#495 = CARTESIAN_POINT('',(150.,0.998007968127));
#496 = CARTESIAN_POINT('',(120.00051957272,0.998007968127));
#497 = CARTESIAN_POINT('',(90.001039175278,0.998007968127));
#498 = CARTESIAN_POINT('',(60.001293528681,0.998007968127));
#499 = CARTESIAN_POINT('',(30.001018149359,0.998007968127));
#500 = CARTESIAN_POINT('',(0.,0.998007968127));
#501 = ( GEOMETRIC_REPRESENTATION_CONTEXT(2) 
PARAMETRIC_REPRESENTATION_CONTEXT() REPRESENTATION_CONTEXT('2D SPACE',''
  ) );
#502 = ORIENTED_EDGE('',*,*,#503,.T.);
#503 = EDGE_CURVE('',#472,#504,#506,.T.);
#504 = VERTEX_POINT('',#505);
#505 = CARTESIAN_POINT('',(1.900353028839E-14,-149.8247011951,50.));
#506 = SURFACE_CURVE('',#507,(#520,#536),.PCURVE_S1.);
#507 = B_SPLINE_CURVE_WITH_KNOTS('',6,(#508,#509,#510,#511,#512,#513,
    #514,#515,#516,#517,#518,#519),.UNSPECIFIED.,.F.,.F.,(7,5,7),(0.,0.5
    ,1.),.UNSPECIFIED.);
#508 = CARTESIAN_POINT('',(202.69494825734,-149.7745923083,50.));
#509 = CARTESIAN_POINT('',(168.91502432307,-149.7900630256,50.));
#510 = CARTESIAN_POINT('',(135.13365179863,-149.8033964793,50.));
#511 = CARTESIAN_POINT('',(101.3510806463,-149.8139179498,50.));
#512 = CARTESIAN_POINT('',(67.567667390658,-149.8211068623,50.));
#513 = CARTESIAN_POINT('',(33.783833707248,-149.8247011951,50.));
#514 = CARTESIAN_POINT('',(-33.78383370723,-149.8247011951,50.));
#515 = CARTESIAN_POINT('',(-67.56766739072,-149.8211068623,50.));
#516 = CARTESIAN_POINT('',(-101.3510806462,-149.8139179498,50.));
#517 = CARTESIAN_POINT('',(-135.1336517986,-149.8033964793,50.));
#518 = CARTESIAN_POINT('',(-168.915024323,-149.7900630256,50.));
#519 = CARTESIAN_POINT('',(-202.6949482573,-149.7745923083,50.));
#520 = PCURVE('',#110,#521);
#521 = DEFINITIONAL_REPRESENTATION('',(#522),#535);
#522 = B_SPLINE_CURVE_WITH_KNOTS('',6,(#523,#524,#525,#526,#527,#528,
    #529,#530,#531,#532,#533,#534),.UNSPECIFIED.,.F.,.F.,(7,5,7),(0.,0.5
    ,1.),.UNSPECIFIED.);
#523 = CARTESIAN_POINT('',(-49.04262983632,141.55625145821));
#524 = CARTESIAN_POINT('',(-17.38114453974,153.3305390869));
#525 = CARTESIAN_POINT('',(14.282442776891,165.10332744217));
#526 = CARTESIAN_POINT('',(45.948132677069,176.87389699123));
#527 = CARTESIAN_POINT('',(77.615772165439,188.64163560648));
#528 = CARTESIAN_POINT('',(109.28505716122,200.40615085885));
#529 = CARTESIAN_POINT('',(172.62612978332,223.92844239084));
#530 = CARTESIAN_POINT('',(204.29791736503,235.6862186539));
#531 = CARTESIAN_POINT('',(235.97056219687,247.44047882747));
#532 = CARTESIAN_POINT('',(267.64357776359,259.19132174548));
#533 = CARTESIAN_POINT('',(299.31644861462,270.939111302));
#534 = CARTESIAN_POINT('',(330.98870553428,282.68439299147));
#535 = ( GEOMETRIC_REPRESENTATION_CONTEXT(2) 
PARAMETRIC_REPRESENTATION_CONTEXT() REPRESENTATION_CONTEXT('2D SPACE',''
  ) );
#536 = PCURVE('',#327,#537);
#537 = DEFINITIONAL_REPRESENTATION('',(#538),#551);
#538 = B_SPLINE_CURVE_WITH_KNOTS('',6,(#539,#540,#541,#542,#543,#544,
    #545,#546,#547,#548,#549,#550),.UNSPECIFIED.,.F.,.F.,(7,5,7),(0.,0.5
    ,1.),.UNSPECIFIED.);
#539 = CARTESIAN_POINT('',(406.,0.998007968127));
#540 = CARTESIAN_POINT('',(372.16410544984,0.998007968127));
#541 = CARTESIAN_POINT('',(338.32965607874,0.998007968127));
#542 = CARTESIAN_POINT('',(304.49640242261,0.998007968127));
#543 = CARTESIAN_POINT('',(270.66398872779,0.998007968127));
#544 = CARTESIAN_POINT('',(236.83199433391,0.998007968127));
#545 = CARTESIAN_POINT('',(169.1680056661,0.998007968127));
#546 = CARTESIAN_POINT('',(135.33601127213,0.998007968127));
#547 = CARTESIAN_POINT('',(101.50359757749,0.998007968127));
#548 = CARTESIAN_POINT('',(67.670343921183,0.998007968127));
#549 = CARTESIAN_POINT('',(33.835894550178,0.998007968127));
#550 = CARTESIAN_POINT('',(0.,0.998007968127));
#551 = ( GEOMETRIC_REPRESENTATION_CONTEXT(2) 
PARAMETRIC_REPRESENTATION_CONTEXT() REPRESENTATION_CONTEXT('2D SPACE',''
  ) );
#552 = ORIENTED_EDGE('',*,*,#553,.F.);
#553 = EDGE_CURVE('',#554,#504,#556,.T.);
#554 = VERTEX_POINT('',#555);
#555 = CARTESIAN_POINT('',(0.,-153.,50.));
#556 = SURFACE_CURVE('',#557,(#561,#567),.PCURVE_S1.);
#557 = LINE('',#558,#559);
#558 = CARTESIAN_POINT('',(0.,-500.,50.));
#559 = VECTOR('',#560,1.);
#560 = DIRECTION('',(0.,1.,0.));
#561 = PCURVE('',#110,#562);
#562 = DEFINITIONAL_REPRESENTATION('',(#563),#566);
#563 = B_SPLINE_CURVE_WITH_KNOTS('',1,(#564,#565),.UNSPECIFIED.,.F.,.F.,
  (2,2),(270.5,500.),.PIECEWISE_BEZIER_KNOTS.);
#564 = CARTESIAN_POINT('',(113.21827948614,286.85862579012));
#565 = CARTESIAN_POINT('',(193.1139768391,71.71465644753));
#566 = ( GEOMETRIC_REPRESENTATION_CONTEXT(2) 
PARAMETRIC_REPRESENTATION_CONTEXT() REPRESENTATION_CONTEXT('2D SPACE',''
  ) );
#567 = PCURVE('',#389,#568);
#568 = DEFINITIONAL_REPRESENTATION('',(#569),#572);
#569 = B_SPLINE_CURVE_WITH_KNOTS('',1,(#570,#571),.UNSPECIFIED.,.F.,.F.,
  (2,2),(270.5,500.),.PIECEWISE_BEZIER_KNOTS.);
#570 = CARTESIAN_POINT('',(550.,-770.5));
#571 = CARTESIAN_POINT('',(550.,-1.E+03));
#572 = ( GEOMETRIC_REPRESENTATION_CONTEXT(2) 
PARAMETRIC_REPRESENTATION_CONTEXT() REPRESENTATION_CONTEXT('2D SPACE',''
  ) );
#573 = ORIENTED_EDGE('',*,*,#574,.T.);
#574 = EDGE_CURVE('',#554,#95,#575,.T.);
#575 = SURFACE_CURVE('',#576,(#580,#587),.PCURVE_S1.);
#576 = LINE('',#577,#578);
#577 = CARTESIAN_POINT('',(-206.,-153.,50.));
#578 = VECTOR('',#579,1.);
#579 = DIRECTION('',(1.,0.,0.));
#580 = PCURVE('',#110,#581);
#581 = DEFINITIONAL_REPRESENTATION('',(#582),#586);
#582 = LINE('',#583,#584);
#583 = CARTESIAN_POINT('',(332.9641554429,286.85862579012));
#584 = VECTOR('',#585,1.);
#585 = DIRECTION('',(-0.93744648951,-0.348129400231));
#586 = ( GEOMETRIC_REPRESENTATION_CONTEXT(2) 
PARAMETRIC_REPRESENTATION_CONTEXT() REPRESENTATION_CONTEXT('2D SPACE',''
  ) );
#587 = PCURVE('',#135,#588);
#588 = DEFINITIONAL_REPRESENTATION('',(#589),#593);
#589 = LINE('',#590,#591);
#590 = CARTESIAN_POINT('',(0.,1.));
#591 = VECTOR('',#592,1.);
#592 = DIRECTION('',(1.,0.));
#593 = ( GEOMETRIC_REPRESENTATION_CONTEXT(2) 
PARAMETRIC_REPRESENTATION_CONTEXT() REPRESENTATION_CONTEXT('2D SPACE',''
  ) );
#594 = ADVANCED_FACE('',(#595),#135,.T.);
#595 = FACE_BOUND('',#596,.T.);
#596 = EDGE_LOOP('',(#597,#624,#625,#626));
#597 = ORIENTED_EDGE('',*,*,#598,.F.);
#598 = EDGE_CURVE('',#375,#554,#599,.T.);
#599 = SURFACE_CURVE('',#600,(#606,#615),.PCURVE_S1.);
#600 = B_SPLINE_CURVE_WITH_KNOTS('',4,(#601,#602,#603,#604,#605),
  .UNSPECIFIED.,.F.,.F.,(5,5),(0.,1.),.PIECEWISE_BEZIER_KNOTS.);
#601 = CARTESIAN_POINT('',(0.,-64.99999997312,0.));
#602 = CARTESIAN_POINT('',(0.,-86.99999997984,12.5));
#603 = CARTESIAN_POINT('',(0.,-108.9999999865,25.));
#604 = CARTESIAN_POINT('',(0.,-130.9999999932,37.5));
#605 = CARTESIAN_POINT('',(0.,-153.,50.));
#606 = PCURVE('',#135,#607);
#607 = DEFINITIONAL_REPRESENTATION('',(#608),#614);
#608 = B_SPLINE_CURVE_WITH_KNOTS('',4,(#609,#610,#611,#612,#613),
  .UNSPECIFIED.,.F.,.F.,(5,5),(0.,1.),.PIECEWISE_BEZIER_KNOTS.);
#609 = CARTESIAN_POINT('',(206.,0.));
#610 = CARTESIAN_POINT('',(206.,0.25));
#611 = CARTESIAN_POINT('',(206.,0.5));
#612 = CARTESIAN_POINT('',(206.,0.75));
#613 = CARTESIAN_POINT('',(206.,1.));
#614 = ( GEOMETRIC_REPRESENTATION_CONTEXT(2) 
PARAMETRIC_REPRESENTATION_CONTEXT() REPRESENTATION_CONTEXT('2D SPACE',''
  ) );
#615 = PCURVE('',#389,#616);
#616 = DEFINITIONAL_REPRESENTATION('',(#617),#623);
#617 = B_SPLINE_CURVE_WITH_KNOTS('',4,(#618,#619,#620,#621,#622),
  .UNSPECIFIED.,.F.,.F.,(5,5),(0.,1.),.PIECEWISE_BEZIER_KNOTS.);
#618 = CARTESIAN_POINT('',(500.,-935.0000000268));
#619 = CARTESIAN_POINT('',(512.5,-913.0000000201));
#620 = CARTESIAN_POINT('',(525.,-891.0000000134));
#621 = CARTESIAN_POINT('',(537.5,-869.0000000067));
#622 = CARTESIAN_POINT('',(550.,-847.));
#623 = ( GEOMETRIC_REPRESENTATION_CONTEXT(2) 
PARAMETRIC_REPRESENTATION_CONTEXT() REPRESENTATION_CONTEXT('2D SPACE',''
  ) );
#624 = ORIENTED_EDGE('',*,*,#400,.T.);
#625 = ORIENTED_EDGE('',*,*,#122,.T.);
#626 = ORIENTED_EDGE('',*,*,#574,.F.);
#627 = ADVANCED_FACE('',(#628),#389,.F.);
#628 = FACE_BOUND('',#629,.F.);
#629 = EDGE_LOOP('',(#630,#631,#632,#659));
#630 = ORIENTED_EDGE('',*,*,#598,.F.);
#631 = ORIENTED_EDGE('',*,*,#374,.T.);
#632 = ORIENTED_EDGE('',*,*,#633,.T.);
#633 = EDGE_CURVE('',#274,#504,#634,.T.);
#634 = SURFACE_CURVE('',#635,(#641,#650),.PCURVE_S1.);
#635 = B_SPLINE_CURVE_WITH_KNOTS('',4,(#636,#637,#638,#639,#640),
  .UNSPECIFIED.,.F.,.F.,(5,5),(0.,1.),.PIECEWISE_BEZIER_KNOTS.);
#636 = CARTESIAN_POINT('',(0.,-62.17524597851,-3.012000001945E-05));
#637 = CARTESIAN_POINT('',(0.,-84.08762298267,12.49998494));
#638 = CARTESIAN_POINT('',(0.,-105.9999999868,25.));
#639 = CARTESIAN_POINT('',(0.,-127.912376991,37.50001506));
#640 = CARTESIAN_POINT('',(0.,-149.8247539951,50.00003012));
#641 = PCURVE('',#389,#642);
#642 = DEFINITIONAL_REPRESENTATION('',(#643),#649);
#643 = B_SPLINE_CURVE_WITH_KNOTS('',4,(#644,#645,#646,#647,#648),
  .UNSPECIFIED.,.F.,.F.,(5,5),(0.,1.),.PIECEWISE_BEZIER_KNOTS.);
#644 = CARTESIAN_POINT('',(499.99996988,-937.8247540214));
#645 = CARTESIAN_POINT('',(512.49998494,-915.9123770173));
#646 = CARTESIAN_POINT('',(525.,-894.0000000131));
#647 = CARTESIAN_POINT('',(537.50001506,-872.0876230089));
#648 = CARTESIAN_POINT('',(550.00003012,-850.1752460048));
#649 = ( GEOMETRIC_REPRESENTATION_CONTEXT(2) 
PARAMETRIC_REPRESENTATION_CONTEXT() REPRESENTATION_CONTEXT('2D SPACE',''
  ) );
#650 = PCURVE('',#327,#651);
#651 = DEFINITIONAL_REPRESENTATION('',(#652),#658);
#652 = B_SPLINE_CURVE_WITH_KNOTS('',4,(#653,#654,#655,#656,#657),
  .UNSPECIFIED.,.F.,.F.,(5,5),(0.,1.),.PIECEWISE_BEZIER_KNOTS.);
#653 = CARTESIAN_POINT('',(203.,1.99143187251E-03));
#654 = CARTESIAN_POINT('',(203.,0.250995715936));
#655 = CARTESIAN_POINT('',(203.,0.5));
#656 = CARTESIAN_POINT('',(203.,0.749004284064));
#657 = CARTESIAN_POINT('',(203.,0.998008568127));
#658 = ( GEOMETRIC_REPRESENTATION_CONTEXT(2) 
PARAMETRIC_REPRESENTATION_CONTEXT() REPRESENTATION_CONTEXT('2D SPACE',''
  ) );
#659 = ORIENTED_EDGE('',*,*,#553,.F.);
#660 = ADVANCED_FACE('',(#661),#327,.F.);
#661 = FACE_BOUND('',#662,.F.);
#662 = EDGE_LOOP('',(#663,#664,#665,#685));
#663 = ORIENTED_EDGE('',*,*,#633,.F.);
#664 = ORIENTED_EDGE('',*,*,#273,.F.);
#665 = ORIENTED_EDGE('',*,*,#666,.T.);
#666 = EDGE_CURVE('',#189,#472,#667,.T.);
#667 = SURFACE_CURVE('',#668,(#671,#678),.PCURVE_S1.);
#668 = B_SPLINE_CURVE_WITH_KNOTS('',1,(#669,#670),.UNSPECIFIED.,.F.,.F.,
  (2,2),(0.,1.),.PIECEWISE_BEZIER_KNOTS.);
#669 = CARTESIAN_POINT('',(49.864025188715,-36.84533880939,-1.E-01));
#670 = CARTESIAN_POINT('',(203.,-150.,50.1));
#671 = PCURVE('',#327,#672);
#672 = DEFINITIONAL_REPRESENTATION('',(#673),#677);
#673 = LINE('',#674,#675);
#674 = CARTESIAN_POINT('',(406.,0.));
#675 = VECTOR('',#676,1.);
#676 = DIRECTION('',(0.,1.));
#677 = ( GEOMETRIC_REPRESENTATION_CONTEXT(2) 
PARAMETRIC_REPRESENTATION_CONTEXT() REPRESENTATION_CONTEXT('2D SPACE',''
  ) );
#678 = PCURVE('',#234,#679);
#679 = DEFINITIONAL_REPRESENTATION('',(#680),#684);
#680 = LINE('',#681,#682);
#681 = CARTESIAN_POINT('',(0.,0.));
#682 = VECTOR('',#683,1.);
#683 = DIRECTION('',(0.,1.));
#684 = ( GEOMETRIC_REPRESENTATION_CONTEXT(2) 
PARAMETRIC_REPRESENTATION_CONTEXT() REPRESENTATION_CONTEXT('2D SPACE',''
  ) );
#685 = ORIENTED_EDGE('',*,*,#503,.T.);
#686 = ADVANCED_FACE('',(#687),#234,.F.);
#687 = FACE_BOUND('',#688,.F.);
#688 = EDGE_LOOP('',(#689,#690,#691,#692));
#689 = ORIENTED_EDGE('',*,*,#666,.F.);
#690 = ORIENTED_EDGE('',*,*,#188,.F.);
#691 = ORIENTED_EDGE('',*,*,#426,.T.);
#692 = ORIENTED_EDGE('',*,*,#471,.T.);
#693 = ( GEOMETRIC_REPRESENTATION_CONTEXT(3) 
GLOBAL_UNCERTAINTY_ASSIGNED_CONTEXT((#697)) GLOBAL_UNIT_ASSIGNED_CONTEXT
((#694,#695,#696)) REPRESENTATION_CONTEXT('Context #1',
  '3D Context with UNIT and UNCERTAINTY') );
#694 = ( LENGTH_UNIT() NAMED_UNIT(*) SI_UNIT(.MILLI.,.METRE.) );
#695 = ( NAMED_UNIT(*) PLANE_ANGLE_UNIT() SI_UNIT($,.RADIAN.) );
#696 = ( NAMED_UNIT(*) SI_UNIT($,.STERADIAN.) SOLID_ANGLE_UNIT() );
#697 = UNCERTAINTY_MEASURE_WITH_UNIT(LENGTH_MEASURE(2.E-06),#694,
  'distance_accuracy_value','confusion accuracy');
#698 = PRODUCT_RELATED_PRODUCT_CATEGORY('part',$,(#7));
ENDSEC;
END-ISO-10303-21;
